<?xml version="1.0" encoding="utf-8" standalone="no"?>
<!DOCTYPE svg PUBLIC "-//W3C//DTD SVG 1.1//EN"
  "http://www.w3.org/Graphics/SVG/1.1/DTD/svg11.dtd">
<svg xmlns:xlink="http://www.w3.org/1999/xlink" width="576pt" height="360pt" viewBox="0 0 576 360" xmlns="http://www.w3.org/2000/svg" version="1.1">
 <metadata>
  <rdf:RDF xmlns:dc="http://purl.org/dc/elements/1.1/" xmlns:cc="http://creativecommons.org/ns#" xmlns:rdf="http://www.w3.org/1999/02/22-rdf-syntax-ns#">
   <cc:Work>
    <dc:type rdf:resource="http://purl.org/dc/dcmitype/StillImage"/>
    <dc:date>2023-10-23T23:10:31.240394</dc:date>
    <dc:format>image/svg+xml</dc:format>
    <dc:creator>
     <cc:Agent>
      <dc:title>Matplotlib v3.7.2, https://matplotlib.org/</dc:title>
     </cc:Agent>
    </dc:creator>
   </cc:Work>
  </rdf:RDF>
 </metadata>
 <defs>
  <style type="text/css">*{stroke-linejoin: round; stroke-linecap: butt}</style>
 </defs>
 <g id="figure_1">
  <g id="patch_1">
   <path d="M 0 360 
L 576 360 
L 576 0 
L 0 0 
z
" style="fill: #ffffff"/>
  </g>
  <g id="axes_1">
   <g id="patch_2">
    <path d="M 81.29 300.328 
L 543.33 300.328 
L 543.33 17.28 
L 81.29 17.28 
z
" style="fill: #ffffff"/>
   </g>
   <g id="matplotlib.axis_1">
    <g id="xtick_1">
     <g id="line2d_1">
      <defs>
       <path id="maceb784f7b" d="M 0 0 
L 0 3.5 
" style="stroke: #000000; stroke-width: 0.8"/>
      </defs>
      <g>
       <use xlink:href="#maceb784f7b" x="101.506724" y="300.328" style="stroke: #000000; stroke-width: 0.8"/>
      </g>
     </g>
     <g id="text_1">
      <!-- 50 -->
      <g transform="translate(91.326724 319.4855) scale(0.16 -0.16)">
       <defs>
        <path id="DejaVuSans-35" d="M 691 4666 
L 3169 4666 
L 3169 4134 
L 1269 4134 
L 1269 2991 
Q 1406 3038 1543 3061 
Q 1681 3084 1819 3084 
Q 2600 3084 3056 2656 
Q 3513 2228 3513 1497 
Q 3513 744 3044 326 
Q 2575 -91 1722 -91 
Q 1428 -91 1123 -41 
Q 819 9 494 109 
L 494 744 
Q 775 591 1075 516 
Q 1375 441 1709 441 
Q 2250 441 2565 725 
Q 2881 1009 2881 1497 
Q 2881 1984 2565 2268 
Q 2250 2553 1709 2553 
Q 1456 2553 1204 2497 
Q 953 2441 691 2322 
L 691 4666 
z
" transform="scale(0.015625)"/>
        <path id="DejaVuSans-30" d="M 2034 4250 
Q 1547 4250 1301 3770 
Q 1056 3291 1056 2328 
Q 1056 1369 1301 889 
Q 1547 409 2034 409 
Q 2525 409 2770 889 
Q 3016 1369 3016 2328 
Q 3016 3291 2770 3770 
Q 2525 4250 2034 4250 
z
M 2034 4750 
Q 2819 4750 3233 4129 
Q 3647 3509 3647 2328 
Q 3647 1150 3233 529 
Q 2819 -91 2034 -91 
Q 1250 -91 836 529 
Q 422 1150 422 2328 
Q 422 3509 836 4129 
Q 1250 4750 2034 4750 
z
" transform="scale(0.015625)"/>
       </defs>
       <use xlink:href="#DejaVuSans-35"/>
       <use xlink:href="#DejaVuSans-30" x="63.623047"/>
      </g>
     </g>
    </g>
    <g id="xtick_2">
     <g id="line2d_2">
      <g>
       <use xlink:href="#maceb784f7b" x="234.508783" y="300.328" style="stroke: #000000; stroke-width: 0.8"/>
      </g>
     </g>
     <g id="text_2">
      <!-- 100 -->
      <g transform="translate(219.238783 319.4855) scale(0.16 -0.16)">
       <defs>
        <path id="DejaVuSans-31" d="M 794 531 
L 1825 531 
L 1825 4091 
L 703 3866 
L 703 4441 
L 1819 4666 
L 2450 4666 
L 2450 531 
L 3481 531 
L 3481 0 
L 794 0 
L 794 531 
z
" transform="scale(0.015625)"/>
       </defs>
       <use xlink:href="#DejaVuSans-31"/>
       <use xlink:href="#DejaVuSans-30" x="63.623047"/>
       <use xlink:href="#DejaVuSans-30" x="127.246094"/>
      </g>
     </g>
    </g>
    <g id="xtick_3">
     <g id="line2d_3">
      <g>
       <use xlink:href="#maceb784f7b" x="543.33" y="300.328" style="stroke: #000000; stroke-width: 0.8"/>
      </g>
     </g>
     <g id="text_3">
      <!-- 500 -->
      <g transform="translate(528.06 319.4855) scale(0.16 -0.16)">
       <use xlink:href="#DejaVuSans-35"/>
       <use xlink:href="#DejaVuSans-30" x="63.623047"/>
       <use xlink:href="#DejaVuSans-30" x="127.246094"/>
      </g>
     </g>
    </g>
    <g id="xtick_4">
     <g id="line2d_4">
      <defs>
       <path id="m6f9bfda126" d="M 0 0 
L 0 2 
" style="stroke: #000000; stroke-width: 0.6"/>
      </defs>
      <g>
       <use xlink:href="#m6f9bfda126" x="136.490842" y="300.328" style="stroke: #000000; stroke-width: 0.6"/>
      </g>
     </g>
    </g>
    <g id="xtick_5">
     <g id="line2d_5">
      <g>
       <use xlink:href="#m6f9bfda126" x="166.069492" y="300.328" style="stroke: #000000; stroke-width: 0.6"/>
      </g>
     </g>
    </g>
    <g id="xtick_6">
     <g id="line2d_6">
      <g>
       <use xlink:href="#m6f9bfda126" x="191.691684" y="300.328" style="stroke: #000000; stroke-width: 0.6"/>
      </g>
     </g>
    </g>
    <g id="xtick_7">
     <g id="line2d_7">
      <g>
       <use xlink:href="#m6f9bfda126" x="214.292059" y="300.328" style="stroke: #000000; stroke-width: 0.6"/>
      </g>
     </g>
    </g>
    <g id="xtick_8">
     <g id="line2d_8">
      <g>
       <use xlink:href="#m6f9bfda126" x="367.510842" y="300.328" style="stroke: #000000; stroke-width: 0.6"/>
      </g>
     </g>
    </g>
    <g id="xtick_9">
     <g id="line2d_9">
      <g>
       <use xlink:href="#m6f9bfda126" x="445.312059" y="300.328" style="stroke: #000000; stroke-width: 0.6"/>
      </g>
     </g>
    </g>
    <g id="xtick_10">
     <g id="line2d_10">
      <g>
       <use xlink:href="#m6f9bfda126" x="500.512901" y="300.328" style="stroke: #000000; stroke-width: 0.6"/>
      </g>
     </g>
    </g>
    <g id="text_4">
     <!-- axial stress $\sigma_1$ [kPa] -->
     <g transform="translate(232.39 338.9705) scale(0.16 -0.16)">
      <defs>
       <path id="DejaVuSans-61" d="M 2194 1759 
Q 1497 1759 1228 1600 
Q 959 1441 959 1056 
Q 959 750 1161 570 
Q 1363 391 1709 391 
Q 2188 391 2477 730 
Q 2766 1069 2766 1631 
L 2766 1759 
L 2194 1759 
z
M 3341 1997 
L 3341 0 
L 2766 0 
L 2766 531 
Q 2569 213 2275 61 
Q 1981 -91 1556 -91 
Q 1019 -91 701 211 
Q 384 513 384 1019 
Q 384 1609 779 1909 
Q 1175 2209 1959 2209 
L 2766 2209 
L 2766 2266 
Q 2766 2663 2505 2880 
Q 2244 3097 1772 3097 
Q 1472 3097 1187 3025 
Q 903 2953 641 2809 
L 641 3341 
Q 956 3463 1253 3523 
Q 1550 3584 1831 3584 
Q 2591 3584 2966 3190 
Q 3341 2797 3341 1997 
z
" transform="scale(0.015625)"/>
       <path id="DejaVuSans-78" d="M 3513 3500 
L 2247 1797 
L 3578 0 
L 2900 0 
L 1881 1375 
L 863 0 
L 184 0 
L 1544 1831 
L 300 3500 
L 978 3500 
L 1906 2253 
L 2834 3500 
L 3513 3500 
z
" transform="scale(0.015625)"/>
       <path id="DejaVuSans-69" d="M 603 3500 
L 1178 3500 
L 1178 0 
L 603 0 
L 603 3500 
z
M 603 4863 
L 1178 4863 
L 1178 4134 
L 603 4134 
L 603 4863 
z
" transform="scale(0.015625)"/>
       <path id="DejaVuSans-6c" d="M 603 4863 
L 1178 4863 
L 1178 0 
L 603 0 
L 603 4863 
z
" transform="scale(0.015625)"/>
       <path id="DejaVuSans-20" transform="scale(0.015625)"/>
       <path id="DejaVuSans-73" d="M 2834 3397 
L 2834 2853 
Q 2591 2978 2328 3040 
Q 2066 3103 1784 3103 
Q 1356 3103 1142 2972 
Q 928 2841 928 2578 
Q 928 2378 1081 2264 
Q 1234 2150 1697 2047 
L 1894 2003 
Q 2506 1872 2764 1633 
Q 3022 1394 3022 966 
Q 3022 478 2636 193 
Q 2250 -91 1575 -91 
Q 1294 -91 989 -36 
Q 684 19 347 128 
L 347 722 
Q 666 556 975 473 
Q 1284 391 1588 391 
Q 1994 391 2212 530 
Q 2431 669 2431 922 
Q 2431 1156 2273 1281 
Q 2116 1406 1581 1522 
L 1381 1569 
Q 847 1681 609 1914 
Q 372 2147 372 2553 
Q 372 3047 722 3315 
Q 1072 3584 1716 3584 
Q 2034 3584 2315 3537 
Q 2597 3491 2834 3397 
z
" transform="scale(0.015625)"/>
       <path id="DejaVuSans-74" d="M 1172 4494 
L 1172 3500 
L 2356 3500 
L 2356 3053 
L 1172 3053 
L 1172 1153 
Q 1172 725 1289 603 
Q 1406 481 1766 481 
L 2356 481 
L 2356 0 
L 1766 0 
Q 1100 0 847 248 
Q 594 497 594 1153 
L 594 3053 
L 172 3053 
L 172 3500 
L 594 3500 
L 594 4494 
L 1172 4494 
z
" transform="scale(0.015625)"/>
       <path id="DejaVuSans-72" d="M 2631 2963 
Q 2534 3019 2420 3045 
Q 2306 3072 2169 3072 
Q 1681 3072 1420 2755 
Q 1159 2438 1159 1844 
L 1159 0 
L 581 0 
L 581 3500 
L 1159 3500 
L 1159 2956 
Q 1341 3275 1631 3429 
Q 1922 3584 2338 3584 
Q 2397 3584 2469 3576 
Q 2541 3569 2628 3553 
L 2631 2963 
z
" transform="scale(0.015625)"/>
       <path id="DejaVuSans-65" d="M 3597 1894 
L 3597 1613 
L 953 1613 
Q 991 1019 1311 708 
Q 1631 397 2203 397 
Q 2534 397 2845 478 
Q 3156 559 3463 722 
L 3463 178 
Q 3153 47 2828 -22 
Q 2503 -91 2169 -91 
Q 1331 -91 842 396 
Q 353 884 353 1716 
Q 353 2575 817 3079 
Q 1281 3584 2069 3584 
Q 2775 3584 3186 3129 
Q 3597 2675 3597 1894 
z
M 3022 2063 
Q 3016 2534 2758 2815 
Q 2500 3097 2075 3097 
Q 1594 3097 1305 2825 
Q 1016 2553 972 2059 
L 3022 2063 
z
" transform="scale(0.015625)"/>
       <path id="DejaVuSans-Oblique-3c3" d="M 2219 3044 
Q 1744 3044 1422 2700 
Q 1081 2341 969 1747 
Q 844 1119 1044 756 
Q 1241 397 1706 397 
Q 2166 397 2503 759 
Q 2844 1122 2966 1747 
Q 3075 2319 2881 2700 
Q 2700 3044 2219 3044 
z
M 2309 3503 
L 4219 3500 
L 4106 2925 
L 3463 2925 
Q 3706 2438 3575 1747 
Q 3406 888 2884 400 
Q 2359 -91 1609 -91 
Q 856 -91 525 400 
Q 194 888 363 1747 
Q 528 2609 1050 3097 
Q 1484 3503 2309 3503 
z
" transform="scale(0.015625)"/>
       <path id="DejaVuSans-5b" d="M 550 4863 
L 1875 4863 
L 1875 4416 
L 1125 4416 
L 1125 -397 
L 1875 -397 
L 1875 -844 
L 550 -844 
L 550 4863 
z
" transform="scale(0.015625)"/>
       <path id="DejaVuSans-6b" d="M 581 4863 
L 1159 4863 
L 1159 1991 
L 2875 3500 
L 3609 3500 
L 1753 1863 
L 3688 0 
L 2938 0 
L 1159 1709 
L 1159 0 
L 581 0 
L 581 4863 
z
" transform="scale(0.015625)"/>
       <path id="DejaVuSans-50" d="M 1259 4147 
L 1259 2394 
L 2053 2394 
Q 2494 2394 2734 2622 
Q 2975 2850 2975 3272 
Q 2975 3691 2734 3919 
Q 2494 4147 2053 4147 
L 1259 4147 
z
M 628 4666 
L 2053 4666 
Q 2838 4666 3239 4311 
Q 3641 3956 3641 3272 
Q 3641 2581 3239 2228 
Q 2838 1875 2053 1875 
L 1259 1875 
L 1259 0 
L 628 0 
L 628 4666 
z
" transform="scale(0.015625)"/>
       <path id="DejaVuSans-5d" d="M 1947 4863 
L 1947 -844 
L 622 -844 
L 622 -397 
L 1369 -397 
L 1369 4416 
L 622 4416 
L 622 4863 
L 1947 4863 
z
" transform="scale(0.015625)"/>
      </defs>
      <use xlink:href="#DejaVuSans-61" transform="translate(0 0.015625)"/>
      <use xlink:href="#DejaVuSans-78" transform="translate(61.279297 0.015625)"/>
      <use xlink:href="#DejaVuSans-69" transform="translate(120.458984 0.015625)"/>
      <use xlink:href="#DejaVuSans-61" transform="translate(148.242188 0.015625)"/>
      <use xlink:href="#DejaVuSans-6c" transform="translate(209.521484 0.015625)"/>
      <use xlink:href="#DejaVuSans-20" transform="translate(237.304688 0.015625)"/>
      <use xlink:href="#DejaVuSans-73" transform="translate(269.091797 0.015625)"/>
      <use xlink:href="#DejaVuSans-74" transform="translate(321.191406 0.015625)"/>
      <use xlink:href="#DejaVuSans-72" transform="translate(360.400391 0.015625)"/>
      <use xlink:href="#DejaVuSans-65" transform="translate(401.513672 0.015625)"/>
      <use xlink:href="#DejaVuSans-73" transform="translate(463.037109 0.015625)"/>
      <use xlink:href="#DejaVuSans-73" transform="translate(515.136719 0.015625)"/>
      <use xlink:href="#DejaVuSans-20" transform="translate(567.236328 0.015625)"/>
      <use xlink:href="#DejaVuSans-Oblique-3c3" transform="translate(599.023438 0.015625)"/>
      <use xlink:href="#DejaVuSans-31" transform="translate(662.402344 -16.390625) scale(0.7)"/>
      <use xlink:href="#DejaVuSans-20" transform="translate(709.672852 0.015625)"/>
      <use xlink:href="#DejaVuSans-5b" transform="translate(741.459961 0.015625)"/>
      <use xlink:href="#DejaVuSans-6b" transform="translate(780.473633 0.015625)"/>
      <use xlink:href="#DejaVuSans-50" transform="translate(838.383789 0.015625)"/>
      <use xlink:href="#DejaVuSans-61" transform="translate(898.686523 0.015625)"/>
      <use xlink:href="#DejaVuSans-5d" transform="translate(959.96582 0.015625)"/>
     </g>
    </g>
   </g>
   <g id="matplotlib.axis_2">
    <g id="ytick_1">
     <g id="line2d_11">
      <defs>
       <path id="mea550092e9" d="M 0 0 
L -3.5 0 
" style="stroke: #000000; stroke-width: 0.8"/>
      </defs>
      <g>
       <use xlink:href="#mea550092e9" x="81.29" y="47.690116" style="stroke: #000000; stroke-width: 0.8"/>
      </g>
     </g>
     <g id="text_5">
      <!-- 0.24 -->
      <g transform="translate(38.665 53.768866) scale(0.16 -0.16)">
       <defs>
        <path id="DejaVuSans-2e" d="M 684 794 
L 1344 794 
L 1344 0 
L 684 0 
L 684 794 
z
" transform="scale(0.015625)"/>
        <path id="DejaVuSans-32" d="M 1228 531 
L 3431 531 
L 3431 0 
L 469 0 
L 469 531 
Q 828 903 1448 1529 
Q 2069 2156 2228 2338 
Q 2531 2678 2651 2914 
Q 2772 3150 2772 3378 
Q 2772 3750 2511 3984 
Q 2250 4219 1831 4219 
Q 1534 4219 1204 4116 
Q 875 4013 500 3803 
L 500 4441 
Q 881 4594 1212 4672 
Q 1544 4750 1819 4750 
Q 2544 4750 2975 4387 
Q 3406 4025 3406 3419 
Q 3406 3131 3298 2873 
Q 3191 2616 2906 2266 
Q 2828 2175 2409 1742 
Q 1991 1309 1228 531 
z
" transform="scale(0.015625)"/>
        <path id="DejaVuSans-34" d="M 2419 4116 
L 825 1625 
L 2419 1625 
L 2419 4116 
z
M 2253 4666 
L 3047 4666 
L 3047 1625 
L 3713 1625 
L 3713 1100 
L 3047 1100 
L 3047 0 
L 2419 0 
L 2419 1100 
L 313 1100 
L 313 1709 
L 2253 4666 
z
" transform="scale(0.015625)"/>
       </defs>
       <use xlink:href="#DejaVuSans-30"/>
       <use xlink:href="#DejaVuSans-2e" x="63.623047"/>
       <use xlink:href="#DejaVuSans-32" x="95.410156"/>
       <use xlink:href="#DejaVuSans-34" x="159.033203"/>
      </g>
     </g>
    </g>
    <g id="ytick_2">
     <g id="line2d_12">
      <g>
       <use xlink:href="#mea550092e9" x="81.29" y="94.474909" style="stroke: #000000; stroke-width: 0.8"/>
      </g>
     </g>
     <g id="text_6">
      <!-- 0.26 -->
      <g transform="translate(38.665 100.553659) scale(0.16 -0.16)">
       <defs>
        <path id="DejaVuSans-36" d="M 2113 2584 
Q 1688 2584 1439 2293 
Q 1191 2003 1191 1497 
Q 1191 994 1439 701 
Q 1688 409 2113 409 
Q 2538 409 2786 701 
Q 3034 994 3034 1497 
Q 3034 2003 2786 2293 
Q 2538 2584 2113 2584 
z
M 3366 4563 
L 3366 3988 
Q 3128 4100 2886 4159 
Q 2644 4219 2406 4219 
Q 1781 4219 1451 3797 
Q 1122 3375 1075 2522 
Q 1259 2794 1537 2939 
Q 1816 3084 2150 3084 
Q 2853 3084 3261 2657 
Q 3669 2231 3669 1497 
Q 3669 778 3244 343 
Q 2819 -91 2113 -91 
Q 1303 -91 875 529 
Q 447 1150 447 2328 
Q 447 3434 972 4092 
Q 1497 4750 2381 4750 
Q 2619 4750 2861 4703 
Q 3103 4656 3366 4563 
z
" transform="scale(0.015625)"/>
       </defs>
       <use xlink:href="#DejaVuSans-30"/>
       <use xlink:href="#DejaVuSans-2e" x="63.623047"/>
       <use xlink:href="#DejaVuSans-32" x="95.410156"/>
       <use xlink:href="#DejaVuSans-36" x="159.033203"/>
      </g>
     </g>
    </g>
    <g id="ytick_3">
     <g id="line2d_13">
      <g>
       <use xlink:href="#mea550092e9" x="81.29" y="141.259702" style="stroke: #000000; stroke-width: 0.8"/>
      </g>
     </g>
     <g id="text_7">
      <!-- 0.28 -->
      <g transform="translate(38.665 147.338452) scale(0.16 -0.16)">
       <defs>
        <path id="DejaVuSans-38" d="M 2034 2216 
Q 1584 2216 1326 1975 
Q 1069 1734 1069 1313 
Q 1069 891 1326 650 
Q 1584 409 2034 409 
Q 2484 409 2743 651 
Q 3003 894 3003 1313 
Q 3003 1734 2745 1975 
Q 2488 2216 2034 2216 
z
M 1403 2484 
Q 997 2584 770 2862 
Q 544 3141 544 3541 
Q 544 4100 942 4425 
Q 1341 4750 2034 4750 
Q 2731 4750 3128 4425 
Q 3525 4100 3525 3541 
Q 3525 3141 3298 2862 
Q 3072 2584 2669 2484 
Q 3125 2378 3379 2068 
Q 3634 1759 3634 1313 
Q 3634 634 3220 271 
Q 2806 -91 2034 -91 
Q 1263 -91 848 271 
Q 434 634 434 1313 
Q 434 1759 690 2068 
Q 947 2378 1403 2484 
z
M 1172 3481 
Q 1172 3119 1398 2916 
Q 1625 2713 2034 2713 
Q 2441 2713 2670 2916 
Q 2900 3119 2900 3481 
Q 2900 3844 2670 4047 
Q 2441 4250 2034 4250 
Q 1625 4250 1398 4047 
Q 1172 3844 1172 3481 
z
" transform="scale(0.015625)"/>
       </defs>
       <use xlink:href="#DejaVuSans-30"/>
       <use xlink:href="#DejaVuSans-2e" x="63.623047"/>
       <use xlink:href="#DejaVuSans-32" x="95.410156"/>
       <use xlink:href="#DejaVuSans-38" x="159.033203"/>
      </g>
     </g>
    </g>
    <g id="ytick_4">
     <g id="line2d_14">
      <g>
       <use xlink:href="#mea550092e9" x="81.29" y="188.044496" style="stroke: #000000; stroke-width: 0.8"/>
      </g>
     </g>
     <g id="text_8">
      <!-- 0.30 -->
      <g transform="translate(38.665 194.123246) scale(0.16 -0.16)">
       <defs>
        <path id="DejaVuSans-33" d="M 2597 2516 
Q 3050 2419 3304 2112 
Q 3559 1806 3559 1356 
Q 3559 666 3084 287 
Q 2609 -91 1734 -91 
Q 1441 -91 1130 -33 
Q 819 25 488 141 
L 488 750 
Q 750 597 1062 519 
Q 1375 441 1716 441 
Q 2309 441 2620 675 
Q 2931 909 2931 1356 
Q 2931 1769 2642 2001 
Q 2353 2234 1838 2234 
L 1294 2234 
L 1294 2753 
L 1863 2753 
Q 2328 2753 2575 2939 
Q 2822 3125 2822 3475 
Q 2822 3834 2567 4026 
Q 2313 4219 1838 4219 
Q 1578 4219 1281 4162 
Q 984 4106 628 3988 
L 628 4550 
Q 988 4650 1302 4700 
Q 1616 4750 1894 4750 
Q 2613 4750 3031 4423 
Q 3450 4097 3450 3541 
Q 3450 3153 3228 2886 
Q 3006 2619 2597 2516 
z
" transform="scale(0.015625)"/>
       </defs>
       <use xlink:href="#DejaVuSans-30"/>
       <use xlink:href="#DejaVuSans-2e" x="63.623047"/>
       <use xlink:href="#DejaVuSans-33" x="95.410156"/>
       <use xlink:href="#DejaVuSans-30" x="159.033203"/>
      </g>
     </g>
    </g>
    <g id="ytick_5">
     <g id="line2d_15">
      <g>
       <use xlink:href="#mea550092e9" x="81.29" y="234.829289" style="stroke: #000000; stroke-width: 0.8"/>
      </g>
     </g>
     <g id="text_9">
      <!-- 0.32 -->
      <g transform="translate(38.665 240.908039) scale(0.16 -0.16)">
       <use xlink:href="#DejaVuSans-30"/>
       <use xlink:href="#DejaVuSans-2e" x="63.623047"/>
       <use xlink:href="#DejaVuSans-33" x="95.410156"/>
       <use xlink:href="#DejaVuSans-32" x="159.033203"/>
      </g>
     </g>
    </g>
    <g id="ytick_6">
     <g id="line2d_16">
      <g>
       <use xlink:href="#mea550092e9" x="81.29" y="281.614083" style="stroke: #000000; stroke-width: 0.8"/>
      </g>
     </g>
     <g id="text_10">
      <!-- 0.34 -->
      <g transform="translate(38.665 287.692833) scale(0.16 -0.16)">
       <use xlink:href="#DejaVuSans-30"/>
       <use xlink:href="#DejaVuSans-2e" x="63.623047"/>
       <use xlink:href="#DejaVuSans-33" x="95.410156"/>
       <use xlink:href="#DejaVuSans-34" x="159.033203"/>
      </g>
     </g>
    </g>
    <g id="text_11">
     <!-- solid fraction $\phi$ [-] -->
     <g transform="translate(31.305 230.164) rotate(-90) scale(0.16 -0.16)">
      <defs>
       <path id="DejaVuSans-6f" d="M 1959 3097 
Q 1497 3097 1228 2736 
Q 959 2375 959 1747 
Q 959 1119 1226 758 
Q 1494 397 1959 397 
Q 2419 397 2687 759 
Q 2956 1122 2956 1747 
Q 2956 2369 2687 2733 
Q 2419 3097 1959 3097 
z
M 1959 3584 
Q 2709 3584 3137 3096 
Q 3566 2609 3566 1747 
Q 3566 888 3137 398 
Q 2709 -91 1959 -91 
Q 1206 -91 779 398 
Q 353 888 353 1747 
Q 353 2609 779 3096 
Q 1206 3584 1959 3584 
z
" transform="scale(0.015625)"/>
       <path id="DejaVuSans-64" d="M 2906 2969 
L 2906 4863 
L 3481 4863 
L 3481 0 
L 2906 0 
L 2906 525 
Q 2725 213 2448 61 
Q 2172 -91 1784 -91 
Q 1150 -91 751 415 
Q 353 922 353 1747 
Q 353 2572 751 3078 
Q 1150 3584 1784 3584 
Q 2172 3584 2448 3432 
Q 2725 3281 2906 2969 
z
M 947 1747 
Q 947 1113 1208 752 
Q 1469 391 1925 391 
Q 2381 391 2643 752 
Q 2906 1113 2906 1747 
Q 2906 2381 2643 2742 
Q 2381 3103 1925 3103 
Q 1469 3103 1208 2742 
Q 947 2381 947 1747 
z
" transform="scale(0.015625)"/>
       <path id="DejaVuSans-66" d="M 2375 4863 
L 2375 4384 
L 1825 4384 
Q 1516 4384 1395 4259 
Q 1275 4134 1275 3809 
L 1275 3500 
L 2222 3500 
L 2222 3053 
L 1275 3053 
L 1275 0 
L 697 0 
L 697 3053 
L 147 3053 
L 147 3500 
L 697 3500 
L 697 3744 
Q 697 4328 969 4595 
Q 1241 4863 1831 4863 
L 2375 4863 
z
" transform="scale(0.015625)"/>
       <path id="DejaVuSans-63" d="M 3122 3366 
L 3122 2828 
Q 2878 2963 2633 3030 
Q 2388 3097 2138 3097 
Q 1578 3097 1268 2742 
Q 959 2388 959 1747 
Q 959 1106 1268 751 
Q 1578 397 2138 397 
Q 2388 397 2633 464 
Q 2878 531 3122 666 
L 3122 134 
Q 2881 22 2623 -34 
Q 2366 -91 2075 -91 
Q 1284 -91 818 406 
Q 353 903 353 1747 
Q 353 2603 823 3093 
Q 1294 3584 2113 3584 
Q 2378 3584 2631 3529 
Q 2884 3475 3122 3366 
z
" transform="scale(0.015625)"/>
       <path id="DejaVuSans-6e" d="M 3513 2113 
L 3513 0 
L 2938 0 
L 2938 2094 
Q 2938 2591 2744 2837 
Q 2550 3084 2163 3084 
Q 1697 3084 1428 2787 
Q 1159 2491 1159 1978 
L 1159 0 
L 581 0 
L 581 3500 
L 1159 3500 
L 1159 2956 
Q 1366 3272 1645 3428 
Q 1925 3584 2291 3584 
Q 2894 3584 3203 3211 
Q 3513 2838 3513 2113 
z
" transform="scale(0.015625)"/>
       <path id="DejaVuSans-Oblique-3d5" d="M 2991 4863 
L 2738 3572 
Q 3363 3572 3684 3094 
Q 4016 2606 3850 1747 
Q 3681 888 3159 400 
Q 2653 -78 2028 -78 
L 1784 -1331 
L 1213 -1331 
L 1456 -78 
Q 834 -78 509 400 
Q 178 888 347 1747 
Q 513 2606 1034 3094 
Q 1544 3572 2166 3572 
L 2419 4863 
L 2991 4863 
z
M 2128 434 
Q 2481 434 2784 756 
Q 3116 1116 3244 1747 
Q 3369 2372 3169 2738 
Q 2991 3059 2638 3059 
L 2128 434 
z
M 1556 434 
L 2066 3059 
Q 1716 3059 1413 2738 
Q 1072 2372 953 1747 
Q 834 1116 1028 756 
Q 1203 434 1556 434 
z
" transform="scale(0.015625)"/>
       <path id="DejaVuSans-2d" d="M 313 2009 
L 1997 2009 
L 1997 1497 
L 313 1497 
L 313 2009 
z
" transform="scale(0.015625)"/>
      </defs>
      <use xlink:href="#DejaVuSans-73" transform="translate(0 0.015625)"/>
      <use xlink:href="#DejaVuSans-6f" transform="translate(52.099609 0.015625)"/>
      <use xlink:href="#DejaVuSans-6c" transform="translate(113.28125 0.015625)"/>
      <use xlink:href="#DejaVuSans-69" transform="translate(141.064453 0.015625)"/>
      <use xlink:href="#DejaVuSans-64" transform="translate(168.847656 0.015625)"/>
      <use xlink:href="#DejaVuSans-20" transform="translate(232.324219 0.015625)"/>
      <use xlink:href="#DejaVuSans-66" transform="translate(264.111328 0.015625)"/>
      <use xlink:href="#DejaVuSans-72" transform="translate(299.316406 0.015625)"/>
      <use xlink:href="#DejaVuSans-61" transform="translate(340.429688 0.015625)"/>
      <use xlink:href="#DejaVuSans-63" transform="translate(401.708984 0.015625)"/>
      <use xlink:href="#DejaVuSans-74" transform="translate(456.689453 0.015625)"/>
      <use xlink:href="#DejaVuSans-69" transform="translate(495.898438 0.015625)"/>
      <use xlink:href="#DejaVuSans-6f" transform="translate(523.681641 0.015625)"/>
      <use xlink:href="#DejaVuSans-6e" transform="translate(584.863281 0.015625)"/>
      <use xlink:href="#DejaVuSans-20" transform="translate(648.242188 0.015625)"/>
      <use xlink:href="#DejaVuSans-Oblique-3d5" transform="translate(680.029297 0.015625)"/>
      <use xlink:href="#DejaVuSans-20" transform="translate(745.996094 0.015625)"/>
      <use xlink:href="#DejaVuSans-5b" transform="translate(777.783203 0.015625)"/>
      <use xlink:href="#DejaVuSans-2d" transform="translate(816.796875 0.015625)"/>
      <use xlink:href="#DejaVuSans-5d" transform="translate(852.880859 0.015625)"/>
     </g>
    </g>
   </g>
   <g id="line2d_17">
    <path d="M 106.898866 27.137258 
L 111.21555 27.637943 
L 115.526457 28.516376 
L 119.836837 29.27159 
L 124.144619 30.28182 
L 137.081566 32.568641 
L 154.325019 36.164384 
L 158.638696 36.811468 
L 167.258208 38.631431 
L 171.570876 39.415104 
L 180.186025 41.515811 
L 202.131054 46.301245 
L 206.436867 47.375898 
L 210.748102 48.319608 
L 215.05593 49.402029 
L 223.674288 51.306332 
L 236.598464 54.600989 
L 240.905737 55.846413 
L 245.256377 56.818856 
L 249.522976 58.07403 
L 253.830407 59.194385 
L 258.134896 60.460045 
L 262.444493 61.448319 
L 283.974331 67.883652 
L 288.274757 69.478696 
L 292.581596 70.790254 
L 296.882629 72.401302 
L 301.184278 73.873617 
L 309.786225 77.138892 
L 318.381277 81.044949 
L 322.676819 83.169678 
L 326.855772 85.002994 
L 330.875988 87.156147 
L 337.308204 91.039831 
L 333.808805 91.509249 
L 329.628257 91.8226 
L 323.817485 93.394233 
L 329.538237 98.158462 
L 342.405485 106.267207 
L 347.04024 108.245387 
L 350.979923 111.905029 
L 355.265204 114.931469 
L 359.541896 118.157973 
L 364.883347 121.762861 
L 360.634876 121.935549 
L 352.025931 121.935549 
L 343.763191 122.281206 
L 344.200272 125.933429 
L 344.15585 131.224255 
L 344.721731 136.061392 
L 348.504475 136.784183 
L 353.008331 137.508583 
L 361.65046 138.234599 
L 365.97542 138.416356 
L 374.609895 139.874067 
L 379.629665 140.971635 
L 383.236135 141.889094 
L 391.855779 144.471714 
L 396.164315 145.956653 
L 400.459856 148.571482 
L 404.757758 150.829319 
L 409.007872 153.863825 
L 411.963456 156.733951 
L 411.885817 163.527855 
L 411.954324 171.262249 
L 411.79139 181.027472 
L 417.250508 182.060718 
L 421.699 182.682142 
L 426.014162 183.72032 
L 430.496459 183.928327 
L 437.795952 185.17898 
L 442.107898 186.434124 
L 450.726587 189.591798 
L 455.025141 192.138518 
L 459.321684 194.91836 
L 467.080568 201.855241 
L 457.279807 202.293308 
L 461.788094 202.293308 
L 447.480808 202.731912 
L 447.261234 210.047245 
L 447.332133 227.007133 
L 460.939213 230.068992 
L 469.568241 232.441549 
L 473.959197 233.15627 
L 482.901849 236.269283 
L 487.206938 238.681623 
L 491.670892 240.136491 
L 500.095104 244.043787 
L 508.741211 248.985236 
L 513.039751 251.981161 
L 518.927142 255.25342 
L 522.561143 258.553767 
L 517.258169 259.064029 
L 508.652034 259.064029 
L 512.976827 259.064029 
L 503.274257 259.319412 
L 503.071297 267.58177 
L 502.590719 277.625663 
L 502.590719 277.625663 
" clip-path="url(#pf2c0ba27b5)" style="fill: none; stroke: #808080; stroke-width: 1.5; stroke-linecap: square"/>
    <defs>
     <path id="mf3fddb349a" d="M -3 0 
L 3 0 
M 0 3 
L 0 -3 
" style="stroke: #808080"/>
    </defs>
    <g clip-path="url(#pf2c0ba27b5)">
     <use xlink:href="#mf3fddb349a" x="106.898866" y="27.137258" style="fill: #808080; stroke: #808080"/>
     <use xlink:href="#mf3fddb349a" x="111.21555" y="27.637943" style="fill: #808080; stroke: #808080"/>
     <use xlink:href="#mf3fddb349a" x="115.526457" y="28.516376" style="fill: #808080; stroke: #808080"/>
     <use xlink:href="#mf3fddb349a" x="119.836837" y="29.27159" style="fill: #808080; stroke: #808080"/>
     <use xlink:href="#mf3fddb349a" x="124.144619" y="30.28182" style="fill: #808080; stroke: #808080"/>
     <use xlink:href="#mf3fddb349a" x="128.457879" y="31.041964" style="fill: #808080; stroke: #808080"/>
     <use xlink:href="#mf3fddb349a" x="132.770892" y="31.804234" style="fill: #808080; stroke: #808080"/>
     <use xlink:href="#mf3fddb349a" x="137.081566" y="32.568641" style="fill: #808080; stroke: #808080"/>
     <use xlink:href="#mf3fddb349a" x="141.394185" y="33.463161" style="fill: #808080; stroke: #808080"/>
     <use xlink:href="#mf3fddb349a" x="145.703468" y="34.360615" style="fill: #808080; stroke: #808080"/>
     <use xlink:href="#mf3fddb349a" x="150.013492" y="35.261018" style="fill: #808080; stroke: #808080"/>
     <use xlink:href="#mf3fddb349a" x="154.325019" y="36.164384" style="fill: #808080; stroke: #808080"/>
     <use xlink:href="#mf3fddb349a" x="158.638696" y="36.811468" style="fill: #808080; stroke: #808080"/>
     <use xlink:href="#mf3fddb349a" x="162.946704" y="37.719948" style="fill: #808080; stroke: #808080"/>
     <use xlink:href="#mf3fddb349a" x="167.258208" y="38.631431" style="fill: #808080; stroke: #808080"/>
     <use xlink:href="#mf3fddb349a" x="171.570876" y="39.415104" style="fill: #808080; stroke: #808080"/>
     <use xlink:href="#mf3fddb349a" x="175.879921" y="40.463467" style="fill: #808080; stroke: #808080"/>
     <use xlink:href="#mf3fddb349a" x="180.186025" y="41.515811" style="fill: #808080; stroke: #808080"/>
     <use xlink:href="#mf3fddb349a" x="184.499733" y="42.439896" style="fill: #808080; stroke: #808080"/>
     <use xlink:href="#mf3fddb349a" x="189.200309" y="43.499767" style="fill: #808080; stroke: #808080"/>
     <use xlink:href="#mf3fddb349a" x="193.510705" y="44.430474" style="fill: #808080; stroke: #808080"/>
     <use xlink:href="#mf3fddb349a" x="197.821666" y="45.2307" style="fill: #808080; stroke: #808080"/>
     <use xlink:href="#mf3fddb349a" x="202.131054" y="46.301245" style="fill: #808080; stroke: #808080"/>
     <use xlink:href="#mf3fddb349a" x="206.436867" y="47.375898" style="fill: #808080; stroke: #808080"/>
     <use xlink:href="#mf3fddb349a" x="210.748102" y="48.319608" style="fill: #808080; stroke: #808080"/>
     <use xlink:href="#mf3fddb349a" x="215.05593" y="49.402029" style="fill: #808080; stroke: #808080"/>
     <use xlink:href="#mf3fddb349a" x="219.366779" y="50.352573" style="fill: #808080; stroke: #808080"/>
     <use xlink:href="#mf3fddb349a" x="223.674288" y="51.306332" style="fill: #808080; stroke: #808080"/>
     <use xlink:href="#mf3fddb349a" x="227.984516" y="52.400298" style="fill: #808080; stroke: #808080"/>
     <use xlink:href="#mf3fddb349a" x="232.291302" y="53.498509" style="fill: #808080; stroke: #808080"/>
     <use xlink:href="#mf3fddb349a" x="236.598464" y="54.600989" style="fill: #808080; stroke: #808080"/>
     <use xlink:href="#mf3fddb349a" x="240.905737" y="55.846413" style="fill: #808080; stroke: #808080"/>
     <use xlink:href="#mf3fddb349a" x="245.256377" y="56.818856" style="fill: #808080; stroke: #808080"/>
     <use xlink:href="#mf3fddb349a" x="249.522976" y="58.07403" style="fill: #808080; stroke: #808080"/>
     <use xlink:href="#mf3fddb349a" x="253.830407" y="59.194385" style="fill: #808080; stroke: #808080"/>
     <use xlink:href="#mf3fddb349a" x="258.134896" y="60.460045" style="fill: #808080; stroke: #808080"/>
     <use xlink:href="#mf3fddb349a" x="262.444493" y="61.448319" style="fill: #808080; stroke: #808080"/>
     <use xlink:href="#mf3fddb349a" x="266.750276" y="62.723967" style="fill: #808080; stroke: #808080"/>
     <use xlink:href="#mf3fddb349a" x="271.05674" y="64.005287" style="fill: #808080; stroke: #808080"/>
     <use xlink:href="#mf3fddb349a" x="275.363295" y="65.292315" style="fill: #808080; stroke: #808080"/>
     <use xlink:href="#mf3fddb349a" x="279.667836" y="66.585091" style="fill: #808080; stroke: #808080"/>
     <use xlink:href="#mf3fddb349a" x="283.974331" y="67.883652" style="fill: #808080; stroke: #808080"/>
     <use xlink:href="#mf3fddb349a" x="288.274757" y="69.478696" style="fill: #808080; stroke: #808080"/>
     <use xlink:href="#mf3fddb349a" x="292.581596" y="70.790254" style="fill: #808080; stroke: #808080"/>
     <use xlink:href="#mf3fddb349a" x="296.882629" y="72.401302" style="fill: #808080; stroke: #808080"/>
     <use xlink:href="#mf3fddb349a" x="301.184278" y="73.873617" style="fill: #808080; stroke: #808080"/>
     <use xlink:href="#mf3fddb349a" x="305.487062" y="75.501731" style="fill: #808080; stroke: #808080"/>
     <use xlink:href="#mf3fddb349a" x="309.786225" y="77.138892" style="fill: #808080; stroke: #808080"/>
     <use xlink:href="#mf3fddb349a" x="314.084983" y="79.085486" style="fill: #808080; stroke: #808080"/>
     <use xlink:href="#mf3fddb349a" x="318.381277" y="81.044949" style="fill: #808080; stroke: #808080"/>
     <use xlink:href="#mf3fddb349a" x="322.676819" y="83.169678" style="fill: #808080; stroke: #808080"/>
     <use xlink:href="#mf3fddb349a" x="326.855772" y="85.002994" style="fill: #808080; stroke: #808080"/>
     <use xlink:href="#mf3fddb349a" x="330.875988" y="87.156147" style="fill: #808080; stroke: #808080"/>
     <use xlink:href="#mf3fddb349a" x="337.308204" y="91.039831" style="fill: #808080; stroke: #808080"/>
     <use xlink:href="#mf3fddb349a" x="333.808805" y="91.509249" style="fill: #808080; stroke: #808080"/>
     <use xlink:href="#mf3fddb349a" x="329.628257" y="91.8226" style="fill: #808080; stroke: #808080"/>
     <use xlink:href="#mf3fddb349a" x="323.817485" y="93.394233" style="fill: #808080; stroke: #808080"/>
     <use xlink:href="#mf3fddb349a" x="329.538237" y="98.158462" style="fill: #808080; stroke: #808080"/>
     <use xlink:href="#mf3fddb349a" x="333.827102" y="100.891531" style="fill: #808080; stroke: #808080"/>
     <use xlink:href="#mf3fddb349a" x="337.959533" y="103.486228" style="fill: #808080; stroke: #808080"/>
     <use xlink:href="#mf3fddb349a" x="342.405485" y="106.267207" style="fill: #808080; stroke: #808080"/>
     <use xlink:href="#mf3fddb349a" x="347.04024" y="108.245387" style="fill: #808080; stroke: #808080"/>
     <use xlink:href="#mf3fddb349a" x="350.979923" y="111.905029" style="fill: #808080; stroke: #808080"/>
     <use xlink:href="#mf3fddb349a" x="355.265204" y="114.931469" style="fill: #808080; stroke: #808080"/>
     <use xlink:href="#mf3fddb349a" x="359.541896" y="118.157973" style="fill: #808080; stroke: #808080"/>
     <use xlink:href="#mf3fddb349a" x="364.883347" y="121.762861" style="fill: #808080; stroke: #808080"/>
     <use xlink:href="#mf3fddb349a" x="360.634876" y="121.935549" style="fill: #808080; stroke: #808080"/>
     <use xlink:href="#mf3fddb349a" x="356.352244" y="121.935549" style="fill: #808080; stroke: #808080"/>
     <use xlink:href="#mf3fddb349a" x="352.025931" y="121.935549" style="fill: #808080; stroke: #808080"/>
     <use xlink:href="#mf3fddb349a" x="343.763191" y="122.281206" style="fill: #808080; stroke: #808080"/>
     <use xlink:href="#mf3fddb349a" x="344.200272" y="125.933429" style="fill: #808080; stroke: #808080"/>
     <use xlink:href="#mf3fddb349a" x="344.15585" y="131.224255" style="fill: #808080; stroke: #808080"/>
     <use xlink:href="#mf3fddb349a" x="344.721731" y="136.061392" style="fill: #808080; stroke: #808080"/>
     <use xlink:href="#mf3fddb349a" x="348.504475" y="136.784183" style="fill: #808080; stroke: #808080"/>
     <use xlink:href="#mf3fddb349a" x="353.008331" y="137.508583" style="fill: #808080; stroke: #808080"/>
     <use xlink:href="#mf3fddb349a" x="357.329996" y="137.871389" style="fill: #808080; stroke: #808080"/>
     <use xlink:href="#mf3fddb349a" x="361.65046" y="138.234599" style="fill: #808080; stroke: #808080"/>
     <use xlink:href="#mf3fddb349a" x="365.97542" y="138.416356" style="fill: #808080; stroke: #808080"/>
     <use xlink:href="#mf3fddb349a" x="370.291111" y="139.144398" style="fill: #808080; stroke: #808080"/>
     <use xlink:href="#mf3fddb349a" x="374.609895" y="139.874067" style="fill: #808080; stroke: #808080"/>
     <use xlink:href="#mf3fddb349a" x="379.629665" y="140.971635" style="fill: #808080; stroke: #808080"/>
     <use xlink:href="#mf3fddb349a" x="383.236135" y="141.889094" style="fill: #808080; stroke: #808080"/>
     <use xlink:href="#mf3fddb349a" x="387.546825" y="143.177866" style="fill: #808080; stroke: #808080"/>
     <use xlink:href="#mf3fddb349a" x="391.855779" y="144.471714" style="fill: #808080; stroke: #808080"/>
     <use xlink:href="#mf3fddb349a" x="396.164315" y="145.956653" style="fill: #808080; stroke: #808080"/>
     <use xlink:href="#mf3fddb349a" x="400.459856" y="148.571482" style="fill: #808080; stroke: #808080"/>
     <use xlink:href="#mf3fddb349a" x="404.757758" y="150.829319" style="fill: #808080; stroke: #808080"/>
     <use xlink:href="#mf3fddb349a" x="409.007872" y="153.863825" style="fill: #808080; stroke: #808080"/>
     <use xlink:href="#mf3fddb349a" x="411.963456" y="156.733951" style="fill: #808080; stroke: #808080"/>
     <use xlink:href="#mf3fddb349a" x="411.885817" y="163.527855" style="fill: #808080; stroke: #808080"/>
     <use xlink:href="#mf3fddb349a" x="411.954324" y="171.262249" style="fill: #808080; stroke: #808080"/>
     <use xlink:href="#mf3fddb349a" x="411.79139" y="181.027472" style="fill: #808080; stroke: #808080"/>
     <use xlink:href="#mf3fddb349a" x="417.250508" y="182.060718" style="fill: #808080; stroke: #808080"/>
     <use xlink:href="#mf3fddb349a" x="421.699" y="182.682142" style="fill: #808080; stroke: #808080"/>
     <use xlink:href="#mf3fddb349a" x="426.014162" y="183.72032" style="fill: #808080; stroke: #808080"/>
     <use xlink:href="#mf3fddb349a" x="430.496459" y="183.928327" style="fill: #808080; stroke: #808080"/>
     <use xlink:href="#mf3fddb349a" x="437.795952" y="185.17898" style="fill: #808080; stroke: #808080"/>
     <use xlink:href="#mf3fddb349a" x="442.107898" y="186.434124" style="fill: #808080; stroke: #808080"/>
     <use xlink:href="#mf3fddb349a" x="446.536187" y="188.11468" style="fill: #808080; stroke: #808080"/>
     <use xlink:href="#mf3fddb349a" x="450.726587" y="189.591798" style="fill: #808080; stroke: #808080"/>
     <use xlink:href="#mf3fddb349a" x="455.025141" y="192.138518" style="fill: #808080; stroke: #808080"/>
     <use xlink:href="#mf3fddb349a" x="459.321684" y="194.91836" style="fill: #808080; stroke: #808080"/>
     <use xlink:href="#mf3fddb349a" x="467.080568" y="201.855241" style="fill: #808080; stroke: #808080"/>
     <use xlink:href="#mf3fddb349a" x="457.279807" y="202.293308" style="fill: #808080; stroke: #808080"/>
     <use xlink:href="#mf3fddb349a" x="461.788094" y="202.293308" style="fill: #808080; stroke: #808080"/>
     <use xlink:href="#mf3fddb349a" x="452.951527" y="202.512543" style="fill: #808080; stroke: #808080"/>
     <use xlink:href="#mf3fddb349a" x="447.480808" y="202.731912" style="fill: #808080; stroke: #808080"/>
     <use xlink:href="#mf3fddb349a" x="447.261234" y="210.047245" style="fill: #808080; stroke: #808080"/>
     <use xlink:href="#mf3fddb349a" x="447.36251" y="220.036607" style="fill: #808080; stroke: #808080"/>
     <use xlink:href="#mf3fddb349a" x="447.332133" y="227.007133" style="fill: #808080; stroke: #808080"/>
     <use xlink:href="#mf3fddb349a" x="452.522028" y="228.181783" style="fill: #808080; stroke: #808080"/>
     <use xlink:href="#mf3fddb349a" x="456.621863" y="229.124189" style="fill: #808080; stroke: #808080"/>
     <use xlink:href="#mf3fddb349a" x="460.939213" y="230.068992" style="fill: #808080; stroke: #808080"/>
     <use xlink:href="#mf3fddb349a" x="465.253812" y="231.253381" style="fill: #808080; stroke: #808080"/>
     <use xlink:href="#mf3fddb349a" x="469.568241" y="232.441549" style="fill: #808080; stroke: #808080"/>
     <use xlink:href="#mf3fddb349a" x="473.959197" y="233.15627" style="fill: #808080; stroke: #808080"/>
     <use xlink:href="#mf3fddb349a" x="477.957013" y="234.589828" style="fill: #808080; stroke: #808080"/>
     <use xlink:href="#mf3fddb349a" x="482.901849" y="236.269283" style="fill: #808080; stroke: #808080"/>
     <use xlink:href="#mf3fddb349a" x="487.206938" y="238.681623" style="fill: #808080; stroke: #808080"/>
     <use xlink:href="#mf3fddb349a" x="491.670892" y="240.136491" style="fill: #808080; stroke: #808080"/>
     <use xlink:href="#mf3fddb349a" x="495.8275" y="242.085089" style="fill: #808080; stroke: #808080"/>
     <use xlink:href="#mf3fddb349a" x="500.095104" y="244.043787" style="fill: #808080; stroke: #808080"/>
     <use xlink:href="#mf3fddb349a" x="504.438185" y="246.506482" style="fill: #808080; stroke: #808080"/>
     <use xlink:href="#mf3fddb349a" x="508.741211" y="248.985236" style="fill: #808080; stroke: #808080"/>
     <use xlink:href="#mf3fddb349a" x="513.039751" y="251.981161" style="fill: #808080; stroke: #808080"/>
     <use xlink:href="#mf3fddb349a" x="518.927142" y="255.25342" style="fill: #808080; stroke: #808080"/>
     <use xlink:href="#mf3fddb349a" x="522.561143" y="258.553767" style="fill: #808080; stroke: #808080"/>
     <use xlink:href="#mf3fddb349a" x="517.258169" y="259.064029" style="fill: #808080; stroke: #808080"/>
     <use xlink:href="#mf3fddb349a" x="508.652034" y="259.064029" style="fill: #808080; stroke: #808080"/>
     <use xlink:href="#mf3fddb349a" x="512.976827" y="259.064029" style="fill: #808080; stroke: #808080"/>
     <use xlink:href="#mf3fddb349a" x="503.274257" y="259.319412" style="fill: #808080; stroke: #808080"/>
     <use xlink:href="#mf3fddb349a" x="503.071297" y="267.58177" style="fill: #808080; stroke: #808080"/>
     <use xlink:href="#mf3fddb349a" x="502.590719" y="277.625663" style="fill: #808080; stroke: #808080"/>
    </g>
   </g>
   <g id="line2d_18">
    <path d="M 105.30648 28.976198 
L 121.912026 30.878 
L 140.175711 33.280399 
L 151.079781 34.924885 
L 161.258818 36.627851 
L 170.55385 38.335496 
L 184.153064 41.102817 
L 197.446819 44.10874 
L 205.262799 46.008202 
L 217.608784 49.208282 
L 229.167486 52.424737 
L 247.725244 58.057626 
L 263.884533 63.45893 
L 271.034854 66.004023 
L 283.149825 70.544487 
L 292.611466 74.294288 
L 301.830705 78.128302 
L 320.012278 86.233768 
L 332.195025 92.081867 
L 324.774148 92.505269 
L 319.57925 92.991831 
L 315.988277 93.536874 
L 313.832784 94.084256 
L 312.705179 94.570818 
L 312.09954 95.05738 
L 311.893004 95.483121 
L 311.919757 95.911202 
L 312.177429 96.397764 
L 312.765744 97.008306 
L 313.960956 97.864467 
L 315.935875 98.966249 
L 319.605982 100.683251 
L 324.40825 102.71605 
L 344.258213 110.905729 
L 356.221376 116.239195 
L 365.995092 120.917674 
L 370.430702 123.142291 
L 349.768703 122.634676 
L 345.886315 122.506018 
L 345.885584 122.59257 
L 345.886377 138.562559 
L 356.987719 140.260847 
L 365.378655 141.767317 
L 372.524227 143.276127 
L 379.795574 145.119448 
L 384.832903 146.637614 
L 389.409799 148.223619 
L 393.791428 149.947639 
L 398.178374 151.875172 
L 402.473741 153.940721 
L 408.494731 157.086998 
L 408.495063 182.783546 
L 416.384296 184.037378 
L 424.685495 185.574259 
L 431.030943 186.975463 
L 436.370001 188.376668 
L 440.866163 189.782551 
L 444.86228 191.26095 
L 449.185985 193.167431 
L 452.48527 194.865719 
L 457.050897 197.565201 
L 460.738976 199.986314 
L 466.430264 203.995771 
L 448.77102 203.995771 
L 448.771019 227.093424 
L 459.377773 228.798729 
L 467.590739 230.361341 
L 474.192755 231.851437 
L 478.712081 233.044449 
L 483.551479 234.539224 
L 487.655506 236.038676 
L 491.349772 237.612984 
L 494.857285 239.344022 
L 498.343549 241.304305 
L 501.951143 243.573367 
L 505.711803 246.151209 
L 513.119157 251.643744 
L 518.263165 255.634487 
L 522.357174 258.871995 
L 504.501081 258.48602 
L 504.500895 258.642749 
L 504.501125 286.180278 
L 504.501125 286.180278 
" clip-path="url(#pf2c0ba27b5)" style="fill: none; stroke: #000000; stroke-width: 2; stroke-linecap: square"/>
   </g>
   <g id="patch_3">
    <path d="M 81.29 300.328 
L 81.29 17.28 
" style="fill: none; stroke: #000000; stroke-width: 0.8; stroke-linejoin: miter; stroke-linecap: square"/>
   </g>
   <g id="patch_4">
    <path d="M 543.33 300.328 
L 543.33 17.28 
" style="fill: none; stroke: #000000; stroke-width: 0.8; stroke-linejoin: miter; stroke-linecap: square"/>
   </g>
   <g id="patch_5">
    <path d="M 81.29 300.328 
L 543.33 300.328 
" style="fill: none; stroke: #000000; stroke-width: 0.8; stroke-linejoin: miter; stroke-linecap: square"/>
   </g>
   <g id="patch_6">
    <path d="M 81.29 17.28 
L 543.33 17.28 
" style="fill: none; stroke: #000000; stroke-width: 0.8; stroke-linejoin: miter; stroke-linecap: square"/>
   </g>
   <g id="text_12">
    <!-- $\dot\epsilon_1=2.6\cdot10^{-6} ~\frac{1}{s}$ -->
    <g transform="translate(234.508783 47.690116) scale(0.16 -0.16)">
     <defs>
      <path id="DejaVuSans-307" d="M -1894 4863 
L -1319 4863 
L -1319 4134 
L -1894 4134 
L -1894 4863 
z
M -1600 3584 
L -1600 3584 
z
" transform="scale(0.015625)"/>
      <path id="DejaVuSans-Oblique-3b5" d="M 1263 1888 
Q 925 1963 778 2166 
Q 669 2309 669 2503 
Q 669 3034 1175 3344 
Q 1575 3588 2188 3588 
Q 2425 3588 2684 3550 
Q 2944 3513 3234 3438 
L 3134 2916 
Q 2847 3006 2606 3047 
Q 2359 3088 2138 3088 
Q 1766 3088 1522 2944 
Q 1228 2772 1228 2522 
Q 1228 2356 1381 2241 
Q 1563 2103 1925 2103 
L 2409 2103 
L 2319 1628 
L 1856 1628 
Q 1425 1628 1172 1469 
Q 828 1253 828 916 
Q 828 703 1013 563 
Q 1244 388 1716 388 
Q 2006 388 2284 444 
Q 2563 503 2806 619 
L 2700 84 
Q 2403 -3 2131 -47 
Q 1859 -91 1609 -91 
Q 866 -91 516 194 
Q 250 413 250 781 
Q 250 1278 600 1584 
Q 859 1813 1263 1888 
z
" transform="scale(0.015625)"/>
      <path id="DejaVuSans-3d" d="M 678 2906 
L 4684 2906 
L 4684 2381 
L 678 2381 
L 678 2906 
z
M 678 1631 
L 4684 1631 
L 4684 1100 
L 678 1100 
L 678 1631 
z
" transform="scale(0.015625)"/>
      <path id="DejaVuSans-22c5" d="M 684 2619 
L 1344 2619 
L 1344 1825 
L 684 1825 
L 684 2619 
z
" transform="scale(0.015625)"/>
      <path id="DejaVuSans-2212" d="M 678 2272 
L 4684 2272 
L 4684 1741 
L 678 1741 
L 678 2272 
z
" transform="scale(0.015625)"/>
      <path id="DejaVuSans-Oblique-73" d="M 3200 3397 
L 3091 2853 
Q 2863 2978 2609 3040 
Q 2356 3103 2088 3103 
Q 1634 3103 1373 2948 
Q 1113 2794 1113 2528 
Q 1113 2219 1719 2053 
Q 1766 2041 1788 2034 
L 1972 1978 
Q 2547 1819 2739 1644 
Q 2931 1469 2931 1166 
Q 2931 609 2489 259 
Q 2047 -91 1331 -91 
Q 1053 -91 747 -37 
Q 441 16 72 128 
L 184 722 
Q 500 559 806 475 
Q 1113 391 1394 391 
Q 1816 391 2080 572 
Q 2344 753 2344 1031 
Q 2344 1331 1650 1516 
L 1591 1531 
L 1394 1581 
Q 956 1697 753 1886 
Q 550 2075 550 2369 
Q 550 2928 970 3256 
Q 1391 3584 2113 3584 
Q 2397 3584 2667 3537 
Q 2938 3491 3200 3397 
z
" transform="scale(0.015625)"/>
     </defs>
     <use xlink:href="#DejaVuSans-307" transform="translate(54.25 12.73125)"/>
     <use xlink:href="#DejaVuSans-Oblique-3b5" transform="translate(0 0.16875)"/>
     <use xlink:href="#DejaVuSans-31" transform="translate(55.009766 -16.2375) scale(0.7)"/>
     <use xlink:href="#DejaVuSans-3d" transform="translate(121.762695 0.16875)"/>
     <use xlink:href="#DejaVuSans-32" transform="translate(225.03418 0.16875)"/>
     <use xlink:href="#DejaVuSans-2e" transform="translate(288.657227 0.16875)"/>
     <use xlink:href="#DejaVuSans-36" transform="translate(320.444336 0.16875)"/>
     <use xlink:href="#DejaVuSans-22c5" transform="translate(403.549805 0.16875)"/>
     <use xlink:href="#DejaVuSans-31" transform="translate(454.819336 0.16875)"/>
     <use xlink:href="#DejaVuSans-30" transform="translate(518.442383 0.16875)"/>
     <use xlink:href="#DejaVuSans-2212" transform="translate(583.022461 38.45) scale(0.7)"/>
     <use xlink:href="#DejaVuSans-36" transform="translate(641.674805 38.45) scale(0.7)"/>
     <use xlink:href="#DejaVuSans-31" transform="translate(721.415691 43.965625) scale(0.7)"/>
     <use xlink:href="#DejaVuSans-Oblique-73" transform="translate(725.415691 -26.484375) scale(0.7)"/>
     <path d="M 721.415691 18.965625 
L 721.415691 25.215625 
L 765.951824 25.215625 
L 765.951824 18.965625 
L 721.415691 18.965625 
z
"/>
    </g>
   </g>
   <g id="text_13">
    <!-- $\dot\epsilon_1=4.3\cdot10^{-7} ~\frac{1}{s}$ -->
    <g transform="translate(357.668612 106.171107) scale(0.16 -0.16)">
     <defs>
      <path id="DejaVuSans-37" d="M 525 4666 
L 3525 4666 
L 3525 4397 
L 1831 0 
L 1172 0 
L 2766 4134 
L 525 4134 
L 525 4666 
z
" transform="scale(0.015625)"/>
     </defs>
     <use xlink:href="#DejaVuSans-307" transform="translate(54.25 12.73125)"/>
     <use xlink:href="#DejaVuSans-Oblique-3b5" transform="translate(0 0.16875)"/>
     <use xlink:href="#DejaVuSans-31" transform="translate(55.009766 -16.2375) scale(0.7)"/>
     <use xlink:href="#DejaVuSans-3d" transform="translate(121.762695 0.16875)"/>
     <use xlink:href="#DejaVuSans-34" transform="translate(225.03418 0.16875)"/>
     <use xlink:href="#DejaVuSans-2e" transform="translate(288.657227 0.16875)"/>
     <use xlink:href="#DejaVuSans-33" transform="translate(320.444336 0.16875)"/>
     <use xlink:href="#DejaVuSans-22c5" transform="translate(403.549805 0.16875)"/>
     <use xlink:href="#DejaVuSans-31" transform="translate(454.819336 0.16875)"/>
     <use xlink:href="#DejaVuSans-30" transform="translate(518.442383 0.16875)"/>
     <use xlink:href="#DejaVuSans-2212" transform="translate(583.022461 38.45) scale(0.7)"/>
     <use xlink:href="#DejaVuSans-37" transform="translate(641.674805 38.45) scale(0.7)"/>
     <use xlink:href="#DejaVuSans-31" transform="translate(721.415691 43.965625) scale(0.7)"/>
     <use xlink:href="#DejaVuSans-Oblique-73" transform="translate(725.415691 -26.484375) scale(0.7)"/>
     <path d="M 721.415691 18.965625 
L 721.415691 25.215625 
L 765.951824 25.215625 
L 765.951824 18.965625 
L 721.415691 18.965625 
z
"/>
    </g>
   </g>
   <g id="patch_7">
    <path d="M 291.859418 123.115074 
Q 315.883159 126.211572 338.79804 129.165145 
" style="fill: none; stroke: #000000; stroke-linecap: round"/>
    <path d="M 332.859624 125.173252 
L 338.79804 129.165145 
L 332.041476 131.520742 
z
" style="fill: #1f77b4; stroke: #000000; stroke-linecap: round"/>
   </g>
   <g id="text_14">
    <g id="patch_8">
     <path d="M 191.691684 137.691004 
L 284.576684 137.691004 
Q 289.376684 137.691004 289.376684 132.891004 
L 289.376684 99.489504 
Q 289.376684 94.689504 284.576684 94.689504 
L 191.691684 94.689504 
Q 186.891684 94.689504 186.891684 99.489504 
L 186.891684 132.891004 
Q 186.891684 137.691004 191.691684 137.691004 
z
" style="fill: #e6e6e6; stroke: #000000; stroke-linejoin: miter"/>
    </g>
    <!-- creep after  -->
    <g transform="translate(191.691684 111.647004) scale(0.16 -0.16)">
     <defs>
      <path id="DejaVuSans-70" d="M 1159 525 
L 1159 -1331 
L 581 -1331 
L 581 3500 
L 1159 3500 
L 1159 2969 
Q 1341 3281 1617 3432 
Q 1894 3584 2278 3584 
Q 2916 3584 3314 3078 
Q 3713 2572 3713 1747 
Q 3713 922 3314 415 
Q 2916 -91 2278 -91 
Q 1894 -91 1617 61 
Q 1341 213 1159 525 
z
M 3116 1747 
Q 3116 2381 2855 2742 
Q 2594 3103 2138 3103 
Q 1681 3103 1420 2742 
Q 1159 2381 1159 1747 
Q 1159 1113 1420 752 
Q 1681 391 2138 391 
Q 2594 391 2855 752 
Q 3116 1113 3116 1747 
z
" transform="scale(0.015625)"/>
     </defs>
     <use xlink:href="#DejaVuSans-63"/>
     <use xlink:href="#DejaVuSans-72" x="54.980469"/>
     <use xlink:href="#DejaVuSans-65" x="93.84375"/>
     <use xlink:href="#DejaVuSans-65" x="155.367188"/>
     <use xlink:href="#DejaVuSans-70" x="216.890625"/>
     <use xlink:href="#DejaVuSans-20" x="280.367188"/>
     <use xlink:href="#DejaVuSans-61" x="312.154297"/>
     <use xlink:href="#DejaVuSans-66" x="373.433594"/>
     <use xlink:href="#DejaVuSans-74" x="406.888672"/>
     <use xlink:href="#DejaVuSans-65" x="446.097656"/>
     <use xlink:href="#DejaVuSans-72" x="507.621094"/>
     <use xlink:href="#DejaVuSans-20" x="548.734375"/>
    </g>
    <!--  unloading -->
    <g transform="translate(191.691684 129.563504) scale(0.16 -0.16)">
     <defs>
      <path id="DejaVuSans-75" d="M 544 1381 
L 544 3500 
L 1119 3500 
L 1119 1403 
Q 1119 906 1312 657 
Q 1506 409 1894 409 
Q 2359 409 2629 706 
Q 2900 1003 2900 1516 
L 2900 3500 
L 3475 3500 
L 3475 0 
L 2900 0 
L 2900 538 
Q 2691 219 2414 64 
Q 2138 -91 1772 -91 
Q 1169 -91 856 284 
Q 544 659 544 1381 
z
M 1991 3584 
L 1991 3584 
z
" transform="scale(0.015625)"/>
      <path id="DejaVuSans-67" d="M 2906 1791 
Q 2906 2416 2648 2759 
Q 2391 3103 1925 3103 
Q 1463 3103 1205 2759 
Q 947 2416 947 1791 
Q 947 1169 1205 825 
Q 1463 481 1925 481 
Q 2391 481 2648 825 
Q 2906 1169 2906 1791 
z
M 3481 434 
Q 3481 -459 3084 -895 
Q 2688 -1331 1869 -1331 
Q 1566 -1331 1297 -1286 
Q 1028 -1241 775 -1147 
L 775 -588 
Q 1028 -725 1275 -790 
Q 1522 -856 1778 -856 
Q 2344 -856 2625 -561 
Q 2906 -266 2906 331 
L 2906 616 
Q 2728 306 2450 153 
Q 2172 0 1784 0 
Q 1141 0 747 490 
Q 353 981 353 1791 
Q 353 2603 747 3093 
Q 1141 3584 1784 3584 
Q 2172 3584 2450 3431 
Q 2728 3278 2906 2969 
L 2906 3500 
L 3481 3500 
L 3481 434 
z
" transform="scale(0.015625)"/>
     </defs>
     <use xlink:href="#DejaVuSans-20"/>
     <use xlink:href="#DejaVuSans-75" x="31.787109"/>
     <use xlink:href="#DejaVuSans-6e" x="95.166016"/>
     <use xlink:href="#DejaVuSans-6c" x="158.544922"/>
     <use xlink:href="#DejaVuSans-6f" x="186.328125"/>
     <use xlink:href="#DejaVuSans-61" x="247.509766"/>
     <use xlink:href="#DejaVuSans-64" x="308.789062"/>
     <use xlink:href="#DejaVuSans-69" x="372.265625"/>
     <use xlink:href="#DejaVuSans-6e" x="400.048828"/>
     <use xlink:href="#DejaVuSans-67" x="463.427734"/>
    </g>
   </g>
   <g id="patch_9">
    <path d="M 364.467202 169.191835 
Q 382.485359 170.365943 399.387848 171.467351 
" style="fill: none; stroke: #000000; stroke-linecap: round"/>
    <path d="M 393.209471 167.857966 
L 399.387848 171.467351 
L 392.793314 174.244421 
z
" style="fill: #1f77b4; stroke: #000000; stroke-linecap: round"/>
   </g>
   <g id="text_15">
    <g id="patch_10">
     <path d="M 312.31 179.797318 
L 357.1725 179.797318 
Q 361.9725 179.797318 361.9725 174.997318 
L 361.9725 159.512318 
Q 361.9725 154.712318 357.1725 154.712318 
L 312.31 154.712318 
Q 307.51 154.712318 307.51 159.512318 
L 307.51 174.997318 
Q 307.51 179.797318 312.31 179.797318 
z
" style="fill: #e6e6e6; stroke: #000000; stroke-linejoin: miter"/>
    </g>
    <!-- creep -->
    <g transform="translate(312.31 171.669818) scale(0.16 -0.16)">
     <use xlink:href="#DejaVuSans-63"/>
     <use xlink:href="#DejaVuSans-72" x="54.980469"/>
     <use xlink:href="#DejaVuSans-65" x="93.84375"/>
     <use xlink:href="#DejaVuSans-65" x="155.367188"/>
     <use xlink:href="#DejaVuSans-70" x="216.890625"/>
    </g>
   </g>
   <g id="patch_11">
    <path d="M 399.253101 216.420986 
Q 421.283193 216.27481 442.195275 216.136053 
" style="fill: none; stroke: #000000; stroke-linecap: round"/>
    <path d="M 435.774183 212.978588 
L 442.195275 216.136053 
L 435.816648 219.378447 
z
" style="fill: #1f77b4; stroke: #000000; stroke-linecap: round"/>
   </g>
   <g id="text_16">
    <g id="patch_12">
     <path d="M 299.07155 238.27831 
L 391.95655 238.27831 
Q 396.75655 238.27831 396.75655 233.47831 
L 396.75655 200.07681 
Q 396.75655 195.27681 391.95655 195.27681 
L 299.07155 195.27681 
Q 294.27155 195.27681 294.27155 200.07681 
L 294.27155 233.47831 
Q 294.27155 238.27831 299.07155 238.27831 
z
" style="fill: #e6e6e6; stroke: #000000; stroke-linejoin: miter"/>
    </g>
    <!-- creep after  -->
    <g transform="translate(299.07155 212.23431) scale(0.16 -0.16)">
     <use xlink:href="#DejaVuSans-63"/>
     <use xlink:href="#DejaVuSans-72" x="54.980469"/>
     <use xlink:href="#DejaVuSans-65" x="93.84375"/>
     <use xlink:href="#DejaVuSans-65" x="155.367188"/>
     <use xlink:href="#DejaVuSans-70" x="216.890625"/>
     <use xlink:href="#DejaVuSans-20" x="280.367188"/>
     <use xlink:href="#DejaVuSans-61" x="312.154297"/>
     <use xlink:href="#DejaVuSans-66" x="373.433594"/>
     <use xlink:href="#DejaVuSans-74" x="406.888672"/>
     <use xlink:href="#DejaVuSans-65" x="446.097656"/>
     <use xlink:href="#DejaVuSans-72" x="507.621094"/>
     <use xlink:href="#DejaVuSans-20" x="548.734375"/>
    </g>
    <!--  relaxation -->
    <g transform="translate(299.07155 230.15081) scale(0.16 -0.16)">
     <use xlink:href="#DejaVuSans-20"/>
     <use xlink:href="#DejaVuSans-72" x="31.787109"/>
     <use xlink:href="#DejaVuSans-65" x="70.650391"/>
     <use xlink:href="#DejaVuSans-6c" x="132.173828"/>
     <use xlink:href="#DejaVuSans-61" x="159.957031"/>
     <use xlink:href="#DejaVuSans-78" x="221.236328"/>
     <use xlink:href="#DejaVuSans-61" x="280.416016"/>
     <use xlink:href="#DejaVuSans-74" x="341.695312"/>
     <use xlink:href="#DejaVuSans-69" x="380.904297"/>
     <use xlink:href="#DejaVuSans-6f" x="408.6875"/>
     <use xlink:href="#DejaVuSans-6e" x="469.869141"/>
    </g>
   </g>
   <g id="patch_13">
    <path d="M 436.510535 269.006285 
Q 467.513634 269.447869 497.398812 269.87353 
" style="fill: none; stroke: #000000; stroke-linecap: round"/>
    <path d="M 491.045035 266.582707 
L 497.398812 269.87353 
L 490.953888 272.982058 
z
" style="fill: #1f77b4; stroke: #000000; stroke-linecap: round"/>
   </g>
   <g id="text_17">
    <g id="patch_14">
     <path d="M 336.32648 289.741583 
L 429.21148 289.741583 
Q 434.01148 289.741583 434.01148 284.941583 
L 434.01148 251.540083 
Q 434.01148 246.740083 429.21148 246.740083 
L 336.32648 246.740083 
Q 331.52648 246.740083 331.52648 251.540083 
L 331.52648 284.941583 
Q 331.52648 289.741583 336.32648 289.741583 
z
" style="fill: #e6e6e6; stroke: #000000; stroke-linejoin: miter"/>
    </g>
    <!-- creep after  -->
    <g transform="translate(336.32648 263.697583) scale(0.16 -0.16)">
     <use xlink:href="#DejaVuSans-63"/>
     <use xlink:href="#DejaVuSans-72" x="54.980469"/>
     <use xlink:href="#DejaVuSans-65" x="93.84375"/>
     <use xlink:href="#DejaVuSans-65" x="155.367188"/>
     <use xlink:href="#DejaVuSans-70" x="216.890625"/>
     <use xlink:href="#DejaVuSans-20" x="280.367188"/>
     <use xlink:href="#DejaVuSans-61" x="312.154297"/>
     <use xlink:href="#DejaVuSans-66" x="373.433594"/>
     <use xlink:href="#DejaVuSans-74" x="406.888672"/>
     <use xlink:href="#DejaVuSans-65" x="446.097656"/>
     <use xlink:href="#DejaVuSans-72" x="507.621094"/>
     <use xlink:href="#DejaVuSans-20" x="548.734375"/>
    </g>
    <!--  unloading -->
    <g transform="translate(336.32648 281.614083) scale(0.16 -0.16)">
     <use xlink:href="#DejaVuSans-20"/>
     <use xlink:href="#DejaVuSans-75" x="31.787109"/>
     <use xlink:href="#DejaVuSans-6e" x="95.166016"/>
     <use xlink:href="#DejaVuSans-6c" x="158.544922"/>
     <use xlink:href="#DejaVuSans-6f" x="186.328125"/>
     <use xlink:href="#DejaVuSans-61" x="247.509766"/>
     <use xlink:href="#DejaVuSans-64" x="308.789062"/>
     <use xlink:href="#DejaVuSans-69" x="372.265625"/>
     <use xlink:href="#DejaVuSans-6e" x="400.048828"/>
     <use xlink:href="#DejaVuSans-67" x="463.427734"/>
    </g>
   </g>
   <g id="legend_1">
    <g id="patch_15">
     <path d="M 92.49 292.328 
L 236.1375 292.328 
Q 239.3375 292.328 239.3375 289.128 
L 239.3375 243.758 
Q 239.3375 240.558 236.1375 240.558 
L 92.49 240.558 
Q 89.29 240.558 89.29 243.758 
L 89.29 289.128 
Q 89.29 292.328 92.49 292.328 
z
" style="fill: #ffffff; opacity: 0.8; stroke: #cccccc; stroke-linejoin: miter"/>
    </g>
    <g id="line2d_19">
     <path d="M 95.69 253.5155 
L 111.69 253.5155 
L 127.69 253.5155 
" style="fill: none; stroke: #808080; stroke-width: 1.5; stroke-linecap: square"/>
     <g>
      <use xlink:href="#mf3fddb349a" x="111.69" y="253.5155" style="fill: #808080; stroke: #808080"/>
     </g>
    </g>
    <g id="text_18">
     <!-- Experiment -->
     <g transform="translate(140.49 259.1155) scale(0.16 -0.16)">
      <defs>
       <path id="DejaVuSans-45" d="M 628 4666 
L 3578 4666 
L 3578 4134 
L 1259 4134 
L 1259 2753 
L 3481 2753 
L 3481 2222 
L 1259 2222 
L 1259 531 
L 3634 531 
L 3634 0 
L 628 0 
L 628 4666 
z
" transform="scale(0.015625)"/>
       <path id="DejaVuSans-6d" d="M 3328 2828 
Q 3544 3216 3844 3400 
Q 4144 3584 4550 3584 
Q 5097 3584 5394 3201 
Q 5691 2819 5691 2113 
L 5691 0 
L 5113 0 
L 5113 2094 
Q 5113 2597 4934 2840 
Q 4756 3084 4391 3084 
Q 3944 3084 3684 2787 
Q 3425 2491 3425 1978 
L 3425 0 
L 2847 0 
L 2847 2094 
Q 2847 2600 2669 2842 
Q 2491 3084 2119 3084 
Q 1678 3084 1418 2786 
Q 1159 2488 1159 1978 
L 1159 0 
L 581 0 
L 581 3500 
L 1159 3500 
L 1159 2956 
Q 1356 3278 1631 3431 
Q 1906 3584 2284 3584 
Q 2666 3584 2933 3390 
Q 3200 3197 3328 2828 
z
" transform="scale(0.015625)"/>
      </defs>
      <use xlink:href="#DejaVuSans-45"/>
      <use xlink:href="#DejaVuSans-78" x="63.183594"/>
      <use xlink:href="#DejaVuSans-70" x="122.363281"/>
      <use xlink:href="#DejaVuSans-65" x="185.839844"/>
      <use xlink:href="#DejaVuSans-72" x="247.363281"/>
      <use xlink:href="#DejaVuSans-69" x="288.476562"/>
      <use xlink:href="#DejaVuSans-6d" x="316.259766"/>
      <use xlink:href="#DejaVuSans-65" x="413.671875"/>
      <use xlink:href="#DejaVuSans-6e" x="475.195312"/>
      <use xlink:href="#DejaVuSans-74" x="538.574219"/>
     </g>
    </g>
    <g id="line2d_20">
     <path d="M 95.69 277.0005 
L 111.69 277.0005 
L 127.69 277.0005 
" style="fill: none; stroke: #000000; stroke-width: 2; stroke-linecap: square"/>
    </g>
    <g id="text_19">
     <!-- Simulation -->
     <g transform="translate(140.49 282.6005) scale(0.16 -0.16)">
      <defs>
       <path id="DejaVuSans-53" d="M 3425 4513 
L 3425 3897 
Q 3066 4069 2747 4153 
Q 2428 4238 2131 4238 
Q 1616 4238 1336 4038 
Q 1056 3838 1056 3469 
Q 1056 3159 1242 3001 
Q 1428 2844 1947 2747 
L 2328 2669 
Q 3034 2534 3370 2195 
Q 3706 1856 3706 1288 
Q 3706 609 3251 259 
Q 2797 -91 1919 -91 
Q 1588 -91 1214 -16 
Q 841 59 441 206 
L 441 856 
Q 825 641 1194 531 
Q 1563 422 1919 422 
Q 2459 422 2753 634 
Q 3047 847 3047 1241 
Q 3047 1584 2836 1778 
Q 2625 1972 2144 2069 
L 1759 2144 
Q 1053 2284 737 2584 
Q 422 2884 422 3419 
Q 422 4038 858 4394 
Q 1294 4750 2059 4750 
Q 2388 4750 2728 4690 
Q 3069 4631 3425 4513 
z
" transform="scale(0.015625)"/>
      </defs>
      <use xlink:href="#DejaVuSans-53"/>
      <use xlink:href="#DejaVuSans-69" x="63.476562"/>
      <use xlink:href="#DejaVuSans-6d" x="91.259766"/>
      <use xlink:href="#DejaVuSans-75" x="188.671875"/>
      <use xlink:href="#DejaVuSans-6c" x="252.050781"/>
      <use xlink:href="#DejaVuSans-61" x="279.833984"/>
      <use xlink:href="#DejaVuSans-74" x="341.113281"/>
      <use xlink:href="#DejaVuSans-69" x="380.322266"/>
      <use xlink:href="#DejaVuSans-6f" x="408.105469"/>
      <use xlink:href="#DejaVuSans-6e" x="469.287109"/>
     </g>
    </g>
   </g>
  </g>
 </g>
 <defs>
  <clipPath id="pf2c0ba27b5">
   <rect x="81.29" y="17.28" width="462.04" height="283.048"/>
  </clipPath>
 </defs>
</svg>
