<?xml version="1.0" encoding="UTF-8" standalone="no"?>
<!-- Created with Inkscape (http://www.inkscape.org/) -->

<svg
   width="72.222237mm"
   height="52.168629mm"
   viewBox="0 0 72.222237 52.168629"
   version="1.1"
   id="svg3625"
   inkscape:version="1.1.2 (0a00cf5339, 2022-02-04)"
   sodipodi:docname="Oedo_stressStrain.svg"
   xmlns:inkscape="http://www.inkscape.org/namespaces/inkscape"
   xmlns:sodipodi="http://sodipodi.sourceforge.net/DTD/sodipodi-0.dtd"
   xmlns:xlink="http://www.w3.org/1999/xlink"
   xmlns="http://www.w3.org/2000/svg"
   xmlns:svg="http://www.w3.org/2000/svg">
  <sodipodi:namedview
     id="namedview3627"
     pagecolor="#ffffff"
     bordercolor="#999999"
     borderopacity="1"
     inkscape:pageshadow="0"
     inkscape:pageopacity="1"
     inkscape:pagecheckerboard="0"
     inkscape:document-units="mm"
     showgrid="true"
     inkscape:zoom="2.8284271"
     inkscape:cx="248.37126"
     inkscape:cy="122.1527"
     inkscape:window-width="1920"
     inkscape:window-height="1031"
     inkscape:window-x="0"
     inkscape:window-y="25"
     inkscape:window-maximized="1"
     inkscape:current-layer="layer1"
     fit-margin-top="1"
     fit-margin-left="1"
     fit-margin-right="1"
     fit-margin-bottom="1"
     lock-margins="true">
    <inkscape:grid
       type="xygrid"
       id="grid15667"
       originx="-8.4008558"
       originy="-24.399996" />
  </sodipodi:namedview>
  <defs
     id="defs3622">
    <marker
       inkscape:stockid="Arrow1Lend"
       orient="auto"
       refY="0"
       refX="0"
       id="Arrow1Lend"
       style="overflow:visible"
       inkscape:isstock="true"
       inkscape:collect="always">
      <path
         id="path830"
         d="M 0,0 5,-5 -12.5,0 5,5 Z"
         style="fill:#000000;fill-opacity:1;fill-rule:evenodd;stroke:#000000;stroke-width:1pt;stroke-opacity:1"
         transform="matrix(-0.8,0,0,-0.8,-10,0)" />
    </marker>
    <marker
       inkscape:stockid="StopL"
       orient="auto"
       refY="0"
       refX="0"
       id="StopL"
       style="overflow:visible"
       inkscape:isstock="true">
      <path
         id="path996"
         d="M 0,5.65 V -5.65"
         style="fill:none;fill-opacity:0.75;fill-rule:evenodd;stroke:#000000;stroke-width:1pt;stroke-opacity:1"
         transform="scale(0.8)" />
    </marker>
    <marker
       inkscape:isstock="true"
       style="overflow:visible"
       id="marker1135"
       refX="0"
       refY="0"
       orient="auto"
       inkscape:stockid="Arrow1Lend"
       inkscape:collect="always">
      <path
         transform="matrix(-0.8,0,0,-0.8,-10,0)"
         style="fill:#000000;fill-opacity:1;fill-rule:evenodd;stroke:#000000;stroke-width:1pt;stroke-opacity:1"
         d="M 0,0 5,-5 -12.5,0 5,5 Z"
         id="path1133" />
    </marker>
    <marker
       inkscape:stockid="Arrow1Mend"
       orient="auto"
       refY="0"
       refX="0"
       id="marker3075"
       style="overflow:visible"
       inkscape:isstock="true">
      <path
         id="path3073"
         d="M 0,0 5,-5 -12.5,0 5,5 Z"
         style="fill:#000000;fill-opacity:1;fill-rule:evenodd;stroke:#000000;stroke-width:1pt;stroke-opacity:1"
         transform="matrix(-0.4,0,0,-0.4,-4,0)" />
    </marker>
    <g
       id="g459">
      <symbol
         overflow="visible"
         id="symbol6044">
        <path
           style="stroke:none"
           d=""
           id="path6720" />
      </symbol>
      <symbol
         overflow="visible"
         id="symbol7901">
        <path
           style="stroke:none"
           d="m 1.90625,-6.140625 c 0,-0.265625 -0.21875,-0.53125 -0.515625,-0.53125 -0.34375,0 -0.546875,0.28125 -0.546875,0.53125 0,0.265625 0.234375,0.53125 0.53125,0.53125 0.34375,0 0.53125,-0.28125 0.53125,-0.53125 z m 0,0"
           id="path8506" />
      </symbol>
      <symbol
         overflow="visible"
         id="symbol5152">
        <path
           style="stroke:none"
           d=""
           id="path53" />
      </symbol>
      <symbol
         overflow="visible"
         id="symbol2194">
        <path
           style="stroke:none"
           d="M 1.40625,-2.265625 C 1.734375,-2.125 2.03125,-2.125 2.265625,-2.125 c 0.25,0 0.8125,0 0.8125,-0.3125 0,-0.234375 -0.359375,-0.265625 -0.734375,-0.265625 -0.203125,0 -0.5625,0.015625 -0.921875,0.1875 C 1.1875,-2.625 1.015625,-2.828125 1.015625,-3.09375 c 0,-0.609375 0.984375,-0.96875 1.875,-0.96875 0.15625,0 0.515625,0 0.921875,0.28125 0.109375,0.078125 0.125,0.109375 0.1875,0.109375 0.140625,0 0.28125,-0.140625 0.28125,-0.28125 0,-0.1875 -0.609375,-0.5625 -1.296875,-0.5625 -1.140625,0 -2.21875,0.671875 -2.21875,1.421875 0,0.4375 0.359375,0.6875 0.40625,0.71875 -0.59375,0.328125 -0.90625,0.875 -0.90625,1.34375 0,0.640625 0.5625,1.25 1.625,1.25 1.3125,0 1.875,-0.875 1.875,-1.03125 0,-0.0625 -0.0625,-0.09375 -0.109375,-0.09375 -0.0625,0 -0.09375,0.03125 -0.109375,0.0625 -0.140625,0.234375 -0.375,0.609375 -1.578125,0.609375 -0.609375,0 -1.453125,-0.15625 -1.453125,-0.859375 0,-0.34375 0.28125,-0.875 0.890625,-1.171875 z m 0.328125,-0.125 c 0.234375,-0.078125 0.4375,-0.09375 0.609375,-0.09375 0.25,0 0.28125,0.015625 0.46875,0.0625 -0.15625,0.0625 -0.171875,0.078125 -0.546875,0.078125 -0.21875,0 -0.34375,0 -0.53125,-0.046875 z m 0,0"
           id="path6145" />
      </symbol>
      <symbol
         overflow="visible"
         id="symbol274">
        <path
           style="stroke:none"
           d=""
           id="path221" />
      </symbol>
      <symbol
         overflow="visible"
         id="symbol5204">
        <path
           style="stroke:none"
           d="m 2.328125,-4.4375 c 0,-0.1875 0,-0.1875 -0.203125,-0.1875 -0.453125,0.4375 -1.078125,0.4375 -1.359375,0.4375 v 0.25 c 0.15625,0 0.625,0 1,-0.1875 v 3.546875 c 0,0.234375 0,0.328125 -0.6875,0.328125 H 0.8125 V 0 c 0.125,0 0.984375,-0.03125 1.234375,-0.03125 0.21875,0 1.09375,0.03125 1.25,0.03125 V -0.25 H 3.03125 c -0.703125,0 -0.703125,-0.09375 -0.703125,-0.328125 z m 0,0"
           id="path5770" />
      </symbol>
    </g>
    <g
       id="g2805">
      <symbol
         overflow="visible"
         id="symbol8052">
        <path
           style="stroke:none"
           d=""
           id="path5124" />
      </symbol>
      <symbol
         overflow="visible"
         id="symbol8491">
        <path
           style="stroke:none"
           d="m 1.90625,-6.140625 c 0,-0.265625 -0.21875,-0.53125 -0.515625,-0.53125 -0.34375,0 -0.546875,0.28125 -0.546875,0.53125 0,0.265625 0.234375,0.53125 0.53125,0.53125 0.34375,0 0.53125,-0.28125 0.53125,-0.53125 z m 0,0"
           id="path6690" />
      </symbol>
      <symbol
         overflow="visible"
         id="symbol7189">
        <path
           style="stroke:none"
           d="m 6.84375,-3.265625 c 0.15625,0 0.34375,0 0.34375,-0.1875 C 7.1875,-3.65625 7,-3.65625 6.859375,-3.65625 h -5.96875 c -0.140625,0 -0.328125,0 -0.328125,0.203125 0,0.1875 0.1875,0.1875 0.328125,0.1875 z m 0.015625,1.9375 c 0.140625,0 0.328125,0 0.328125,-0.203125 0,-0.1875 -0.1875,-0.1875 -0.34375,-0.1875 H 0.890625 c -0.140625,0 -0.328125,0 -0.328125,0.1875 0,0.203125 0.1875,0.203125 0.328125,0.203125 z m 0,0"
           id="path8785" />
      </symbol>
      <symbol
         overflow="visible"
         id="symbol9571">
        <path
           style="stroke:none"
           d="m 4.578125,-3.1875 c 0,-0.796875 -0.046875,-1.59375 -0.390625,-2.328125 -0.453125,-0.96875 -1.28125,-1.125 -1.6875,-1.125 -0.609375,0 -1.328125,0.265625 -1.75,1.1875 -0.3125,0.6875 -0.359375,1.46875 -0.359375,2.265625 0,0.75 0.03125,1.640625 0.453125,2.40625 0.421875,0.796875 1.15625,1 1.640625,1 0.53125,0 1.296875,-0.203125 1.734375,-1.15625 0.3125,-0.6875 0.359375,-1.46875 0.359375,-2.25 z M 2.484375,0 C 2.09375,0 1.5,-0.25 1.328125,-1.203125 1.21875,-1.796875 1.21875,-2.71875 1.21875,-3.3125 c 0,-0.640625 0,-1.296875 0.078125,-1.828125 0.1875,-1.1875 0.9375,-1.28125 1.1875,-1.28125 0.328125,0 0.984375,0.1875 1.171875,1.171875 0.109375,0.5625 0.109375,1.3125 0.109375,1.9375 0,0.75 0,1.421875 -0.109375,2.0625 C 3.5,-0.296875 2.9375,0 2.484375,0 Z m 0,0"
           id="path8893" />
      </symbol>
      <symbol
         overflow="visible"
         id="symbol1763">
        <path
           style="stroke:none"
           d=""
           id="path6711" />
      </symbol>
      <symbol
         overflow="visible"
         id="symbol7548">
        <path
           style="stroke:none"
           d="M 1.40625,-2.265625 C 1.734375,-2.125 2.03125,-2.125 2.265625,-2.125 c 0.25,0 0.8125,0 0.8125,-0.3125 0,-0.234375 -0.359375,-0.265625 -0.734375,-0.265625 -0.203125,0 -0.5625,0.015625 -0.921875,0.1875 C 1.1875,-2.625 1.015625,-2.828125 1.015625,-3.09375 c 0,-0.609375 0.984375,-0.96875 1.875,-0.96875 0.15625,0 0.515625,0 0.921875,0.28125 0.109375,0.078125 0.125,0.109375 0.1875,0.109375 0.140625,0 0.28125,-0.140625 0.28125,-0.28125 0,-0.1875 -0.609375,-0.5625 -1.296875,-0.5625 -1.140625,0 -2.21875,0.671875 -2.21875,1.421875 0,0.4375 0.359375,0.6875 0.40625,0.71875 -0.59375,0.328125 -0.90625,0.875 -0.90625,1.34375 0,0.640625 0.5625,1.25 1.625,1.25 1.3125,0 1.875,-0.875 1.875,-1.03125 0,-0.0625 -0.0625,-0.09375 -0.109375,-0.09375 -0.0625,0 -0.09375,0.03125 -0.109375,0.0625 -0.140625,0.234375 -0.375,0.609375 -1.578125,0.609375 -0.609375,0 -1.453125,-0.15625 -1.453125,-0.859375 0,-0.34375 0.28125,-0.875 0.890625,-1.171875 z m 0.328125,-0.125 c 0.234375,-0.078125 0.4375,-0.09375 0.609375,-0.09375 0.25,0 0.28125,0.015625 0.46875,0.0625 -0.15625,0.0625 -0.171875,0.078125 -0.546875,0.078125 -0.21875,0 -0.34375,0 -0.53125,-0.046875 z m 0,0"
           id="path7213" />
      </symbol>
      <symbol
         overflow="visible"
         id="symbol8776">
        <path
           style="stroke:none"
           d=""
           id="path1059" />
      </symbol>
      <symbol
         overflow="visible"
         id="symbol1405">
        <path
           style="stroke:none"
           d="m 1.640625,-1.40625 c 0,-0.046875 0.171875,-0.671875 0.171875,-0.703125 0.015625,-0.0625 0.21875,-0.40625 0.453125,-0.578125 0.0625,-0.046875 0.25,-0.1875 0.5625,-0.1875 0.0625,0 0.234375,0 0.375,0.09375 -0.21875,0.0625 -0.296875,0.265625 -0.296875,0.390625 0,0.140625 0.109375,0.25 0.265625,0.25 0.171875,0 0.390625,-0.125 0.390625,-0.421875 0,-0.359375 -0.375,-0.515625 -0.734375,-0.515625 -0.359375,0 -0.671875,0.15625 -0.984375,0.5 -0.125,-0.421875 -0.546875,-0.5 -0.71875,-0.5 -0.25,0 -0.421875,0.171875 -0.546875,0.359375 -0.15625,0.265625 -0.25,0.671875 -0.25,0.71875 0,0.078125 0.09375,0.078125 0.125,0.078125 0.09375,0 0.09375,-0.015625 0.140625,-0.203125 0.109375,-0.421875 0.25,-0.75 0.515625,-0.75 0.1875,0 0.234375,0.15625 0.234375,0.34375 0,0.125 -0.0625,0.390625 -0.125,0.578125 -0.046875,0.1875 -0.109375,0.46875 -0.140625,0.625 L 0.84375,-0.4375 C 0.828125,-0.34375 0.78125,-0.171875 0.78125,-0.15625 0.78125,0 0.90625,0.0625 1.015625,0.0625 1.125,0.0625 1.265625,0 1.3125,-0.125 1.328125,-0.171875 1.40625,-0.484375 1.453125,-0.65625 Z m 0,0"
           id="path1328" />
      </symbol>
    </g>
    <g
       id="g3503">
      <symbol
         overflow="visible"
         id="symbol3722">
        <path
           style="stroke:none"
           d=""
           id="path3671" />
      </symbol>
      <symbol
         overflow="visible"
         id="symbol1375">
        <path
           style="stroke:none"
           d="m 5.15625,-3.71875 c 0.140625,0 0.5,0 0.5,-0.34375 0,-0.234375 -0.21875,-0.234375 -0.390625,-0.234375 h -2.28125 c -1.5,0 -2.609375,1.640625 -2.609375,2.828125 0,0.875 0.59375,1.578125 1.5,1.578125 1.171875,0 2.5,-1.203125 2.5,-2.734375 0,-0.171875 0,-0.65625 -0.3125,-1.09375 z M 1.890625,-0.109375 C 1.390625,-0.109375 1,-0.46875 1,-1.1875 c 0,-0.296875 0.109375,-1.109375 0.46875,-1.703125 0.421875,-0.6875 1.015625,-0.828125 1.359375,-0.828125 0.828125,0 0.90625,0.65625 0.90625,0.96875 0,0.46875 -0.203125,1.28125 -0.53125,1.796875 -0.390625,0.578125 -0.9375,0.84375 -1.3125,0.84375 z m 0,0"
           id="path4284" />
      </symbol>
      <symbol
         overflow="visible"
         id="symbol7822">
        <path
           style="stroke:none"
           d=""
           id="path5323" />
      </symbol>
      <symbol
         overflow="visible"
         id="symbol4502">
        <path
           style="stroke:none"
           d="m 2.9375,-2.65625 c -0.140625,-0.234375 -0.375,-0.421875 -0.71875,-0.421875 -0.890625,0 -1.796875,0.984375 -1.796875,1.984375 0,0.6875 0.453125,1.15625 1.0625,1.15625 0.375,0 0.703125,-0.203125 0.984375,-0.484375 C 2.59375,0 3,0.0625 3.1875,0.0625 c 0.25,0 0.421875,-0.140625 0.546875,-0.359375 0.15625,-0.28125 0.25,-0.671875 0.25,-0.703125 0,-0.09375 -0.09375,-0.09375 -0.109375,-0.09375 -0.109375,0 -0.109375,0.03125 -0.15625,0.21875 C 3.625,-0.53125 3.5,-0.125 3.203125,-0.125 3.03125,-0.125 2.96875,-0.28125 2.96875,-0.46875 c 0,-0.109375 0.0625,-0.375 0.109375,-0.546875 0.046875,-0.1875 0.125,-0.46875 0.15625,-0.625 L 3.375,-2.171875 C 3.421875,-2.359375 3.5,-2.6875 3.5,-2.71875 3.5,-2.875 3.375,-2.9375 3.265625,-2.9375 c -0.125,0 -0.28125,0.078125 -0.328125,0.28125 z M 2.5,-0.875 C 2.453125,-0.671875 2.296875,-0.53125 2.140625,-0.40625 2.078125,-0.34375 1.796875,-0.125 1.5,-0.125 c -0.265625,0 -0.515625,-0.1875 -0.515625,-0.671875 0,-0.375 0.203125,-1.140625 0.375,-1.421875 0.3125,-0.5625 0.671875,-0.65625 0.859375,-0.65625 0.484375,0 0.625,0.53125 0.625,0.609375 0,0.015625 -0.015625,0.078125 -0.015625,0.09375 z m 0,0"
           id="path124" />
      </symbol>
      <symbol
         overflow="visible"
         id="symbol1206">
        <path
           style="stroke:none"
           d=""
           id="path9962" />
      </symbol>
      <symbol
         overflow="visible"
         id="symbol1591">
        <path
           style="stroke:none"
           d="m 6.84375,-3.265625 c 0.15625,0 0.34375,0 0.34375,-0.1875 C 7.1875,-3.65625 7,-3.65625 6.859375,-3.65625 h -5.96875 c -0.140625,0 -0.328125,0 -0.328125,0.203125 0,0.1875 0.1875,0.1875 0.328125,0.1875 z m 0.015625,1.9375 c 0.140625,0 0.328125,0 0.328125,-0.203125 0,-0.1875 -0.1875,-0.1875 -0.34375,-0.1875 H 0.890625 c -0.140625,0 -0.328125,0 -0.328125,0.1875 0,0.203125 0.1875,0.203125 0.328125,0.203125 z m 0,0"
           id="path3312" />
      </symbol>
      <symbol
         overflow="visible"
         id="symbol4111">
        <path
           style="stroke:none"
           d="m 4.578125,-3.1875 c 0,-0.796875 -0.046875,-1.59375 -0.390625,-2.328125 -0.453125,-0.96875 -1.28125,-1.125 -1.6875,-1.125 -0.609375,0 -1.328125,0.265625 -1.75,1.1875 -0.3125,0.6875 -0.359375,1.46875 -0.359375,2.265625 0,0.75 0.03125,1.640625 0.453125,2.40625 0.421875,0.796875 1.15625,1 1.640625,1 0.53125,0 1.296875,-0.203125 1.734375,-1.15625 0.3125,-0.6875 0.359375,-1.46875 0.359375,-2.25 z M 2.484375,0 C 2.09375,0 1.5,-0.25 1.328125,-1.203125 1.21875,-1.796875 1.21875,-2.71875 1.21875,-3.3125 c 0,-0.640625 0,-1.296875 0.078125,-1.828125 0.1875,-1.1875 0.9375,-1.28125 1.1875,-1.28125 0.328125,0 0.984375,0.1875 1.171875,1.171875 0.109375,0.5625 0.109375,1.3125 0.109375,1.9375 0,0.75 0,1.421875 -0.109375,2.0625 C 3.5,-0.296875 2.9375,0 2.484375,0 Z m 0,0"
           id="path7224" />
      </symbol>
    </g>
    <g
       id="g2450">
      <symbol
         overflow="visible"
         id="symbol8918">
        <path
           style="stroke:none"
           d=""
           id="path3466" />
      </symbol>
      <symbol
         overflow="visible"
         id="symbol625">
        <path
           style="stroke:none"
           d="M 1.40625,-2.265625 C 1.734375,-2.125 2.03125,-2.125 2.265625,-2.125 c 0.25,0 0.8125,0 0.8125,-0.3125 0,-0.234375 -0.359375,-0.265625 -0.734375,-0.265625 -0.203125,0 -0.5625,0.015625 -0.921875,0.1875 C 1.1875,-2.625 1.015625,-2.828125 1.015625,-3.09375 c 0,-0.609375 0.984375,-0.96875 1.875,-0.96875 0.15625,0 0.515625,0 0.921875,0.28125 0.109375,0.078125 0.125,0.109375 0.1875,0.109375 0.140625,0 0.28125,-0.140625 0.28125,-0.28125 0,-0.1875 -0.609375,-0.5625 -1.296875,-0.5625 -1.140625,0 -2.21875,0.671875 -2.21875,1.421875 0,0.4375 0.359375,0.6875 0.40625,0.71875 -0.59375,0.328125 -0.90625,0.875 -0.90625,1.34375 0,0.640625 0.5625,1.25 1.625,1.25 1.3125,0 1.875,-0.875 1.875,-1.03125 0,-0.0625 -0.0625,-0.09375 -0.109375,-0.09375 -0.0625,0 -0.09375,0.03125 -0.109375,0.0625 -0.140625,0.234375 -0.375,0.609375 -1.578125,0.609375 -0.609375,0 -1.453125,-0.15625 -1.453125,-0.859375 0,-0.34375 0.28125,-0.875 0.890625,-1.171875 z m 0.328125,-0.125 c 0.234375,-0.078125 0.4375,-0.09375 0.609375,-0.09375 0.25,0 0.28125,0.015625 0.46875,0.0625 -0.15625,0.0625 -0.171875,0.078125 -0.546875,0.078125 -0.21875,0 -0.34375,0 -0.53125,-0.046875 z m 0,0"
           id="path5861" />
      </symbol>
      <symbol
         overflow="visible"
         id="symbol7953">
        <path
           style="stroke:none"
           d=""
           id="path50" />
      </symbol>
      <symbol
         overflow="visible"
         id="symbol4597">
        <path
           style="stroke:none"
           d="m 2.9375,-2.65625 c -0.140625,-0.234375 -0.375,-0.421875 -0.71875,-0.421875 -0.890625,0 -1.796875,0.984375 -1.796875,1.984375 0,0.6875 0.453125,1.15625 1.0625,1.15625 0.375,0 0.703125,-0.203125 0.984375,-0.484375 C 2.59375,0 3,0.0625 3.1875,0.0625 c 0.25,0 0.421875,-0.140625 0.546875,-0.359375 0.15625,-0.28125 0.25,-0.671875 0.25,-0.703125 0,-0.09375 -0.09375,-0.09375 -0.109375,-0.09375 -0.109375,0 -0.109375,0.03125 -0.15625,0.21875 C 3.625,-0.53125 3.5,-0.125 3.203125,-0.125 3.03125,-0.125 2.96875,-0.28125 2.96875,-0.46875 c 0,-0.109375 0.0625,-0.375 0.109375,-0.546875 0.046875,-0.1875 0.125,-0.46875 0.15625,-0.625 L 3.375,-2.171875 C 3.421875,-2.359375 3.5,-2.6875 3.5,-2.71875 3.5,-2.875 3.375,-2.9375 3.265625,-2.9375 c -0.125,0 -0.28125,0.078125 -0.328125,0.28125 z M 2.5,-0.875 C 2.453125,-0.671875 2.296875,-0.53125 2.140625,-0.40625 2.078125,-0.34375 1.796875,-0.125 1.5,-0.125 c -0.265625,0 -0.515625,-0.1875 -0.515625,-0.671875 0,-0.375 0.203125,-1.140625 0.375,-1.421875 0.3125,-0.5625 0.671875,-0.65625 0.859375,-0.65625 0.484375,0 0.625,0.53125 0.625,0.609375 0,0.015625 -0.015625,0.078125 -0.015625,0.09375 z m 0,0"
           id="path2613" />
      </symbol>
    </g>
    <g
       id="g6832">
      <symbol
         overflow="visible"
         id="symbol8164">
        <path
           style="stroke:none"
           d=""
           id="path8385" />
      </symbol>
      <symbol
         overflow="visible"
         id="symbol7258">
        <path
           style="stroke:none"
           d="m 5.15625,-3.71875 c 0.140625,0 0.5,0 0.5,-0.34375 0,-0.234375 -0.21875,-0.234375 -0.390625,-0.234375 h -2.28125 c -1.5,0 -2.609375,1.640625 -2.609375,2.828125 0,0.875 0.59375,1.578125 1.5,1.578125 1.171875,0 2.5,-1.203125 2.5,-2.734375 0,-0.171875 0,-0.65625 -0.3125,-1.09375 z M 1.890625,-0.109375 C 1.390625,-0.109375 1,-0.46875 1,-1.1875 c 0,-0.296875 0.109375,-1.109375 0.46875,-1.703125 0.421875,-0.6875 1.015625,-0.828125 1.359375,-0.828125 0.828125,0 0.90625,0.65625 0.90625,0.96875 0,0.46875 -0.203125,1.28125 -0.53125,1.796875 -0.390625,0.578125 -0.9375,0.84375 -1.3125,0.84375 z m 0,0"
           id="path6248" />
      </symbol>
      <symbol
         overflow="visible"
         id="symbol1958">
        <path
           style="stroke:none"
           d=""
           id="path6438" />
      </symbol>
      <symbol
         overflow="visible"
         id="symbol8578">
        <path
           style="stroke:none"
           d="m 2.9375,-2.65625 c -0.140625,-0.234375 -0.375,-0.421875 -0.71875,-0.421875 -0.890625,0 -1.796875,0.984375 -1.796875,1.984375 0,0.6875 0.453125,1.15625 1.0625,1.15625 0.375,0 0.703125,-0.203125 0.984375,-0.484375 C 2.59375,0 3,0.0625 3.1875,0.0625 c 0.25,0 0.421875,-0.140625 0.546875,-0.359375 0.15625,-0.28125 0.25,-0.671875 0.25,-0.703125 0,-0.09375 -0.09375,-0.09375 -0.109375,-0.09375 -0.109375,0 -0.109375,0.03125 -0.15625,0.21875 C 3.625,-0.53125 3.5,-0.125 3.203125,-0.125 3.03125,-0.125 2.96875,-0.28125 2.96875,-0.46875 c 0,-0.109375 0.0625,-0.375 0.109375,-0.546875 0.046875,-0.1875 0.125,-0.46875 0.15625,-0.625 L 3.375,-2.171875 C 3.421875,-2.359375 3.5,-2.6875 3.5,-2.71875 3.5,-2.875 3.375,-2.9375 3.265625,-2.9375 c -0.125,0 -0.28125,0.078125 -0.328125,0.28125 z M 2.5,-0.875 C 2.453125,-0.671875 2.296875,-0.53125 2.140625,-0.40625 2.078125,-0.34375 1.796875,-0.125 1.5,-0.125 c -0.265625,0 -0.515625,-0.1875 -0.515625,-0.671875 0,-0.375 0.203125,-1.140625 0.375,-1.421875 0.3125,-0.5625 0.671875,-0.65625 0.859375,-0.65625 0.484375,0 0.625,0.53125 0.625,0.609375 0,0.015625 -0.015625,0.078125 -0.015625,0.09375 z m 0,0"
           id="path3541" />
      </symbol>
    </g>
    <g
       id="g5698">
      <symbol
         overflow="visible"
         id="symbol1137">
        <path
           style="stroke:none"
           d=""
           id="path2039" />
      </symbol>
      <symbol
         overflow="visible"
         id="symbol4212">
        <path
           style="stroke:none"
           d="m 1.90625,-6.140625 c 0,-0.265625 -0.21875,-0.53125 -0.515625,-0.53125 -0.34375,0 -0.546875,0.28125 -0.546875,0.53125 0,0.265625 0.234375,0.53125 0.53125,0.53125 0.34375,0 0.53125,-0.28125 0.53125,-0.53125 z m 0,0"
           id="path6550" />
      </symbol>
      <symbol
         overflow="visible"
         id="symbol2245">
        <path
           style="stroke:none"
           d=""
           id="path7308" />
      </symbol>
      <symbol
         overflow="visible"
         id="symbol4601">
        <path
           style="stroke:none"
           d="M 1.40625,-2.265625 C 1.734375,-2.125 2.03125,-2.125 2.265625,-2.125 c 0.25,0 0.8125,0 0.8125,-0.3125 0,-0.234375 -0.359375,-0.265625 -0.734375,-0.265625 -0.203125,0 -0.5625,0.015625 -0.921875,0.1875 C 1.1875,-2.625 1.015625,-2.828125 1.015625,-3.09375 c 0,-0.609375 0.984375,-0.96875 1.875,-0.96875 0.15625,0 0.515625,0 0.921875,0.28125 0.109375,0.078125 0.125,0.109375 0.1875,0.109375 0.140625,0 0.28125,-0.140625 0.28125,-0.28125 0,-0.1875 -0.609375,-0.5625 -1.296875,-0.5625 -1.140625,0 -2.21875,0.671875 -2.21875,1.421875 0,0.4375 0.359375,0.6875 0.40625,0.71875 -0.59375,0.328125 -0.90625,0.875 -0.90625,1.34375 0,0.640625 0.5625,1.25 1.625,1.25 1.3125,0 1.875,-0.875 1.875,-1.03125 0,-0.0625 -0.0625,-0.09375 -0.109375,-0.09375 -0.0625,0 -0.09375,0.03125 -0.109375,0.0625 -0.140625,0.234375 -0.375,0.609375 -1.578125,0.609375 -0.609375,0 -1.453125,-0.15625 -1.453125,-0.859375 0,-0.34375 0.28125,-0.875 0.890625,-1.171875 z m 0.328125,-0.125 c 0.234375,-0.078125 0.4375,-0.09375 0.609375,-0.09375 0.25,0 0.28125,0.015625 0.46875,0.0625 -0.15625,0.0625 -0.171875,0.078125 -0.546875,0.078125 -0.21875,0 -0.34375,0 -0.53125,-0.046875 z m 0,0"
           id="path2912" />
      </symbol>
      <symbol
         overflow="visible"
         id="symbol9757">
        <path
           style="stroke:none"
           d=""
           id="path4876" />
      </symbol>
      <symbol
         overflow="visible"
         id="symbol853">
        <path
           style="stroke:none"
           d="m 1.640625,-1.40625 c 0,-0.046875 0.171875,-0.671875 0.171875,-0.703125 0.015625,-0.0625 0.21875,-0.40625 0.453125,-0.578125 0.0625,-0.046875 0.25,-0.1875 0.5625,-0.1875 0.0625,0 0.234375,0 0.375,0.09375 -0.21875,0.0625 -0.296875,0.265625 -0.296875,0.390625 0,0.140625 0.109375,0.25 0.265625,0.25 0.171875,0 0.390625,-0.125 0.390625,-0.421875 0,-0.359375 -0.375,-0.515625 -0.734375,-0.515625 -0.359375,0 -0.671875,0.15625 -0.984375,0.5 -0.125,-0.421875 -0.546875,-0.5 -0.71875,-0.5 -0.25,0 -0.421875,0.171875 -0.546875,0.359375 -0.15625,0.265625 -0.25,0.671875 -0.25,0.71875 0,0.078125 0.09375,0.078125 0.125,0.078125 0.09375,0 0.09375,-0.015625 0.140625,-0.203125 0.109375,-0.421875 0.25,-0.75 0.515625,-0.75 0.1875,0 0.234375,0.15625 0.234375,0.34375 0,0.125 -0.0625,0.390625 -0.125,0.578125 -0.046875,0.1875 -0.109375,0.46875 -0.140625,0.625 L 0.84375,-0.4375 C 0.828125,-0.34375 0.78125,-0.171875 0.78125,-0.15625 0.78125,0 0.90625,0.0625 1.015625,0.0625 1.125,0.0625 1.265625,0 1.3125,-0.125 1.328125,-0.171875 1.40625,-0.484375 1.453125,-0.65625 Z m 0,0"
           id="path6731" />
      </symbol>
    </g>
    <g
       id="g8471">
      <symbol
         overflow="visible"
         id="symbol5150">
        <path
           style="stroke:none;"
           d=""
           id="path4349" />
      </symbol>
      <symbol
         overflow="visible"
         id="symbol7732">
        <path
           style="stroke:none;"
           d="M 5.15625 -3.71875 C 5.296875 -3.71875 5.65625 -3.71875 5.65625 -4.0625 C 5.65625 -4.296875 5.4375 -4.296875 5.265625 -4.296875 L 2.984375 -4.296875 C 1.484375 -4.296875 0.375 -2.65625 0.375 -1.46875 C 0.375 -0.59375 0.96875 0.109375 1.875 0.109375 C 3.046875 0.109375 4.375 -1.09375 4.375 -2.625 C 4.375 -2.796875 4.375 -3.28125 4.0625 -3.71875 Z M 1.890625 -0.109375 C 1.390625 -0.109375 1 -0.46875 1 -1.1875 C 1 -1.484375 1.109375 -2.296875 1.46875 -2.890625 C 1.890625 -3.578125 2.484375 -3.71875 2.828125 -3.71875 C 3.65625 -3.71875 3.734375 -3.0625 3.734375 -2.75 C 3.734375 -2.28125 3.53125 -1.46875 3.203125 -0.953125 C 2.8125 -0.375 2.265625 -0.109375 1.890625 -0.109375 Z M 1.890625 -0.109375 "
           id="path3705" />
      </symbol>
      <symbol
         overflow="visible"
         id="symbol6195">
        <path
           style="stroke:none;"
           d=""
           id="path1905" />
      </symbol>
      <symbol
         overflow="visible"
         id="symbol4261">
        <path
           style="stroke:none;"
           d="M 2.9375 -2.65625 C 2.796875 -2.890625 2.5625 -3.078125 2.21875 -3.078125 C 1.328125 -3.078125 0.421875 -2.09375 0.421875 -1.09375 C 0.421875 -0.40625 0.875 0.0625 1.484375 0.0625 C 1.859375 0.0625 2.1875 -0.140625 2.46875 -0.421875 C 2.59375 0 3 0.0625 3.1875 0.0625 C 3.4375 0.0625 3.609375 -0.078125 3.734375 -0.296875 C 3.890625 -0.578125 3.984375 -0.96875 3.984375 -1 C 3.984375 -1.09375 3.890625 -1.09375 3.875 -1.09375 C 3.765625 -1.09375 3.765625 -1.0625 3.71875 -0.875 C 3.625 -0.53125 3.5 -0.125 3.203125 -0.125 C 3.03125 -0.125 2.96875 -0.28125 2.96875 -0.46875 C 2.96875 -0.578125 3.03125 -0.84375 3.078125 -1.015625 C 3.125 -1.203125 3.203125 -1.484375 3.234375 -1.640625 L 3.375 -2.171875 C 3.421875 -2.359375 3.5 -2.6875 3.5 -2.71875 C 3.5 -2.875 3.375 -2.9375 3.265625 -2.9375 C 3.140625 -2.9375 2.984375 -2.859375 2.9375 -2.65625 Z M 2.5 -0.875 C 2.453125 -0.671875 2.296875 -0.53125 2.140625 -0.40625 C 2.078125 -0.34375 1.796875 -0.125 1.5 -0.125 C 1.234375 -0.125 0.984375 -0.3125 0.984375 -0.796875 C 0.984375 -1.171875 1.1875 -1.9375 1.359375 -2.21875 C 1.671875 -2.78125 2.03125 -2.875 2.21875 -2.875 C 2.703125 -2.875 2.84375 -2.34375 2.84375 -2.265625 C 2.84375 -2.25 2.828125 -2.1875 2.828125 -2.171875 Z M 2.5 -0.875 "
           id="path9533" />
      </symbol>
    </g>
  </defs>
  <g
     inkscape:label="Layer 1"
     inkscape:groupmode="layer"
     id="layer1"
     transform="translate(-8.40086, -24.4)">
    <path
       style="fill:#b4b4b4;fill-opacity:1;stroke:#b4b4b4;stroke-width:2.00001;stroke-linecap:square;stroke-linejoin:round;stroke-miterlimit:4;stroke-dasharray:none;stroke-opacity:1"
       d="M 106.06562,105.36203 C 95.206419,104.93831 88.764466,104.53685 81.086045,103.80531 61.314244,101.9216 46.83319,98.565197 41.424256,94.612543 c -2.54147,-1.857214 -2.33429,-3.522676 0.680852,-5.473161 7.173219,-4.640332 27.038969,-8.333089 52.739219,-9.803459 14.013633,-0.801752 33.408533,-0.801752 47.422163,0 26.4942,1.515794 46.7857,5.404406 53.32629,10.219312 3.12128,2.297754 2.26424,4.283696 -2.90995,6.743009 -9.18203,4.364246 -27.52679,7.321216 -54.61213,8.802846 -3.60011,0.19694 -28.45247,0.39956 -32.00508,0.26094 z"
       id="path41140"
       transform="matrix(0.26458333,0,0,0.26458333,12.284183,15.34583)" />
    <path
       style="fill:#b4b4b4;fill-opacity:1;stroke:#b4b4b4;stroke-width:2.00001;stroke-linecap:square;stroke-linejoin:round;stroke-miterlimit:4;stroke-dasharray:none;stroke-opacity:1"
       d="m 109.77353,131.23061 c -22.674948,-0.43463 -42.539087,-2.55189 -56.106473,-5.98022 -4.401559,-1.11223 -6.826617,-1.94166 -9.571745,-3.27379 -2.514982,-1.22045 -4.073867,-2.49628 -4.375041,-3.58064 -0.125053,-0.45025 -0.200031,-4.79571 -0.200713,-11.63253 l -0.0011,-10.913798 0.439094,0.392336 c 2.74785,2.45524 11.426887,5.310622 21.80834,7.174892 10.327983,1.85467 21.178945,2.98802 36.981482,3.8626 6.087696,0.33692 33.305446,0.33791 39.518476,0.001 30.06462,-1.62816 50.68614,-5.37639 58.26428,-10.590282 l 0.86705,-0.596548 v 11.34515 11.34515 l -1.05919,1.03411 c -5.95027,5.80932 -34.14592,10.65439 -65.87826,11.32035 -10.40688,0.21841 -13.38966,0.23164 -20.68621,0.0918 z"
       id="path41401"
       transform="matrix(0.26458333,0,0,0.26458333,12.284183,15.34583)" />
    <path
       style="fill:#b4b4b4;fill-opacity:1;stroke:#b4b4b4;stroke-width:2.00001;stroke-linecap:square;stroke-linejoin:round;stroke-miterlimit:4;stroke-dasharray:none;stroke-opacity:1"
       d="M 106.84623,225.36844 C 86.685824,224.74462 69.999248,223.04473 57.400617,220.33132 47.703582,218.24285 41.150654,215.47723 39.931389,212.95857 39.525958,212.12106 39.51847,211.90682 39.51847,201.145 v -10.96059 l 1.412367,0.91366 c 7.161826,4.63296 25.949723,8.31567 50.498313,9.89844 10.04224,0.64748 14.48947,0.77429 27.12626,0.77354 12.63039,-7.6e-4 17.429,-0.13719 27.22383,-0.77407 24.35625,-1.58368 43.28483,-5.30203 50.44704,-9.90986 l 1.07334,-0.69053 0.0504,11.1533 0.0504,11.1533 -0.44833,0.63011 c -0.70976,0.99753 -1.83161,1.78402 -4.141,2.90308 -9.72011,4.71009 -32.48943,8.11795 -60.56233,9.06429 -5.17094,0.17431 -20.63846,0.21619 -25.40254,0.0688 z"
       id="path41440"
       transform="matrix(0.26458333,0,0,0.26458333,12.284183,15.34583)" />
    <path
       style="fill:#ffb800;fill-opacity:1;stroke:#ffb800;stroke-width:2.00001;stroke-linecap:square;stroke-linejoin:round;stroke-miterlimit:4;stroke-dasharray:none;stroke-opacity:1"
       d="m 106.82475,199.53234 c -26.498147,-0.70652 -49.71031,-3.8774 -60.691773,-8.29078 -1.211916,-0.48706 -2.662646,-1.14827 -3.223843,-1.46935 -1.548921,-0.88621 -2.960393,-2.24231 -3.200297,-3.07475 -0.142599,-0.49481 -0.188939,-10.63844 -0.14967,-32.76188 l 0.05688,-32.04517 0.878188,0.60266 c 3.130799,2.1485 9.725971,4.42011 17.466188,6.01596 27.320109,5.63278 72.822087,6.63697 106.676067,2.35427 15.21947,-1.92535 26.97295,-4.96608 31.65973,-8.19067 0.48321,-0.33246 0.92861,-0.60447 0.98977,-0.60447 0.0612,0 0.1112,14.62158 0.1112,32.4924 v 32.4924 l -0.69911,0.77384 c -6.83657,7.56727 -47.32062,12.84011 -89.87333,11.70554 z"
       id="path40856"
       transform="matrix(0.26458333,0,0,0.26458333,12.284183,15.34583)" />
    <path
       style="fill:none;stroke:#000000;stroke-width:0.529167;stroke-linecap:butt;stroke-linejoin:miter;stroke-miterlimit:4;stroke-dasharray:none;stroke-opacity:1"
       d="M 22.474303,39.6875 V 71.561737"
       id="path821"
       inkscape:connector-curvature="0" />
    <path
       style="fill:none;stroke:#000000;stroke-width:0.529167;stroke-linecap:butt;stroke-linejoin:miter;stroke-miterlimit:4;stroke-dasharray:none;stroke-opacity:1"
       d="M 64.822917,39.6875 V 71.457977"
       id="path823"
       inkscape:connector-curvature="0" />
    <path
       style="fill:none;stroke:#000000;stroke-width:0.264583;stroke-linecap:butt;stroke-linejoin:miter;stroke-miterlimit:4;stroke-dasharray:none;stroke-opacity:1;marker-end:url(#Arrow1Lend)"
       d="m 43.648875,25.399998 v 8.46667"
       id="path825"
       inkscape:connector-curvature="0" />
    <path
       style="fill:none;stroke:#000000;stroke-width:0.264583px;stroke-linecap:butt;stroke-linejoin:miter;stroke-opacity:1;marker-start:url(#StopL);marker-end:url(#marker1135)"
       d="M 68.791667,39.6875 V 47.625"
       id="path1125"
       inkscape:connector-curvature="0" />
    <path
       style="opacity:1;fill:none;fill-opacity:0.117647;stroke:#000000;stroke-width:0.529167;stroke-linecap:round;stroke-miterlimit:4;stroke-dasharray:none;stroke-dashoffset:0;stroke-opacity:1"
       id="path4315"
       sodipodi:type="arc"
       sodipodi:cx="43.648853"
       sodipodi:cy="64.631226"
       sodipodi:rx="21.17458"
       sodipodi:ry="3.8393507"
       sodipodi:start="6.2761869"
       sodipodi:end="3.1395097"
       sodipodi:open="true"
       sodipodi:arc-type="arc"
       d="m 64.822914,64.604356 a 21.17458,3.8393507 0 0 1 -10.488635,3.341508 21.17458,3.8393507 0 0 1 -21.2044,0.01746 21.17458,3.8393507 0 0 1 -10.655559,-3.324099" />
    <path
       style="fill:none;stroke:#000000;stroke-width:0.264583;stroke-linecap:butt;stroke-linejoin:miter;stroke-miterlimit:4;stroke-dasharray:none;stroke-opacity:1;marker-end:url(#Arrow1Lend)"
       d="m 77.258337,55.5625 h -8.46667"
       id="path15669"
       inkscape:connector-curvature="0" />
    <path
       style="fill:none;stroke:#000000;stroke-width:0.264583;stroke-linecap:butt;stroke-linejoin:miter;stroke-miterlimit:4;stroke-dasharray:none;stroke-opacity:1;marker-end:url(#Arrow1Lend)"
       d="M 12.345624,62.140585 19.84375,58.208333"
       id="path15861"
       inkscape:connector-curvature="0" />
    <path
       style="opacity:1;fill:none;fill-opacity:0.117647;stroke:#000000;stroke-width:0.529167;stroke-linecap:round;stroke-miterlimit:4;stroke-dasharray:none;stroke-dashoffset:0;stroke-opacity:1"
       id="path16521"
       sodipodi:type="arc"
       sodipodi:cx="43.648857"
       sodipodi:cy="71.464371"
       sodipodi:rx="21.17458"
       sodipodi:ry="3.8393507"
       sodipodi:start="6.2761869"
       sodipodi:end="3.1395097"
       sodipodi:open="true"
       sodipodi:arc-type="arc"
       d="m 64.822918,71.437502 a 21.17458,3.8393507 0 0 1 -10.488635,3.341507 21.17458,3.8393507 0 0 1 -21.2044,0.01746 21.17458,3.8393507 0 0 1 -10.65556,-3.324099" />
    <path
       style="opacity:1;fill:none;fill-opacity:0.117647;stroke:#000000;stroke-width:0.529167;stroke-linecap:round;stroke-miterlimit:4;stroke-dasharray:none;stroke-dashoffset:0;stroke-opacity:1"
       id="path16927"
       sodipodi:type="arc"
       sodipodi:cx="43.648857"
       sodipodi:cy="39.714371"
       sodipodi:rx="21.17458"
       sodipodi:ry="3.8393507"
       sodipodi:start="6.2761869"
       sodipodi:end="6.2613083"
       sodipodi:open="true"
       sodipodi:arc-type="arc"
       d="M 64.822918,39.687502 A 21.17458,3.8393507 0 0 1 43.875803,43.553501 21.17458,3.8393507 0 0 1 22.476484,39.7698 21.17458,3.8393507 0 0 1 43.264404,35.875653 21.17458,3.8393507 0 0 1 64.81837,39.630384" />
    <path
       style="opacity:1;fill:none;fill-opacity:0.117647;stroke:#000000;stroke-width:0.529167;stroke-linecap:round;stroke-miterlimit:4;stroke-dasharray:none;stroke-dashoffset:0;stroke-opacity:1"
       id="path16929"
       sodipodi:type="arc"
       sodipodi:cx="43.648861"
       sodipodi:cy="46.547516"
       sodipodi:rx="21.17458"
       sodipodi:ry="3.8393507"
       sodipodi:start="6.2761869"
       sodipodi:end="3.1395097"
       sodipodi:open="true"
       sodipodi:arc-type="arc"
       d="m 64.822922,46.520647 a 21.17458,3.8393507 0 0 1 -10.488635,3.341507 21.17458,3.8393507 0 0 1 -21.2044,0.01746 21.17458,3.8393507 0 0 1 -10.65556,-3.324099" />
    <g
       inkscape:label=""
       transform="matrix(0.7,0,0,0.7,7.9469993,-12.547662)"
       id="g1753"
       style="stroke-width:1.42857">
      <g
         id="g2298"
         style="stroke-width:1.42857">
        <g
           style="fill:#000000;fill-opacity:1;stroke-width:1.42857"
           id="g3889">
          <use
             xlink:href="#symbol625"
             x="91.925003"
             y="81.962997"
             id="use650"
             width="100%"
             height="100%"
             style="stroke-width:1.42857" />
        </g>
        <g
           style="fill:#000000;fill-opacity:1;stroke-width:1.42857"
           id="g2659">
          <use
             xlink:href="#symbol4597"
             x="96.570999"
             y="83.457001"
             id="use9881"
             width="100%"
             height="100%"
             style="stroke-width:1.42857" />
        </g>
      </g>
    </g>
    <g
       id="g13027"
       transform="translate(0.7137721,-8.6516042)">
      <g
         inkscape:label=""
         transform="matrix(0.7,0,0,0.7,2.5459628,13.670117)"
         id="g5429"
         style="stroke-width:1.42857">
        <g
           id="g4470"
           style="stroke-width:1.42857">
          <g
             style="fill:#000000;fill-opacity:1;stroke-width:1.42857"
             id="g8600">
            <use
               xlink:href="#symbol4212"
               x="93.695"
               y="81.962997"
               id="use4127"
               width="100%"
               height="100%"
               style="stroke-width:1.42857" />
          </g>
          <g
             style="fill:#000000;fill-opacity:1;stroke-width:1.42857"
             id="g5971">
            <use
               xlink:href="#symbol4601"
               x="91.925003"
               y="81.962997"
               id="use9039"
               width="100%"
               height="100%"
               style="stroke-width:1.42857" />
          </g>
          <g
             style="fill:#000000;fill-opacity:1;stroke-width:1.42857"
             id="g1527">
            <use
               xlink:href="#symbol853"
               x="96.570999"
               y="83.457001"
               id="use9395"
               width="100%"
               height="100%"
               style="stroke-width:1.42857" />
          </g>
        </g>
      </g>
      <text
         xml:space="preserve"
         style="font-style:normal;font-variant:normal;font-weight:normal;font-stretch:normal;font-size:4.93889px;line-height:1.25;font-family:'Asana Math';-inkscape-font-specification:'Asana Math';letter-spacing:0px;word-spacing:0px;stroke-width:0.264583"
         x="73.313568"
         y="70.746513"
         id="text6355"><tspan
           sodipodi:role="line"
           id="tspan6353"
           style="font-style:normal;font-variant:normal;font-weight:normal;font-stretch:normal;font-size:4.93889px;font-family:'Asana Math';-inkscape-font-specification:'Asana Math';stroke-width:0.264583"
           x="73.313568"
           y="70.746513">=0</tspan></text>
    </g>
    <g
       id="g13129"
       transform="translate(-57.678542,-3.4577179)">
      <g
         inkscape:label=""
         transform="matrix(0.7,0,0,0.7,2.5459628,13.670117)"
         id="g13123"
         style="stroke-width:1.42857">
        <g
           id="g13121"
           style="stroke-width:1.42857">
          <g
             style="fill:#000000;fill-opacity:1;stroke-width:1.42857"
             id="g13111">
            <use
               xlink:href="#symbol4212"
               x="93.695"
               y="81.962997"
               id="use13109"
               width="100%"
               height="100%"
               style="stroke-width:1.42857" />
          </g>
          <g
             style="fill:#000000;fill-opacity:1;stroke-width:1.42857"
             id="g13115">
            <use
               xlink:href="#symbol4601"
               x="91.925003"
               y="81.962997"
               id="use13113"
               width="100%"
               height="100%"
               style="stroke-width:1.42857" />
          </g>
          <g
             style="fill:#000000;fill-opacity:1;stroke-width:1.42857"
             id="g13119">
            <use
               xlink:href="#symbol853"
               x="96.570999"
               y="83.457001"
               id="use13117"
               width="100%"
               height="100%"
               style="stroke-width:1.42857" />
          </g>
        </g>
      </g>
      <text
         xml:space="preserve"
         style="font-style:normal;font-variant:normal;font-weight:normal;font-stretch:normal;font-size:4.93889px;line-height:1.25;font-family:'Asana Math';-inkscape-font-specification:'Asana Math';letter-spacing:0px;word-spacing:0px;stroke-width:0.264583"
         x="73.313568"
         y="70.746513"
         id="text13127"><tspan
           sodipodi:role="line"
           id="tspan13125"
           style="font-style:normal;font-variant:normal;font-weight:normal;font-stretch:normal;font-size:4.93889px;font-family:'Asana Math';-inkscape-font-specification:'Asana Math';stroke-width:0.264583"
           x="73.313568"
           y="70.746513">=0</tspan></text>
    </g>
    <g
       inkscape:label=""
       transform="matrix(0.7,0,0,0.7,-17.830732,-26.99304)"
       id="g13625"
       style="stroke-width:1.42857">
      <g
         id="g7188"
         style="stroke-width:1.42857">
        <g
           style="fill:#000000;fill-opacity:1;stroke-width:1.42857"
           id="g4986">
          <use
             xlink:href="#symbol7732"
             x="91.925003"
             y="81.962997"
             id="use5685"
             width="100%"
             height="100%"
             style="stroke-width:1.42857" />
        </g>
        <g
           style="fill:#000000;fill-opacity:1;stroke-width:1.42857"
           id="g6009">
          <use
             xlink:href="#symbol4261"
             x="97.617996"
             y="83.457001"
             id="use9690"
             width="100%"
             height="100%"
             style="stroke-width:1.42857" />
        </g>
      </g>
    </g>
  </g>
</svg>
