<?xml version="1.0" encoding="UTF-8" standalone="no"?>
<!-- Created with Inkscape (http://www.inkscape.org/) -->

<svg
   version="1.1"
   id="svg1"
   width="480"
   height="336"
   viewBox="0 0 480 336"
   sodipodi:docname="TriaxCycles_tochnog_igsNorm_unload+reload_defense.svg"
   inkscape:version="1.4.2 (1:1.4.2+202505120737+ebf0e940d0)"
   xmlns:inkscape="http://www.inkscape.org/namespaces/inkscape"
   xmlns:sodipodi="http://sodipodi.sourceforge.net/DTD/sodipodi-0.dtd"
   xmlns="http://www.w3.org/2000/svg"
   xmlns:svg="http://www.w3.org/2000/svg">
  <defs
     id="defs1" />
  <sodipodi:namedview
     id="namedview1"
     pagecolor="#ffffff"
     bordercolor="#cccccc"
     borderopacity="1"
     inkscape:showpageshadow="0"
     inkscape:pageopacity="1"
     inkscape:pagecheckerboard="0"
     inkscape:deskcolor="#d1d1d1"
     inkscape:zoom="1.7067369"
     inkscape:cx="231.72874"
     inkscape:cy="170.79375"
     inkscape:window-width="1920"
     inkscape:window-height="1033"
     inkscape:window-x="0"
     inkscape:window-y="24"
     inkscape:window-maximized="1"
     inkscape:current-layer="g1">
    <inkscape:page
       x="0"
       y="0"
       inkscape:label="1"
       id="page1"
       width="480"
       height="336"
       margin="0"
       bleed="0" />
  </sodipodi:namedview>
  <g
     id="g1"
     inkscape:groupmode="layer"
     inkscape:label="1">
    <path
       id="path1"
       d="m 612.5,525 h 2762"
       style="fill:none;stroke:#000000;stroke-width:0.625;stroke-linecap:butt;stroke-linejoin:miter;stroke-miterlimit:3.8;stroke-dasharray:5, 10;stroke-dashoffset:0;stroke-opacity:1"
       transform="matrix(0.13333333,0,0,-0.13333333,0,336)" />
    <path
       id="path2"
       d="M 612.5,525 H 644 m 2730.5,0 H 3343"
       style="fill:none;stroke:#000000;stroke-width:2.5;stroke-linecap:butt;stroke-linejoin:miter;stroke-miterlimit:3.8;stroke-dasharray:none;stroke-opacity:1"
       transform="matrix(0.13333333,0,0,-0.13333333,0,336)" />
    <path
       id="path3"
       d="M 3.5519531,-3.9011281 H 0.57539062 v 0.9023437 H 3.5519531 Z m 6.9374999,2.8125 H 5.8253906 c 0.1171875,-0.75 0.515625,-1.21875 1.59375,-1.8867188 l 1.2539063,-0.703125 c 1.2421875,-0.6796875 1.8750001,-1.6054687 1.8750001,-2.71875 0,-0.75 -0.292969,-1.453125 -0.8203126,-1.9453125 -0.5273438,-0.46875 -1.171875,-0.6914062 -2.015625,-0.6914062 -1.125,0 -1.9570313,0.3984375 -2.4492188,1.171875 -0.3164062,0.46875 -0.4570312,1.03125 -0.4804687,1.9453125 h 1.1015625 c 0.035156,-0.609375 0.1171875,-0.9726563 0.2695312,-1.2773438 0.28125,-0.5390625 0.8554688,-0.8789062 1.5234375,-0.8789062 0.9960938,0 1.7460938,0.7265625 1.7460938,1.6992187 0,0.7265625 -0.4101563,1.3476563 -1.1953125,1.7929688 l -1.1484375,0.6796875 c -1.8515625,1.0664062 -2.390625,1.9101562 -2.4960938,3.89062497 h 5.9062499 z m 0,0"
       style="fill:#000000;fill-opacity:1;fill-rule:nonzero;stroke:none"
       aria-label="-2"
       transform="matrix(1.3333333,0,0,1.3333333,56.85,271.55307)" />
    <path
       id="path4"
       d="m 612.5,758.5 h 2762"
       style="fill:none;stroke:#000000;stroke-width:0.625;stroke-linecap:butt;stroke-linejoin:miter;stroke-miterlimit:3.8;stroke-dasharray:5, 10;stroke-dashoffset:0;stroke-opacity:1"
       transform="matrix(0.13333333,0,0,-0.13333333,0,336)" />
    <path
       id="path5"
       d="M 612.5,758.5 H 644 m 2730.5,0 H 3343"
       style="fill:none;stroke:#000000;stroke-width:2.5;stroke-linecap:butt;stroke-linejoin:miter;stroke-miterlimit:3.8;stroke-dasharray:none;stroke-opacity:1"
       transform="matrix(0.13333333,0,0,-0.13333333,0,336)" />
    <path
       id="path6"
       d="M 3.5501953,-3.9036672 H 0.57363281 v 0.9023438 H 3.5501953 Z M 7.396875,-6.4466359 v 6.44531246 H 8.4984375 V -9.0364797 H 7.771875 c -0.3867188,1.3828125 -0.6328125,1.5703125 -2.3320313,1.7929688 v 0.796875 z m 6.105469,5.1445312 h -1.300782 v 1.30078126 h 1.300782 z m 7.037109,-7.5703125 h -4.582031 l -0.65625,4.828125 h 1.007812 c 0.515625,-0.609375 0.9375,-0.8203125 1.640625,-0.8203125 1.183594,0 1.921875,0.8085938 1.921875,2.1210938 0,1.2773437 -0.738281,2.05078121 -1.933593,2.05078121 -0.960938,0 -1.546875,-0.48046871 -1.816407,-1.48828121 h -1.101562 c 0.152344,0.7265625 0.28125,1.078125 0.539062,1.40624996 0.503907,0.66796875 1.40625,1.06640625 2.402344,1.06640625 1.792969,0 3.035156,-1.30078121 3.035156,-3.17578121 0,-1.7578125 -1.160156,-2.953125 -2.859375,-2.953125 -0.621093,0 -1.125,0.1640625 -1.640625,0.5390625 l 0.351563,-2.484375 h 3.691406 z m 0,0"
       style="fill:#000000;fill-opacity:1;fill-rule:nonzero;stroke:none"
       aria-label="-1.5"
       transform="matrix(1.3333333,0,0,1.3333333,42.95,240.41973)" />
    <path
       id="path7"
       d="m 612.5,992.5 h 2762"
       style="fill:none;stroke:#000000;stroke-width:0.625;stroke-linecap:butt;stroke-linejoin:miter;stroke-miterlimit:3.8;stroke-dasharray:5, 10;stroke-dashoffset:0;stroke-opacity:1"
       transform="matrix(0.13333333,0,0,-0.13333333,0,336)" />
    <path
       id="path8"
       d="M 612.5,992.5 H 644 m 2730.5,0 H 3343"
       style="fill:none;stroke:#000000;stroke-width:2.5;stroke-linecap:butt;stroke-linejoin:miter;stroke-miterlimit:3.8;stroke-dasharray:none;stroke-opacity:1"
       transform="matrix(0.13333333,0,0,-0.13333333,0,336)" />
    <path
       id="path9"
       d="M 3.5519531,-3.9030813 H 0.57539062 v 0.9023438 H 3.5519531 Z M 7.3957031,-6.44605 V -7.375e-4 H 8.4972656 V -9.0358938 H 7.7707031 C 7.3839844,-7.6530813 7.1378906,-7.4655813 5.4386719,-7.242925 v 0.796875 z m 0,0"
       style="fill:#000000;fill-opacity:1;fill-rule:nonzero;stroke:none"
       aria-label="-1"
       transform="matrix(1.3333333,0,0,1.3333333,56.85,209.21973)" />
    <path
       id="path10"
       d="m 612.5,1226 h 2762"
       style="fill:none;stroke:#000000;stroke-width:0.625;stroke-linecap:butt;stroke-linejoin:miter;stroke-miterlimit:3.8;stroke-dasharray:5, 10;stroke-dashoffset:0;stroke-opacity:1"
       transform="matrix(0.13333333,0,0,-0.13333333,0,336)" />
    <path
       id="path11"
       d="M 612.5,1226 H 644 m 2730.5,0 H 3343"
       style="fill:none;stroke:#000000;stroke-width:2.5;stroke-linecap:butt;stroke-linejoin:miter;stroke-miterlimit:3.8;stroke-dasharray:none;stroke-opacity:1"
       transform="matrix(0.13333333,0,0,-0.13333333,0,336)" />
    <path
       id="path12"
       d="M 3.5501953,-3.9028906 H 0.57363281 v 0.9023437 H 3.5501953 Z m 4.0458984,-5.1328125 c -0.8203125,0 -1.5703125,0.375 -2.0273437,0.984375 -0.5859375,0.796875 -0.8671875,2.0039062 -0.8671875,3.6796875 0,3.046875 0.9960937,4.66406248 2.8945312,4.66406248 1.875,0 2.9062503,-1.61718748 2.9062503,-4.59374998 0,-1.7460938 -0.28125,-2.9296875 -0.8671878,-3.75 -0.4570312,-0.6210938 -1.1953125,-0.984375 -2.0390625,-0.984375 z m 0,0.9726562 c 1.1953125,0 1.78125,1.2070313 1.78125,3.65625 0,2.578125 -0.5742187,3.78515628 -1.8046875,3.78515628 -1.1601562,0 -1.7460937,-1.25390628 -1.7460937,-3.73828128 0,-2.4960937 0.5859375,-3.703125 1.7695312,-3.703125 z m 5.9062503,6.7617188 h -1.300782 v 1.300781225 h 1.300782 z m 7.037109,-7.5703125 h -4.582031 l -0.65625,4.828125 h 1.007812 c 0.515625,-0.609375 0.9375,-0.8203125 1.640625,-0.8203125 1.183594,0 1.921875,0.8085937 1.921875,2.1210937 0,1.2773438 -0.738281,2.05078128 -1.933593,2.05078128 -0.960938,0 -1.546875,-0.48046878 -1.816407,-1.48828128 h -1.101562 c 0.152344,0.7265625 0.28125,1.078125 0.539062,1.40625003 0.503907,0.66796875 1.40625,1.06640625 2.402344,1.06640625 1.792969,0 3.035156,-1.30078128 3.035156,-3.17578128 0,-1.7578125 -1.160156,-2.953125 -2.859375,-2.953125 -0.621093,0 -1.125,0.1640625 -1.640625,0.5390625 l 0.351563,-2.484375 h 3.691406 z m 0,0"
       style="fill:#000000;fill-opacity:1;fill-rule:nonzero;stroke:none"
       aria-label="-0.5"
       transform="matrix(1.3333333,0,0,1.3333333,42.95,178.08667)" />
    <path
       id="path13"
       d="m 612.5,1460 h 2762"
       style="fill:none;stroke:#000000;stroke-width:0.625;stroke-linecap:butt;stroke-linejoin:miter;stroke-miterlimit:3.8;stroke-dasharray:5, 10;stroke-dashoffset:0;stroke-opacity:1"
       transform="matrix(0.13333333,0,0,-0.13333333,0,336)" />
    <path
       id="path14"
       d="M 612.5,1460 H 644 m 2730.5,0 H 3343"
       style="fill:none;stroke:#000000;stroke-width:2.5;stroke-linecap:butt;stroke-linejoin:miter;stroke-miterlimit:3.8;stroke-dasharray:none;stroke-opacity:1"
       transform="matrix(0.13333333,0,0,-0.13333333,0,336)" />
    <path
       id="path15"
       d="m 6.9074219,-9.0351172 c -0.8203125,0 -1.5703125,0.375 -2.0273438,0.984375 -0.5859375,0.796875 -0.8671875,2.0039063 -0.8671875,3.6796875 0,3.046875 0.9960938,4.66406251 2.8945313,4.66406251 1.875,0 2.90625,-1.61718751 2.90625,-4.59375001 0,-1.7460937 -0.28125,-2.9296875 -0.8671875,-3.75 -0.4570313,-0.6210937 -1.1953125,-0.984375 -2.0390625,-0.984375 z m 0,0.9726563 c 1.1953125,0 1.78125,1.2070312 1.78125,3.65625 0,2.578125 -0.5742188,3.78515621 -1.8046875,3.78515621 -1.1601563,0 -1.7460938,-1.25390621 -1.7460938,-3.73828121 0,-2.4960938 0.5859375,-3.703125 1.7695313,-3.703125 z m 0,0"
       style="fill:#000000;fill-opacity:1;fill-rule:nonzero;stroke:none"
       aria-label=" 0"
       transform="matrix(1.3333333,0,0,1.3333333,57.766667,146.88667)" />
    <path
       id="path16"
       d="m 612.5,1693.5 h 2762"
       style="fill:none;stroke:#000000;stroke-width:0.625;stroke-linecap:butt;stroke-linejoin:miter;stroke-miterlimit:3.8;stroke-dasharray:5, 10;stroke-dashoffset:0;stroke-opacity:1"
       transform="matrix(0.13333333,0,0,-0.13333333,0,336)" />
    <path
       id="path17"
       d="M 612.5,1693.5 H 644 m 2730.5,0 H 3343"
       style="fill:none;stroke:#000000;stroke-width:2.5;stroke-linecap:butt;stroke-linejoin:miter;stroke-miterlimit:3.8;stroke-dasharray:none;stroke-opacity:1"
       transform="matrix(0.13333333,0,0,-0.13333333,0,336)" />
    <path
       id="path18"
       d="m 6.9085938,-9.0347266 c -0.8203125,0 -1.5703125,0.375 -2.0273438,0.984375 -0.5859375,0.796875 -0.8671875,2.0039063 -0.8671875,3.6796875 0,3.046875 0.9960938,4.66406254 2.8945313,4.66406254 1.875,0 2.90625,-1.61718754 2.90625,-4.59375004 0,-1.7460937 -0.28125,-2.9296875 -0.8671875,-3.75 -0.4570313,-0.6210937 -1.1953125,-0.984375 -2.0390625,-0.984375 z m 0,0.9726563 c 1.1953125,0 1.78125,1.2070312 1.78125,3.65625 0,2.578125 -0.5742188,3.78515624 -1.8046875,3.78515624 -1.1601563,0 -1.7460938,-1.25390624 -1.7460938,-3.73828124 0,-2.4960938 0.5859375,-3.703125 1.7695313,-3.703125 z m 5.9062502,6.7617187 H 11.514063 V 4.296875e-4 h 1.300781 z m 7.037109,-7.5703125 h -4.582031 l -0.65625,4.828125 h 1.007812 c 0.515625,-0.609375 0.9375,-0.8203125 1.640625,-0.8203125 1.183594,0 1.921875,0.8085938 1.921875,2.1210938 0,1.2773437 -0.738281,2.05078124 -1.933593,2.05078124 -0.960938,0 -1.546875,-0.48046874 -1.816407,-1.48828124 h -1.101562 c 0.152344,0.7265625 0.28125,1.078125 0.539062,1.40624999 0.503907,0.66796875 1.40625,1.06640625 2.402344,1.06640625 1.792969,0 3.035156,-1.30078124 3.035156,-3.17578124 0,-1.7578125 -1.160156,-2.953125 -2.859375,-2.953125 -0.621093,0 -1.125,0.1640625 -1.640625,0.5390625 l 0.351563,-2.484375 h 3.691406 z m 0,0"
       style="fill:#000000;fill-opacity:1;fill-rule:nonzero;stroke:none"
       aria-label=" 0.5"
       transform="matrix(1.3333333,0,0,1.3333333,43.866667,115.75333)" />
    <path
       id="path19"
       d="m 612.5,1927 h 75 m 1006.5,0 h 1680.5"
       style="fill:none;stroke:#000000;stroke-width:0.625;stroke-linecap:butt;stroke-linejoin:miter;stroke-miterlimit:3.8;stroke-dasharray:5, 10;stroke-dashoffset:0;stroke-opacity:1"
       transform="matrix(0.13333333,0,0,-0.13333333,0,336)" />
    <path
       id="path20"
       d="M 612.5,1927 H 644 m 2730.5,0 H 3343"
       style="fill:none;stroke:#000000;stroke-width:2.5;stroke-linecap:butt;stroke-linejoin:miter;stroke-miterlimit:3.8;stroke-dasharray:none;stroke-opacity:1"
       transform="matrix(0.13333333,0,0,-0.13333333,0,336)" />
    <path
       id="path21"
       d="M 6.7082031,-6.4444922 V 8.203125e-4 H 7.8097656 V -9.0343359 H 7.0832031 c -0.3867187,1.3828125 -0.6328125,1.5703125 -2.3320312,1.7929687 v 0.796875 z m 0,0"
       style="fill:#000000;fill-opacity:1;fill-rule:nonzero;stroke:none"
       aria-label=" 1"
       transform="matrix(1.3333333,0,0,1.3333333,57.766667,84.62)" />
    <path
       id="path22"
       d="m 612.5,2161 h 75 m 1006.5,0 h 1680.5"
       style="fill:none;stroke:#000000;stroke-width:0.625;stroke-linecap:butt;stroke-linejoin:miter;stroke-miterlimit:3.8;stroke-dasharray:5, 10;stroke-dashoffset:0;stroke-opacity:1"
       transform="matrix(0.13333333,0,0,-0.13333333,0,336)" />
    <path
       id="path23"
       d="M 612.5,2161 H 644 m 2730.5,0 H 3343"
       style="fill:none;stroke:#000000;stroke-width:2.5;stroke-linecap:butt;stroke-linejoin:miter;stroke-miterlimit:3.8;stroke-dasharray:none;stroke-opacity:1"
       transform="matrix(0.13333333,0,0,-0.13333333,0,336)" />
    <path
       id="path24"
       d="M 6.709375,-6.4439063 V 0.00140625 H 7.8109375 V -9.03375 H 7.084375 c -0.3867187,1.3828125 -0.6328125,1.5703125 -2.3320312,1.7929687 v 0.796875 z m 6.105469,5.1445313 h -1.300781 v 1.30078125 h 1.300781 z m 7.037109,-7.5703125 h -4.582031 l -0.65625,4.828125 h 1.007812 c 0.515625,-0.609375 0.9375,-0.8203125 1.640625,-0.8203125 1.183594,0 1.921875,0.8085937 1.921875,2.1210937 0,1.2773438 -0.738281,2.0507813 -1.933593,2.0507813 -0.960938,0 -1.546875,-0.4804688 -1.816407,-1.4882813 h -1.101562 c 0.152344,0.7265625 0.28125,1.078125 0.539062,1.40625005 0.503907,0.66796875 1.40625,1.06640625 2.402344,1.06640625 1.792969,0 3.035156,-1.3007813 3.035156,-3.1757813 0,-1.7578125 -1.160156,-2.953125 -2.859375,-2.953125 -0.621093,0 -1.125,0.1640625 -1.640625,0.5390625 l 0.351563,-2.484375 h 3.691406 z m 0,0"
       style="fill:#000000;fill-opacity:1;fill-rule:nonzero;stroke:none"
       aria-label=" 1.5"
       transform="matrix(1.3333333,0,0,1.3333333,43.866667,53.42)" />
    <path
       id="path25"
       d="m 612.5,2394.5 h 2762"
       style="fill:none;stroke:#000000;stroke-width:0.625;stroke-linecap:butt;stroke-linejoin:miter;stroke-miterlimit:3.8;stroke-dasharray:5, 10;stroke-dashoffset:0;stroke-opacity:1"
       transform="matrix(0.13333333,0,0,-0.13333333,0,336)" />
    <path
       id="path26"
       d="M 612.5,2394.5 H 644 m 2730.5,0 H 3343"
       style="fill:none;stroke:#000000;stroke-width:2.5;stroke-linecap:butt;stroke-linejoin:miter;stroke-miterlimit:3.8;stroke-dasharray:none;stroke-opacity:1"
       transform="matrix(0.13333333,0,0,-0.13333333,0,336)" />
    <path
       id="path27"
       d="M 9.8019531,-1.0909766 H 5.1378906 c 0.1171875,-0.75 0.515625,-1.21875 1.59375,-1.8867187 l 1.2539063,-0.703125 c 1.2421875,-0.6796875 1.875,-1.6054688 1.875,-2.71875 0,-0.75 -0.2929688,-1.453125 -0.8203125,-1.9453125 -0.5273438,-0.46875 -1.171875,-0.6914063 -2.015625,-0.6914063 -1.125,0 -1.9570313,0.3984375 -2.4492188,1.171875 -0.3164062,0.46875 -0.4570312,1.03125 -0.4804687,1.9453125 h 1.1015625 c 0.035156,-0.609375 0.1171875,-0.9726562 0.2695312,-1.2773437 0.28125,-0.5390625 0.8554688,-0.8789063 1.5234375,-0.8789063 0.9960938,0 1.7460938,0.7265625 1.7460938,1.6992188 0,0.7265625 -0.4101563,1.3476562 -1.1953125,1.7929687 l -1.1484375,0.6796875 c -1.8515625,1.0664063 -2.390625,1.9101563 -2.4960938,3.89062504 h 5.90625 z m 0,0"
       style="fill:#000000;fill-opacity:1;fill-rule:nonzero;stroke:none"
       aria-label=" 2"
       transform="matrix(1.3333333,0,0,1.3333333,57.766667,22.286667)" />
    <path
       id="path28"
       d="M 612.5,525 V 2394.5"
       style="fill:none;stroke:#000000;stroke-width:0.625;stroke-linecap:butt;stroke-linejoin:miter;stroke-miterlimit:3.8;stroke-dasharray:5, 10;stroke-dashoffset:0;stroke-opacity:1"
       transform="matrix(0.13333333,0,0,-0.13333333,0,336)" />
    <path
       id="path29"
       d="m 612.5,525 v 31.5 m 0,1838 V 2363"
       style="fill:none;stroke:#000000;stroke-width:2.5;stroke-linecap:butt;stroke-linejoin:miter;stroke-miterlimit:3.8;stroke-dasharray:none;stroke-opacity:1"
       transform="matrix(0.13333333,0,0,-0.13333333,0,336)" />
    <path
       id="path30"
       d="M 3.5509266,-3.9030813 H 0.57436406 v 0.9023438 H 3.5509266 Z M 7.3976063,-6.44605 V -7.375e-4 H 8.4991688 V -9.0358938 H 7.7726063 C 7.3858875,-7.6530813 7.1397938,-7.4655813 5.440575,-7.242925 v 0.796875 z m 6.1054687,5.1445312 h -1.300781 v 1.3007813 h 1.300781 z m 7.037109,-7.5703125 h -4.582031 l -0.65625,4.828125 h 1.007813 c 0.515625,-0.609375 0.9375,-0.8203125 1.640625,-0.8203125 1.183593,0 1.921875,0.8085938 1.921875,2.1210938 0,1.2773437 -0.738282,2.05078125 -1.933594,2.05078125 -0.960938,0 -1.546875,-0.48046875 -1.816406,-1.48828125 h -1.101563 c 0.152344,0.7265625 0.28125,1.078125 0.539063,1.40625 0.503906,0.66796875 1.40625,1.06640625 2.402343,1.06640625 1.792969,0 3.035157,-1.30078125 3.035157,-3.17578125 0,-1.7578125 -1.160157,-2.953125 -2.859375,-2.953125 -0.621094,0 -1.125,0.1640625 -1.640625,0.5390625 l 0.351562,-2.484375 h 3.691406 z m 0,0"
       style="fill:#000000;fill-opacity:1;fill-rule:nonzero;stroke:none"
       aria-label="-1.5"
       transform="matrix(1.3333333,0,0,1.3333333,67.3084,288.21973)" />
    <path
       id="path31"
       d="m 1073,525 v 1338 m 0,500 v 31.5"
       style="fill:none;stroke:#000000;stroke-width:0.625;stroke-linecap:butt;stroke-linejoin:miter;stroke-miterlimit:3.8;stroke-dasharray:5, 10;stroke-dashoffset:0;stroke-opacity:1"
       transform="matrix(0.13333333,0,0,-0.13333333,0,336)" />
    <path
       id="path32"
       d="m 1073,525 v 31.5 m 0,1838 V 2363"
       style="fill:none;stroke:#000000;stroke-width:2.5;stroke-linecap:butt;stroke-linejoin:miter;stroke-miterlimit:3.8;stroke-dasharray:none;stroke-opacity:1"
       transform="matrix(0.13333333,0,0,-0.13333333,0,336)" />
    <path
       id="path33"
       d="M 3.5518984,-3.9030813 H 0.57533594 v 0.9023438 H 3.5518984 Z M 7.3956484,-6.44605 V -7.375e-4 H 8.4972109 V -9.0358938 H 7.7706484 C 7.3839297,-7.6530813 7.1378359,-7.4655813 5.4386172,-7.242925 v 0.796875 z m 0,0"
       style="fill:#000000;fill-opacity:1;fill-rule:nonzero;stroke:none"
       aria-label="-1"
       transform="matrix(1.3333333,0,0,1.3333333,135.65867,288.21973)" />
    <path
       id="path34"
       d="m 1533,525 v 1338 m 0,500 v 31.5"
       style="fill:none;stroke:#000000;stroke-width:0.625;stroke-linecap:butt;stroke-linejoin:miter;stroke-miterlimit:3.8;stroke-dasharray:5, 10;stroke-dashoffset:0;stroke-opacity:1"
       transform="matrix(0.13333333,0,0,-0.13333333,0,336)" />
    <path
       id="path35"
       d="m 1533,525 v 31.5 m 0,1838 V 2363"
       style="fill:none;stroke:#000000;stroke-width:2.5;stroke-linecap:butt;stroke-linejoin:miter;stroke-miterlimit:3.8;stroke-dasharray:none;stroke-opacity:1"
       transform="matrix(0.13333333,0,0,-0.13333333,0,336)" />
    <path
       id="path36"
       d="M 3.5520078,-3.9030813 H 0.57544531 v 0.9023438 H 3.5520078 Z m 4.0429688,-5.1328125 c -0.8203125,0 -1.5703125,0.375 -2.0273438,0.984375 -0.5859375,0.796875 -0.8671875,2.0039063 -0.8671875,3.6796875 0,3.046875 0.9960938,4.66406255 2.8945313,4.66406255 1.875,0 2.9062504,-1.61718755 2.9062504,-4.59375005 0,-1.7460937 -0.28125,-2.9296875 -0.8671879,-3.75 -0.4570313,-0.6210937 -1.1953125,-0.984375 -2.0390625,-0.984375 z m 0,0.9726563 c 1.1953125,0 1.78125,1.2070312 1.78125,3.65625 0,2.578125 -0.5742188,3.78515625 -1.8046875,3.78515625 -1.1601563,0 -1.7460938,-1.25390625 -1.7460938,-3.73828125 0,-2.4960938 0.5859375,-3.703125 1.7695313,-3.703125 z m 5.9091794,6.7617187 h -1.300781 v 1.3007813 h 1.300781 z m 7.03711,-7.5703125 h -4.582032 l -0.65625,4.828125 h 1.007813 c 0.515625,-0.609375 0.9375,-0.8203125 1.640625,-0.8203125 1.183594,0 1.921875,0.8085938 1.921875,2.1210938 0,1.2773437 -0.738281,2.05078125 -1.933594,2.05078125 -0.960937,0 -1.546875,-0.48046875 -1.816406,-1.48828125 h -1.101563 c 0.152344,0.7265625 0.28125,1.078125 0.539063,1.40625 0.503906,0.66796875 1.40625,1.06640625 2.402344,1.06640625 1.792968,0 3.035156,-1.30078125 3.035156,-3.17578125 0,-1.7578125 -1.160156,-2.953125 -2.859375,-2.953125 -0.621094,0 -1.125,0.1640625 -1.640625,0.5390625 l 0.351562,-2.484375 h 3.691407 z m 0,0"
       style="fill:#000000;fill-opacity:1;fill-rule:nonzero;stroke:none"
       aria-label="-0.5"
       transform="matrix(1.3333333,0,0,1.3333333,190.04133,288.21973)" />
    <path
       id="path37"
       d="M 1993.5,525 V 2394.5"
       style="fill:none;stroke:#000000;stroke-width:0.625;stroke-linecap:butt;stroke-linejoin:miter;stroke-miterlimit:3.8;stroke-dasharray:5, 10;stroke-dashoffset:0;stroke-opacity:1"
       transform="matrix(0.13333333,0,0,-0.13333333,0,336)" />
    <path
       id="path38"
       d="m 1993.5,525 v 31.5 m 0,1838 V 2363"
       style="fill:none;stroke:#000000;stroke-width:2.5;stroke-linecap:butt;stroke-linejoin:miter;stroke-miterlimit:3.8;stroke-dasharray:none;stroke-opacity:1"
       transform="matrix(0.13333333,0,0,-0.13333333,0,336)" />
    <path
       id="path39"
       d="m 6.908875,-9.0358938 c -0.8203125,0 -1.5703125,0.375 -2.0273437,0.984375 -0.5859375,0.796875 -0.8671875,2.0039063 -0.8671875,3.6796875 0,3.046875 0.9960937,4.66406255 2.8945312,4.66406255 1.875,0 2.90625,-1.61718755 2.90625,-4.59375005 0,-1.7460937 -0.28125,-2.9296875 -0.8671875,-3.75 C 8.4909063,-8.6726125 7.752625,-9.0358938 6.908875,-9.0358938 Z m 0,0.9726563 c 1.1953125,0 1.78125,1.2070312 1.78125,3.65625 0,2.578125 -0.5742187,3.78515625 -1.8046875,3.78515625 -1.1601562,0 -1.7460937,-1.25390625 -1.7460937,-3.73828125 0,-2.4960938 0.5859375,-3.703125 1.7695312,-3.703125 z m 0,0"
       style="fill:#000000;fill-opacity:1;fill-rule:nonzero;stroke:none"
       aria-label=" 0"
       transform="matrix(1.3333333,0,0,1.3333333,258.85067,288.21973)" />
    <path
       id="path40"
       d="M 2454,525 V 2394.5"
       style="fill:none;stroke:#000000;stroke-width:0.625;stroke-linecap:butt;stroke-linejoin:miter;stroke-miterlimit:3.8;stroke-dasharray:5, 10;stroke-dashoffset:0;stroke-opacity:1"
       transform="matrix(0.13333333,0,0,-0.13333333,0,336)" />
    <path
       id="path41"
       d="m 2454,525 v 31.5 m 0,1838 V 2363"
       style="fill:none;stroke:#000000;stroke-width:2.5;stroke-linecap:butt;stroke-linejoin:miter;stroke-miterlimit:3.8;stroke-dasharray:none;stroke-opacity:1"
       transform="matrix(0.13333333,0,0,-0.13333333,0,336)" />
    <path
       id="path42"
       d="m 6.9087891,-9.0358938 c -0.8203125,0 -1.5703125,0.375 -2.0273438,0.984375 -0.5859375,0.796875 -0.8671875,2.0039063 -0.8671875,3.6796875 0,3.046875 0.9960938,4.66406255 2.8945313,4.66406255 1.875,0 2.90625,-1.61718755 2.90625,-4.59375005 0,-1.7460937 -0.28125,-2.9296875 -0.8671875,-3.75 -0.4570313,-0.6210937 -1.1953125,-0.984375 -2.0390625,-0.984375 z m 0,0.9726563 c 1.1953125,0 1.78125,1.2070312 1.78125,3.65625 0,2.578125 -0.5742188,3.78515625 -1.8046875,3.78515625 -1.1601563,0 -1.7460938,-1.25390625 -1.7460938,-3.73828125 0,-2.4960938 0.5859375,-3.703125 1.7695313,-3.703125 z m 5.9062499,6.7617187 h -1.300781 v 1.3007813 h 1.300781 z m 7.037109,-7.5703125 h -4.582031 l -0.65625,4.828125 h 1.007813 c 0.515625,-0.609375 0.9375,-0.8203125 1.640625,-0.8203125 1.183593,0 1.921875,0.8085938 1.921875,2.1210938 0,1.2773437 -0.738282,2.05078125 -1.933594,2.05078125 -0.960938,0 -1.546875,-0.48046875 -1.816406,-1.48828125 h -1.101563 c 0.152344,0.7265625 0.28125,1.078125 0.539063,1.40625 0.503906,0.66796875 1.40625,1.06640625 2.402343,1.06640625 1.792969,0 3.035157,-1.30078125 3.035157,-3.17578125 0,-1.7578125 -1.160157,-2.953125 -2.859375,-2.953125 -0.621094,0 -1.125,0.1640625 -1.640625,0.5390625 l 0.351562,-2.484375 h 3.691406 z m 0,0"
       style="fill:#000000;fill-opacity:1;fill-rule:nonzero;stroke:none"
       aria-label=" 0.5"
       transform="matrix(1.3333333,0,0,1.3333333,313.3,288.21973)" />
    <path
       id="path43"
       d="M 2914,525 V 2394.5"
       style="fill:none;stroke:#000000;stroke-width:0.625;stroke-linecap:butt;stroke-linejoin:miter;stroke-miterlimit:3.8;stroke-dasharray:5, 10;stroke-dashoffset:0;stroke-opacity:1"
       transform="matrix(0.13333333,0,0,-0.13333333,0,336)" />
    <path
       id="path44"
       d="m 2914,525 v 31.5 m 0,1838 V 2363"
       style="fill:none;stroke:#000000;stroke-width:2.5;stroke-linecap:butt;stroke-linejoin:miter;stroke-miterlimit:3.8;stroke-dasharray:none;stroke-opacity:1"
       transform="matrix(0.13333333,0,0,-0.13333333,0,336)" />
    <path
       id="path45"
       d="M 6.7104375,-6.44605 V -7.375e-4 H 7.812 V -9.0358938 H 7.0854375 C 6.6987188,-7.6530813 6.452625,-7.4655813 4.7534063,-7.242925 v 0.796875 z m 0,0"
       style="fill:#000000;fill-opacity:1;fill-rule:nonzero;stroke:none"
       aria-label=" 1"
       transform="matrix(1.3333333,0,0,1.3333333,381.584,288.21973)" />
    <path
       id="path46"
       d="M 3374.5,525 V 2394.5"
       style="fill:none;stroke:#000000;stroke-width:0.625;stroke-linecap:butt;stroke-linejoin:miter;stroke-miterlimit:3.8;stroke-dasharray:5, 10;stroke-dashoffset:0;stroke-opacity:1"
       transform="matrix(0.13333333,0,0,-0.13333333,0,336)" />
    <path
       id="path47"
       d="m 3374.5,525 v 31.5 m 0,1838 V 2363"
       style="fill:none;stroke:#000000;stroke-width:2.5;stroke-linecap:butt;stroke-linejoin:miter;stroke-miterlimit:3.8;stroke-dasharray:none;stroke-opacity:1"
       transform="matrix(0.13333333,0,0,-0.13333333,0,336)" />
    <path
       id="path48"
       d="M 6.7103516,-6.44605 V -7.375e-4 H 7.8119141 V -9.0358938 H 7.0853516 C 6.6986328,-7.6530813 6.4525391,-7.4655813 4.7533203,-7.242925 v 0.796875 z m 6.1054684,5.1445312 h -1.300781 v 1.3007813 h 1.300781 z m 7.03711,-7.5703125 h -4.582032 l -0.65625,4.828125 h 1.007813 c 0.515625,-0.609375 0.9375,-0.8203125 1.640625,-0.8203125 1.183594,0 1.921875,0.8085938 1.921875,2.1210938 0,1.2773437 -0.738281,2.05078125 -1.933594,2.05078125 -0.960937,0 -1.546875,-0.48046875 -1.816406,-1.48828125 h -1.101563 c 0.152344,0.7265625 0.28125,1.078125 0.539063,1.40625 0.503906,0.66796875 1.40625,1.06640625 2.402344,1.06640625 1.792968,0 3.035156,-1.30078125 3.035156,-3.17578125 0,-1.7578125 -1.160156,-2.953125 -2.859375,-2.953125 -0.621094,0 -1.125,0.1640625 -1.640625,0.5390625 l 0.351562,-2.484375 h 3.691407 z m 0,0"
       style="fill:#000000;fill-opacity:1;fill-rule:nonzero;stroke:none"
       aria-label=" 1.5"
       transform="matrix(1.3333333,0,0,1.3333333,436.03333,288.21973)" />
    <path
       id="path49"
       d="M 612.5,2394.5 V 525 h 2762 v 1869.5 z"
       style="fill:none;stroke:#000000;stroke-width:5;stroke-linecap:butt;stroke-linejoin:miter;stroke-miterlimit:3.8;stroke-dasharray:none;stroke-opacity:1"
       transform="matrix(0.13333333,0,0,-0.13333333,0,336)" />
    <path
       id="path50"
       d="M 6.0230469,-0.00113281 V -6.5519141 h -1.03125 v 3.7148438 c 0,1.3359375 -0.703125,2.21484374 -1.7929688,2.21484374 -0.8203125,0 -1.3476562,-0.50390624 -1.3476562,-1.28906254 v -4.640625 H 0.80820313 v 5.0507813 c 0,1.08984374 0.82031247,1.79296874 2.09765627,1.79296874 0.9609375,0 1.5703125,-0.33984375 2.1796875,-1.20703125 v 0.9140625 z M 7.8277344,-6.5519141 v 6.55078129 H 8.8707031 V -3.6105078 c 0,-1.3476563 0.703125,-2.2148438 1.7812499,-2.2148438 0.820313,0 1.347656,0.4921875 1.347656,1.2890625 v 4.53515629 h 1.042969 V -4.9581641 c 0,-1.078125 -0.820312,-1.78125 -2.074219,-1.78125 -0.9843746,0 -1.6054684,0.375 -2.1796871,1.2890625 v -1.1015625 z m 7.9716796,-2.5664062 h -1.042969 v 9.11718749 h 1.042969 z m 4.274414,2.3789062 c -1.851562,0 -2.953125,1.3125 -2.953125,3.515625 0,2.2148438 1.101563,3.51562504 2.964844,3.51562504 1.851562,0 2.964844,-1.31250004 2.964844,-3.46875004 0,-2.2734375 -1.078125,-3.5625 -2.976563,-3.5625 z m 0.01172,0.9609375 c 1.183594,0 1.875,0.9609375 1.875,2.5898438 0,1.546875 -0.726563,2.50781249 -1.875,2.50781249 -1.160156,0 -1.875,-0.96093749 -1.875,-2.54296879 0,-1.59375 0.714844,-2.5546875 1.875,-2.5546875 z m 10.230469,5.16796879 c -0.117188,0.0234375 -0.164063,0.0234375 -0.222657,0.0234375 -0.363281,0 -0.5625,-0.1875 -0.5625,-0.51562499 v -3.8554688 c 0,-1.1601562 -0.855468,-1.78125 -2.472656,-1.78125 -0.960937,0 -1.722656,0.2695313 -2.167969,0.7617188 -0.304687,0.3398437 -0.433593,0.7148437 -0.457031,1.359375 h 1.054688 c 0.08203,-0.796875 0.5625,-1.1601563 1.535156,-1.1601563 0.949219,0 1.464844,0.3515625 1.464844,0.9726563 v 0.28125 c -0.01172,0.4453125 -0.234375,0.609375 -1.089844,0.7265625 -1.476563,0.1875 -1.699219,0.234375 -2.097656,0.3984375 -0.761719,0.328125 -1.148438,0.9023437 -1.148438,1.7460937 0,1.19531254 0.820313,1.94531254 2.144531,1.94531254 0.832032,0 1.488282,-0.29296875 2.226563,-0.97265625 0.08203,0.6796875 0.398437,0.97265625 1.078125,0.97265625 0.222656,0 0.363281,-0.0351563 0.714844,-0.1171875 z M 28.487891,-2.0636328 c 0,0.3515625 -0.09375,0.5625 -0.410157,0.8554687 -0.421875,0.38671879 -0.9375,0.58593754 -1.546875,0.58593754 -0.820312,0 -1.289062,-0.38671874 -1.289062,-1.05468754 0,-0.6914062 0.445312,-1.0429687 1.570312,-1.1953125 1.113282,-0.1523437 1.324219,-0.1992187 1.675782,-0.3632812 z m 8.273437,-7.0546875 h -1.03125 v 3.3867187 c -0.445312,-0.65625 -1.136719,-1.0078125 -2.015625,-1.0078125 -1.699219,0 -2.8125,1.359375 -2.8125,3.4453125 0,2.2148438 1.078125,3.58593754 2.847656,3.58593754 0.902344,0 1.523438,-0.33984375 2.085938,-1.16015625 v 0.8671875 h 0.925781 z m -2.871094,3.3515625 c 1.125,0 1.839844,0.984375 1.839844,2.5664062 0,1.5117188 -0.726562,2.50781254 -1.828125,2.50781254 -1.148437,0 -1.910156,-1.00781254 -1.910156,-2.53125004 0,-1.5234375 0.761719,-2.5429687 1.898437,-2.5429687 z m 5.510743,-0.7851563 h -1.042969 v 6.55078129 h 1.042969 z m 0,-2.5664062 h -1.054688 v 1.3125 h 1.054688 z m 1.77832,2.5664062 v 6.55078129 h 1.042969 V -3.6105078 c 0,-1.3476563 0.703125,-2.2148438 1.78125,-2.2148438 0.820312,0 1.347656,0.4921875 1.347656,1.2890625 v 4.53515629 h 1.042969 V -4.9581641 c 0,-1.078125 -0.820313,-1.78125 -2.074219,-1.78125 -0.984375,0 -1.605469,0.375 -2.179688,1.2890625 v -1.1015625 z m 11.121094,0 v 0.9492188 c -0.527344,-0.7851563 -1.101563,-1.1367188 -1.921875,-1.1367188 -1.59375,0 -2.695313,1.4765625 -2.695313,3.5742188 0,1.1015625 0.269531,1.8984375 0.832031,2.56640624 0.480469,0.57421875 1.113282,0.890625 1.78125,0.890625 0.796875,0 1.359375,-0.3515625 1.910157,-1.18359375 v 0.33984375 c 0,1.74609376 -0.492188,2.40234376 -1.792969,2.40234376 -0.890625,0 -1.347656,-0.3515625 -1.453125,-1.10156251 h -1.066406 c 0.105468,1.21875001 1.066406,1.98046871 2.496093,1.98046871 0.960938,0 1.757813,-0.3164062 2.191407,-0.84375 0.492187,-0.609375 0.679687,-1.42968746 0.679687,-2.9648437 v -5.4726563 z m -1.828125,0.7734375 c 1.101562,0 1.734375,0.9257813 1.734375,2.5898438 0,1.5820312 -0.644532,2.50781249 -1.734375,2.50781249 -1.066407,0 -1.699219,-0.93749999 -1.699219,-2.54296879 0,-1.6054687 0.632812,-2.5546875 1.699219,-2.5546875 z m 5.645507,62.3291016 v 6.550781 h 1.042969 v -3.398437 c 0.01172,-1.582032 0.667969,-2.273438 2.109375,-2.238282 v -1.066406 c -0.175781,-0.02344 -0.28125,-0.03516 -0.410156,-0.03516 -0.667969,0 -1.183594,0.398437 -1.78125,1.371094 v -1.183594 z m 9.706055,3.621094 c 0,-0.996094 -0.07031,-1.59375 -0.257812,-2.085938 -0.421875,-1.078125 -1.429688,-1.722656 -2.648438,-1.722656 -1.828125,0 -3,1.382812 -3,3.550781 0,2.167969 1.125,3.480469 2.976563,3.480469 1.5,0 2.53125,-0.855469 2.800781,-2.285156 h -1.054688 c -0.292968,0.867187 -0.878906,1.3125 -1.710937,1.3125 -0.667969,0 -1.230469,-0.292969 -1.582031,-0.84375 -0.246094,-0.375 -0.328125,-0.75 -0.339844,-1.40625 z m -4.792969,-0.84375 c 0.08203,-1.21875 0.820313,-2.003907 1.875,-2.003907 1.054688,0 1.792969,0.820313 1.792969,2.003907 z m 7.230469,-5.34375 h -1.042969 v 9.117187 h 1.042969 z m 4.274414,2.378906 c -1.851562,0 -2.953125,1.3125 -2.953125,3.515625 0,2.214844 1.101563,3.515625 2.964844,3.515625 1.851562,0 2.964844,-1.3125 2.964844,-3.46875 0,-2.273438 -1.078125,-3.5625 -2.976563,-3.5625 z m 0.01172,0.960937 c 1.183594,0 1.875,0.960938 1.875,2.589844 0,1.546875 -0.726563,2.507813 -1.875,2.507813 -1.160156,0 -1.875,-0.960938 -1.875,-2.542969 0,-1.59375 0.714844,-2.554688 1.875,-2.554688 z m 10.230469,5.167969 c -0.117188,0.02344 -0.164063,0.02344 -0.222657,0.02344 -0.363281,0 -0.5625,-0.1875 -0.5625,-0.515625 v -3.855469 c 0,-1.160156 -0.855468,-1.78125 -2.472656,-1.78125 -0.960937,0 -1.722656,0.269531 -2.167969,0.761719 -0.304687,0.339843 -0.433593,0.714843 -0.457031,1.359375 h 1.054688 c 0.08203,-0.796875 0.5625,-1.160157 1.535156,-1.160157 0.949219,0 1.464844,0.351563 1.464844,0.972657 v 0.28125 c -0.01172,0.445312 -0.234375,0.609375 -1.089844,0.726562 -1.476563,0.1875 -1.699219,0.234375 -2.097656,0.398438 -0.761719,0.328125 -1.148438,0.902343 -1.148438,1.746093 0,1.195313 0.820313,1.945313 2.144531,1.945313 0.832032,0 1.488282,-0.292969 2.226563,-0.972656 0.08203,0.679687 0.398437,0.972656 1.078125,0.972656 0.222656,0 0.363281,-0.03516 0.714844,-0.117188 z m -1.828125,-1.453125 c 0,0.351563 -0.09375,0.5625 -0.410157,0.855469 -0.421875,0.386719 -0.9375,0.585937 -1.546875,0.585937 -0.820312,0 -1.289062,-0.386718 -1.289062,-1.054687 0,-0.691406 0.445312,-1.042969 1.570312,-1.195313 1.113282,-0.152343 1.324219,-0.199218 1.675782,-0.363281 z m 8.276367,-7.054687 h -1.03125 v 3.386718 c -0.445313,-0.65625 -1.136719,-1.007812 -2.015625,-1.007812 -1.699219,0 -2.8125,1.359375 -2.8125,3.445312 0,2.214844 1.078125,3.585938 2.847656,3.585938 0.902344,0 1.523438,-0.339844 2.085938,-1.160156 v 0.867187 h 0.925781 z m -2.871094,3.351562 c 1.125,0 1.839844,0.984375 1.839844,2.566406 0,1.511719 -0.726563,2.507813 -1.828125,2.507813 -1.148438,0 -1.910156,-1.007813 -1.910156,-2.53125 0,-1.523438 0.761718,-2.542969 1.898437,-2.542969 z m 5.507813,-0.785156 h -1.042969 v 6.550781 h 1.042969 z m 0,-2.566406 h -1.054688 v 1.3125 h 1.054688 z m 1.77832,2.566406 v 6.550781 h 1.042969 v -3.609375 c 0,-1.347656 0.703125,-2.214844 1.78125,-2.214844 0.820312,0 1.347656,0.492188 1.347656,1.289063 v 4.535156 h 1.042969 v -4.957031 c 0,-1.078125 -0.820313,-1.78125 -2.074219,-1.78125 -0.984375,0 -1.605469,0.375 -2.179688,1.289062 v -1.101562 z m 11.121088,0 v 0.949219 c -0.52734,-0.785157 -1.10156,-1.136719 -1.92187,-1.136719 -1.59375,0 -2.69531,1.476562 -2.69531,3.574219 0,1.101562 0.26953,1.898437 0.83203,2.566406 0.48047,0.574219 1.11328,0.890625 1.78125,0.890625 0.79687,0 1.35937,-0.351563 1.91015,-1.183594 v 0.339844 c 0,1.746094 -0.49218,2.402344 -1.79296,2.402344 -0.89063,0 -1.34766,-0.351563 -1.45313,-1.101563 h -1.06641 c 0.10547,1.21875 1.06641,1.980469 2.4961,1.980469 0.96094,0 1.75781,-0.316406 2.1914,-0.84375 0.49219,-0.609375 0.67969,-1.429688 0.67969,-2.964844 v -5.472656 z m -1.82812,0.773437 c 1.10156,0 1.73437,0.925782 1.73437,2.589844 0,1.582031 -0.64453,2.507813 -1.73437,2.507813 -1.06641,0 -1.69922,-0.9375 -1.69922,-2.542969 0,-1.605469 0.63281,-2.554688 1.69922,-2.554688 z m 0,0"
       style="fill:#000000;fill-opacity:1;fill-rule:nonzero;stroke:none"
       aria-label="unloading&#10;reloading"
       transform="matrix(1.3333333,0,0,1.3333333,192.13333,103.28667)" />
    <path
       id="path51"
       d="m 1593.5,1709.5 -60.5,-16 60.5,-16 m 400,16 H 1533"
       style="fill:none;stroke:#000000;stroke-width:5;stroke-linecap:butt;stroke-linejoin:miter;stroke-miterlimit:3.8;stroke-dasharray:none;stroke-opacity:1"
       transform="matrix(0.13333333,0,0,-0.13333333,0,336)" />
    <path
       id="path52"
       d="m 1593.5,1709.5 -60.5,-16 60.5,-16"
       style="fill:none;stroke:#000000;stroke-width:5;stroke-linecap:butt;stroke-linejoin:miter;stroke-miterlimit:3.8;stroke-dasharray:none;stroke-opacity:1"
       transform="matrix(0.13333333,0,0,-0.13333333,0,336)" />
    <path
       id="path53"
       d="m 2393.5,1210 60.5,16 -60.5,16 m -400,-16 H 2454"
       style="fill:none;stroke:#000000;stroke-width:5;stroke-linecap:butt;stroke-linejoin:miter;stroke-miterlimit:3.8;stroke-dasharray:none;stroke-opacity:1"
       transform="matrix(0.13333333,0,0,-0.13333333,0,336)" />
    <path
       id="path54"
       d="m 2393.5,1210 60.5,16 -60.5,16"
       style="fill:none;stroke:#000000;stroke-width:5;stroke-linecap:butt;stroke-linejoin:miter;stroke-miterlimit:3.8;stroke-dasharray:none;stroke-opacity:1"
       transform="matrix(0.13333333,0,0,-0.13333333,0,336)" />
    <g
       id="g54"
       aria-label="∆&#10; sgn(&#10;δ&#10;1&#10;)*&#10;ρ&#10; [-]"
       transform="matrix(0,-1.3333333,1.3333333,0,18.8864,193.164)">
      <path
         id="path55"
         d="M 0.07026563,2.390625e-4 4.0897969,-8.5896047 7.6054219,2.390625e-4 Z M 0.96089063,-0.63257344 H 5.9882344 L 3.6210469,-6.3630422 Z m 0,0"
         style="fill:#000000;fill-opacity:1;fill-rule:nonzero;stroke:none" />
      <path
         id="path56"
         d="m 16.596633,-4.7224172 c -0.01172,-1.2890625 -0.855469,-2.015625 -2.367188,-2.015625 -1.535156,0 -2.519531,0.7851563 -2.519531,2.0039063 0,1.0195312 0.527344,1.5117187 2.074219,1.8867187 l 0.972656,0.234375 c 0.726563,0.1757813 1.019531,0.4335938 1.019531,0.9023438 0,0.6210937 -0.609375,1.03124996 -1.523437,1.03124996 -0.5625,0 -1.042969,-0.15234375 -1.300781,-0.43359376 -0.164063,-0.1875 -0.234375,-0.375 -0.304688,-0.8320312 h -1.101562 c 0.05859,1.51171871 0.902343,2.23828121 2.613281,2.23828121 1.652344,0 2.707031,-0.8203125 2.707031,-2.08593751 0,-0.9726562 -0.550781,-1.5117187 -1.851562,-1.8164062 l -1.007813,-0.2460938 c -0.84375,-0.1992187 -1.207031,-0.46875 -1.207031,-0.9375 0,-0.609375 0.539062,-0.984375 1.382812,-0.984375 0.84375,0 1.289063,0.3632813 1.3125,1.0546875 z m 5.830078,-1.828125 v 0.9492188 c -0.527344,-0.7851563 -1.101563,-1.1367188 -1.921875,-1.1367188 -1.59375,0 -2.695313,1.4765625 -2.695313,3.5742188 0,1.1015625 0.269532,1.8984375 0.832032,2.56640621 0.480468,0.57421875 1.113281,0.890625 1.78125,0.890625 0.796875,0 1.359375,-0.3515625 1.910156,-1.18359375 v 0.33984375 c 0,1.74609379 -0.492188,2.40234379 -1.792969,2.40234379 -0.890625,0 -1.347656,-0.3515625 -1.453125,-1.10156254 h -1.066406 c 0.105469,1.21875004 1.066406,1.98046874 2.496094,1.98046874 0.960937,0 1.757812,-0.3164062 2.191406,-0.84375 0.492187,-0.609375 0.679687,-1.42968749 0.679687,-2.9648437 v -5.4726563 z m -1.828125,0.7734375 c 1.101562,0 1.734375,0.9257813 1.734375,2.5898438 0,1.5820312 -0.644531,2.50781246 -1.734375,2.50781246 -1.066406,0 -1.699219,-0.93749996 -1.699219,-2.54296876 0,-1.6054687 0.632813,-2.5546875 1.699219,-2.5546875 z m 4.605469,-0.7734375 V 2.390625e-4 h 1.042968 V -3.6091359 c 0,-1.3476563 0.703125,-2.2148438 1.78125,-2.2148438 0.820313,0 1.347657,0.4921875 1.347657,1.2890625 V 2.390625e-4 h 1.042968 V -4.9567922 c 0,-1.078125 -0.820312,-1.78125 -2.074218,-1.78125 -0.984375,0 -1.605469,0.375 -2.179688,1.2890625 v -1.1015625 z m 9.023437,-2.5664062 c -1.253906,1.640625 -2.039062,3.9140625 -2.039062,5.8828125 0,1.96875 0.785156,4.2421875 2.039062,5.8828125 h 0.679688 c -1.089844,-1.78125004 -1.710938,-3.890625 -1.710938,-5.8828125 0,-1.9921875 0.621094,-4.1015625 1.710938,-5.8828125 z m 0,0"
         style="fill:#000000;fill-opacity:1;fill-rule:nonzero;stroke:none" />
      <path
         id="path57"
         d="m 38.636672,-5.5544484 -1.21875,-1.1367188 c -0.5625,-0.5273437 -0.773438,-0.8554687 -0.773438,-1.3242187 0,-0.7617188 0.726563,-1.2421875 1.898438,-1.2421875 1.324219,0 2.414062,0.5507812 2.414062,1.2421875 0,0.3046875 -0.257812,0.5273437 -0.597656,0.5273437 -0.269531,0 -0.492187,-0.1289062 -0.867187,-0.5039062 l -0.128907,-0.140625 c -0.457031,-0.4570313 -0.726562,-0.5976563 -1.183593,-0.5976563 -0.503907,0 -0.902344,0.328125 -0.902344,0.7382813 0,0.2695312 0.246094,0.5859375 0.738281,0.9609375 0.234375,0.1875 0.433594,0.3164062 0.890625,0.5859375 0.691406,0.421875 0.9375,0.5859375 1.183594,0.796875 0.902344,0.75 1.359375,1.6757812 1.359375,2.7421875 0,0.8554687 -0.269531,1.5351562 -0.855469,2.14453121 -0.609375,0.62109375 -1.277344,0.92578125 -2.027344,0.92578125 -1.441406,0 -2.625,-1.24218746 -2.625,-2.73046876 0,-0.9375 0.46875,-1.8046875 1.300782,-2.3671875 0.363281,-0.2578125 0.75,-0.421875 1.394531,-0.6210937 z m 0.351562,0.328125 c -1.136718,0.2460937 -1.699218,1.0429687 -1.699218,2.390625 0,1.4296875 0.597656,2.41406246 1.476562,2.41406246 0.878906,0 1.464844,-0.83203126 1.464844,-2.06249996 0,-0.703125 -0.1875,-1.3710938 -0.539063,-1.921875 -0.140625,-0.2109375 -0.292968,-0.4101563 -0.46875,-0.5976563 -0.03516,-0.035156 -0.07031,-0.070312 -0.128906,-0.140625 -0.08203,-0.058594 -0.09375,-0.082031 -0.105469,-0.082031 z m 0,0"
         style="fill:#000000;fill-opacity:1;fill-rule:nonzero;stroke:none" />
      <path
         id="path58"
         d="m 44.847609,-2.6950734 v 6.4453125 h 1.101563 v -9.0351563 h -0.726563 c -0.386718,1.3828125 -0.632812,1.5703125 -2.332031,1.7929688 v 0.796875 z m 3.486329,5.34375 C 49.587844,1.0080516 50.373,-1.2653859 50.373,-3.2224172 c 0,-1.9804687 -0.785156,-4.2539062 -2.039062,-5.8945312 H 47.65425 c 1.089844,1.7929687 1.710938,3.890625 1.710938,5.8945312 0,1.9804688 -0.621094,4.10156251 -1.710938,5.8710938 z m 5.003906,-11.765625 0.05859,1.40625 -1.324219,-0.4804688 -0.234375,0.7382813 1.347656,0.375 -0.867187,1.1132812 0.632812,0.4453125 0.785156,-1.1601562 0.773438,1.1601562 0.632812,-0.4453125 -0.867187,-1.1132812 1.347656,-0.375 -0.234375,-0.7382813 -1.324219,0.4804688 0.05859,-1.40625 z m 0,0"
         style="fill:#000000;fill-opacity:1;fill-rule:nonzero;stroke:none" />
      <path
         id="path59"
         d="M 58.072219,-0.57397969 V 1.6057078 c -0.01172,0.703125 -0.01172,0.7617188 -0.07031,1.1484375 h -1.183593 c 0.105468,-0.4335937 0.128906,-0.7382812 0.128906,-1.2539062 v -4.8984375 c 0,-0.890625 0.117187,-1.3242188 0.457031,-1.7578125 0.328125,-0.3984375 0.761719,-0.7617188 1.230469,-1.0195313 0.304687,-0.1757812 0.574219,-0.234375 0.984375,-0.234375 1.570312,0 2.707031,1.3007813 2.707031,3.0703125 0,1.875 -1.300781,3.50390626 -2.789062,3.50390626 -0.621094,0 -1.136719,-0.26953125 -1.464844,-0.73828125 z m -0.07031,-3.45703121 0.07031,2.0976562 v 0.140625 c 0.01172,0.3164063 0.07031,0.5039063 0.246094,0.7265625 0.292968,0.38671876 0.714843,0.62109376 1.136718,0.62109376 1.03125,0 1.722657,-0.91406246 1.722657,-2.27343746 0,-1.59375 -0.996094,-2.9414063 -2.179688,-2.9414063 -0.574219,0 -0.996094,0.5976563 -0.996094,1.3945313 0,0.035156 0,0.1523437 0,0.234375 z m 0,0"
         style="fill:#000000;fill-opacity:1;fill-rule:nonzero;stroke:none" />
      <path
         id="path60"
         d="m 69.664992,-9.1169484 h -2.332031 v 11.765625 h 2.332031 V 1.7463328 H 68.37593 v -9.9609375 h 1.289062 z m 3.896485,5.2148437 h -2.976563 v 0.9023438 h 2.976563 z m 0.905273,6.5507813 h 2.320313 V -9.1169484 H 74.46675 v 0.9023437 h 1.277344 V 1.7463328 H 74.46675 Z m 0,0"
         style="fill:#000000;fill-opacity:1;fill-rule:nonzero;stroke:none" />
    </g>
    <g
       id="g60"
       aria-label="Change of axial strain ∆ ε&#10;1&#10; * 10&#10;-3&#10; [-]&#10;cycle 1"
       transform="matrix(1.3333333,0,0,1.3333333,135.31733,313.21973)">
      <path
         id="path61"
         d="M 8.2727422,-6.2937063 C 7.9094609,-8.2858938 6.7610234,-9.2702688 4.7688359,-9.2702688 c -1.2304687,0 -2.2148437,0.3867188 -2.8945312,1.1367188 -0.8203125,0.9023437 -1.27734376,2.203125 -1.27734376,3.6796875 0,1.5 0.46874996,2.7890625 1.31249996,3.6796875 0.7148438,0.7265625 1.6171875,1.06640625 2.8007813,1.06640625 2.2265625,0 3.4804687,-1.20703125 3.75,-3.62109375 H 7.2649297 C 7.1594609,-2.69605 7.0422734,-2.274175 6.8547734,-1.9108938 c -0.375,0.75 -1.1484375,1.17187505 -2.1328125,1.17187505 -1.8046875,0 -2.9648437,-1.45312505 -2.9648437,-3.72656255 0,-2.3320312 1.0898437,-3.7734375 2.8710937,-3.7734375 0.7382813,0 1.4179688,0.2109375 1.7929688,0.5742188 0.3398437,0.3164062 0.5273437,0.6914062 0.6679687,1.3710937 z M 9.9045781,-9.117925 v 9.1171875 h 1.0312499 v -3.609375 c 0,-1.3476563 0.703125,-2.2148438 1.78125,-2.2148438 0.351563,0 0.667969,0.09375 0.925781,0.28125 0.292969,0.234375 0.421875,0.5390625 0.421875,1.0078125 v 4.5351563 h 1.042969 v -4.9570313 c 0,-1.0898437 -0.796875,-1.78125 -2.0625,-1.78125 -0.925781,0 -1.488281,0.28125 -2.109375,1.0898438 v -3.46875 z m 12.7617189,8.5078125 c -0.117188,0.0234375 -0.164063,0.0234375 -0.222656,0.0234375 -0.363282,0 -0.5625,-0.1875 -0.5625,-0.515625 v -3.8554688 c 0,-1.1601562 -0.855469,-1.78125 -2.472657,-1.78125 -0.960937,0 -1.722656,0.2695313 -2.167968,0.7617188 -0.304688,0.3398437 -0.433594,0.7148437 -0.457032,1.359375 h 1.054688 c 0.08203,-0.796875 0.5625,-1.1601563 1.535156,-1.1601563 0.949219,0 1.464844,0.3515625 1.464844,0.9726563 v 0.28125 c -0.01172,0.4453125 -0.234375,0.609375 -1.089844,0.7265625 -1.476562,0.1875 -1.699219,0.234375 -2.097656,0.3984375 -0.761719,0.328125 -1.148438,0.9023437 -1.148438,1.7460937 0,1.19531255 0.820313,1.94531255 2.144532,1.94531255 0.832031,0 1.488281,-0.29296875 2.226562,-0.97265625 0.08203,0.6796875 0.398438,0.97265625 1.078125,0.97265625 0.222656,0 0.363281,-0.0351563 0.714844,-0.1171875 z m -1.828125,-1.453125 c 0,0.3515625 -0.09375,0.5625 -0.410156,0.8554687 -0.421875,0.3867188 -0.9375,0.58593755 -1.546875,0.58593755 -0.820313,0 -1.289063,-0.38671875 -1.289063,-1.05468755 0,-0.6914062 0.445313,-1.0429687 1.570313,-1.1953125 1.113281,-0.1523437 1.324218,-0.1992187 1.675781,-0.3632812 z m 2.964844,-4.4882813 v 6.5507813 h 1.042968 v -3.609375 c 0,-1.3476563 0.703125,-2.2148438 1.78125,-2.2148438 0.820313,0 1.347657,0.4921875 1.347657,1.2890625 v 4.5351563 h 1.042968 v -4.9570313 c 0,-1.078125 -0.820312,-1.78125 -2.074218,-1.78125 -0.984375,0 -1.605469,0.375 -2.179688,1.2890625 v -1.1015625 z m 11.124023,0 V -5.6023 c -0.527344,-0.7851563 -1.101562,-1.1367188 -1.921875,-1.1367188 -1.59375,0 -2.695312,1.4765625 -2.695312,3.5742188 0,1.1015625 0.269531,1.8984375 0.832031,2.56640625 0.480469,0.57421875 1.113281,0.890625 1.78125,0.890625 0.796875,0 1.359375,-0.3515625 1.910156,-1.18359375 v 0.33984375 c 0,1.74609375 -0.492187,2.40234375 -1.792969,2.40234375 -0.890625,0 -1.347656,-0.3515625 -1.453125,-1.1015625 h -1.066406 c 0.105469,1.21875 1.066406,1.9804687 2.496094,1.9804687 0.960937,0 1.757812,-0.3164062 2.191406,-0.84375 0.492188,-0.609375 0.679688,-1.42968745 0.679688,-2.9648437 v -5.4726563 z m -1.828125,0.7734375 c 1.101563,0 1.734375,0.9257813 1.734375,2.5898438 0,1.5820312 -0.644531,2.5078125 -1.734375,2.5078125 -1.066406,0 -1.699219,-0.9375 -1.699219,-2.5429688 0,-1.6054687 0.632813,-2.5546875 1.699219,-2.5546875 z m 10.136719,2.8476563 c 0,-0.9960938 -0.07031,-1.59375 -0.257813,-2.0859375 -0.421875,-1.078125 -1.429687,-1.7226563 -2.648437,-1.7226563 -1.828125,0 -3,1.3828125 -3,3.5507813 0,2.1679687 1.125,3.48046875 2.976562,3.48046875 1.5,0 2.53125,-0.85546875 2.800782,-2.28515625 h -1.054688 c -0.292969,0.8671875 -0.878906,1.3125 -1.710937,1.3125 -0.667969,0 -1.230469,-0.29296875 -1.582032,-0.84375 -0.246093,-0.375 -0.328125,-0.75 -0.339843,-1.40625 z m -4.792969,-0.84375 c 0.08203,-1.21875 0.820313,-2.0039063 1.875,-2.0039063 1.054688,0 1.792969,0.8203125 1.792969,2.0039063 z m 12.205078,-2.9648438 c -1.851562,0 -2.953125,1.3125 -2.953125,3.515625 0,2.2148438 1.101563,3.51562505 2.964844,3.51562505 1.851562,0 2.964844,-1.31250005 2.964844,-3.46875005 0,-2.2734375 -1.078125,-3.5625 -2.976563,-3.5625 z m 0.01172,0.9609375 c 1.183594,0 1.875,0.9609375 1.875,2.5898438 0,1.546875 -0.726563,2.5078125 -1.875,2.5078125 -1.160156,0 -1.875,-0.9609375 -1.875,-2.5429688 0,-1.59375 0.714844,-2.5546875 1.875,-2.5546875 z m 6.764648,-0.7734375 h -1.089843 v -1.03125 c 0,-0.4335937 0.246093,-0.65625 0.726562,-0.65625 0.09375,0 0.128906,0 0.363281,0.011719 v -0.8671875 c -0.234375,-0.046875 -0.375,-0.058594 -0.585937,-0.058594 -0.960938,0 -1.535156,0.5507813 -1.535156,1.4882813 v 1.1132812 H 54.42411 v 0.84375 h 0.878907 v 5.7070313 h 1.03125 v -5.7070313 h 1.089843 z m 10.417969,5.9414063 c -0.117187,0.0234375 -0.164062,0.0234375 -0.222656,0.0234375 -0.363281,0 -0.5625,-0.1875 -0.5625,-0.515625 v -3.8554688 c 0,-1.1601562 -0.855469,-1.78125 -2.472656,-1.78125 -0.960938,0 -1.722657,0.2695313 -2.167969,0.7617188 -0.304688,0.3398437 -0.433594,0.7148437 -0.457031,1.359375 h 1.054687 c 0.08203,-0.796875 0.5625,-1.1601563 1.535156,-1.1601563 0.949219,0 1.464844,0.3515625 1.464844,0.9726563 v 0.28125 c -0.01172,0.4453125 -0.234375,0.609375 -1.089844,0.7265625 -1.476562,0.1875 -1.699218,0.234375 -2.097656,0.3984375 -0.761719,0.328125 -1.148437,0.9023437 -1.148437,1.7460937 0,1.19531255 0.820312,1.94531255 2.144531,1.94531255 0.832031,0 1.488281,-0.29296875 2.226562,-0.97265625 0.08203,0.6796875 0.398438,0.97265625 1.078125,0.97265625 0.222657,0 0.363282,-0.0351563 0.714844,-0.1171875 z m -1.828125,-1.453125 c 0,0.3515625 -0.09375,0.5625 -0.410156,0.8554687 -0.421875,0.3867188 -0.9375,0.58593755 -1.546875,0.58593755 -0.820313,0 -1.289063,-0.38671875 -1.289063,-1.05468755 0,-0.6914062 0.445313,-1.0429687 1.570313,-1.1953125 1.113281,-0.1523437 1.324219,-0.1992187 1.675781,-0.3632812 z m 5.742188,-1.3242188 2.191406,-3.1640625 h -1.171875 l -1.570313,2.3789063 -1.582031,-2.3789063 h -1.183594 l 2.191407,3.2109375 -2.320313,3.3398438 h 1.195313 L 71.158485,-2.50855 72.79911,-7.375e-4 h 1.21875 z m 4.467773,-3.1640625 h -1.042969 v 6.5507813 h 1.042969 z m 0,-2.5664062 h -1.054687 v 1.3125 h 1.054687 z m 7.59375,8.5078125 c -0.117187,0.0234375 -0.164062,0.0234375 -0.222656,0.0234375 -0.363281,0 -0.5625,-0.1875 -0.5625,-0.515625 v -3.8554688 c 0,-1.1601562 -0.855469,-1.78125 -2.472656,-1.78125 -0.960938,0 -1.722657,0.2695313 -2.167969,0.7617188 -0.304688,0.3398437 -0.433594,0.7148437 -0.457031,1.359375 h 1.054687 c 0.08203,-0.796875 0.5625,-1.1601563 1.535156,-1.1601563 0.949219,0 1.464844,0.3515625 1.464844,0.9726563 v 0.28125 c -0.01172,0.4453125 -0.234375,0.609375 -1.089844,0.7265625 -1.476562,0.1875 -1.699218,0.234375 -2.097656,0.3984375 -0.761719,0.328125 -1.148437,0.9023437 -1.148437,1.7460937 0,1.19531255 0.820312,1.94531255 2.144531,1.94531255 0.832031,0 1.488281,-0.29296875 2.226562,-0.97265625 0.08203,0.6796875 0.398438,0.97265625 1.078125,0.97265625 0.222657,0 0.363282,-0.0351563 0.714844,-0.1171875 z m -1.828125,-1.453125 c 0,0.3515625 -0.09375,0.5625 -0.410156,0.8554687 -0.421875,0.3867188 -0.9375,0.58593755 -1.546875,0.58593755 -0.820313,0 -1.289063,-0.38671875 -1.289063,-1.05468755 0,-0.6914062 0.445313,-1.0429687 1.570313,-1.1953125 1.113281,-0.1523437 1.324219,-0.1992187 1.675781,-0.3632812 z m 3.984375,-7.0546875 h -1.042969 v 9.1171875 h 1.042969 z m 9.823242,4.3945312 c -0.01172,-1.2890625 -0.855469,-2.015625 -2.367187,-2.015625 -1.535157,0 -2.519532,0.7851563 -2.519532,2.0039063 0,1.0195312 0.527344,1.5117187 2.074219,1.8867187 l 0.972656,0.234375 c 0.726563,0.1757813 1.019532,0.4335938 1.019532,0.9023438 0,0.6210937 -0.609375,1.03125 -1.523438,1.03125 -0.5625,0 -1.042969,-0.15234375 -1.300781,-0.4335938 -0.164063,-0.1875 -0.234375,-0.375 -0.304688,-0.8320312 h -1.101562 c 0.05859,1.51171875 0.902344,2.23828125 2.613281,2.23828125 1.652344,0 2.707031,-0.8203125 2.707031,-2.08593755 0,-0.9726562 -0.550781,-1.5117187 -1.851562,-1.8164062 l -1.007813,-0.2460938 c -0.84375,-0.1992187 -1.207031,-0.46875 -1.207031,-0.9375 0,-0.609375 0.539063,-0.984375 1.382813,-0.984375 0.84375,0 1.289062,0.3632813 1.3125,1.0546875 z m 3.955078,-1.828125 H 98.67411 v -1.8046875 h -1.03125 v 1.8046875 h -0.890625 v 0.84375 h 0.890625 v 4.9570313 c 0,0.6796875 0.445313,1.04296875 1.253907,1.04296875 0.28125,0 0.503906,-0.0351563 0.855468,-0.09375 V -0.680425 c -0.152343,0.046875 -0.292968,0.0585938 -0.503906,0.0585938 -0.445312,0 -0.574219,-0.12890625 -0.574219,-0.5859375 v -4.5 h 1.078125 z m 1.166015,0 v 6.5507813 h 1.04297 V -3.399175 c 0.0117,-1.5820313 0.66797,-2.2734375 2.10937,-2.2382813 v -1.0664062 c -0.17578,-0.023437 -0.28125,-0.035156 -0.41015,-0.035156 -0.66797,0 -1.1836,0.3984375 -1.78125,1.3710938 v -1.1835938 z m 9.98438,5.9414063 c -0.11719,0.0234375 -0.16407,0.0234375 -0.22266,0.0234375 -0.36328,0 -0.5625,-0.1875 -0.5625,-0.515625 v -3.8554688 c 0,-1.1601562 -0.85547,-1.78125 -2.47266,-1.78125 -0.96093,0 -1.72265,0.2695313 -2.16797,0.7617188 -0.30468,0.3398437 -0.43359,0.7148437 -0.45703,1.359375 h 1.05469 c 0.082,-0.796875 0.5625,-1.1601563 1.53516,-1.1601563 0.94922,0 1.46484,0.3515625 1.46484,0.9726563 v 0.28125 c -0.0117,0.4453125 -0.23437,0.609375 -1.08984,0.7265625 -1.47657,0.1875 -1.69922,0.234375 -2.09766,0.3984375 -0.76172,0.328125 -1.14844,0.9023437 -1.14844,1.7460937 0,1.19531255 0.82032,1.94531255 2.14453,1.94531255 0.83204,0 1.48829,-0.29296875 2.22657,-0.97265625 0.082,0.6796875 0.39843,0.97265625 1.07812,0.97265625 0.22266,0 0.36328,-0.0351563 0.71485,-0.1171875 z m -1.82813,-1.453125 c 0,0.3515625 -0.0937,0.5625 -0.41016,0.8554687 -0.42187,0.3867188 -0.9375,0.58593755 -1.54687,0.58593755 -0.82031,0 -1.28906,-0.38671875 -1.28906,-1.05468755 0,-0.6914062 0.44531,-1.0429687 1.57031,-1.1953125 1.11328,-0.1523437 1.32422,-0.1992187 1.67578,-0.3632812 z m 3.96387,-4.4882813 h -1.04297 v 6.5507813 h 1.04297 z m 0,-2.5664062 h -1.05469 v 1.3125 h 1.05469 z m 1.77832,2.5664062 v 6.5507813 h 1.04297 v -3.609375 c 0,-1.3476563 0.70312,-2.2148438 1.78125,-2.2148438 0.82031,0 1.34765,0.4921875 1.34765,1.2890625 v 4.5351563 h 1.04297 v -4.9570313 c 0,-1.078125 -0.82031,-1.78125 -2.07422,-1.78125 -0.98437,0 -1.60547,0.375 -2.17968,1.2890625 v -1.1015625 z m 0,0"
         style="fill:#000000;fill-opacity:1;fill-rule:nonzero;stroke:none" />
      <path
         id="path62"
         d="m 124.43192,-7.375e-4 4.01953,-8.5898438 3.51563,8.5898438 z m 0.89063,-0.6328125 h 5.02734 l -2.36719,-5.7304688 z m 0,0"
         style="fill:#000000;fill-opacity:1;fill-rule:nonzero;stroke:none" />
      <path
         id="path63"
         d=""
         style="fill:#000000;fill-opacity:1;fill-rule:nonzero;stroke:none" />
      <path
         id="path64"
         d="m 137.11454,-3.25855 c -0.38672,-0.1875 -0.50391,-0.2578125 -0.67969,-0.3632813 -0.3164,-0.234375 -0.5039,-0.6210937 -0.5039,-1.03125 0,-0.46875 0.22265,-0.84375 0.66796,-1.1953125 0.49219,-0.3867187 1.05469,-0.5625 1.85157,-0.5625 1.17187,0 2.01562,0.46875 2.01562,1.1484375 0,0.3515625 -0.28125,0.6210938 -0.60937,0.6210938 -0.28125,0 -0.51563,-0.2109375 -0.63282,-0.5390625 l -0.0469,-0.1171875 -0.0234,-0.082031 -0.0352,-0.082031 c -0.10547,-0.3164063 -0.44532,-0.515625 -0.83204,-0.515625 -0.66796,0 -1.18359,0.5859375 -1.18359,1.3359375 0,0.6796875 0.42188,1.1132812 1.04297,1.1132812 0.082,0 0.17578,0 0.29297,-0.011719 l 0.1875,-0.023437 h 0.0703 l 0.082,-0.011719 c 0.1875,-0.011719 0.31641,-0.023437 0.4336,-0.023437 0.26953,0 0.42187,0.09375 0.42187,0.2929688 0,0.234375 -0.26953,0.3984375 -0.64453,0.3984375 -0.11719,0 -0.28125,-0.011719 -0.44531,-0.046875 -0.11719,-0.023437 -0.23438,-0.035156 -0.36328,-0.035156 -0.64454,0 -1.07813,0.4804688 -1.07813,1.2070313 0,0.4101562 0.10547,0.65625 0.36328,0.8671875 0.32813,0.3046875 0.83203,0.45703125 1.44141,0.45703125 0.89062,0 1.35937,-0.31640625 1.61719,-1.10156255 l 0.30468,0.1054688 c -0.25781,1.1015625 -1.03125,1.6171875 -2.41406,1.6171875 -1.55859,0 -2.66016,-0.7734375 -2.66016,-1.8515625 0,-0.3632813 0.15235,-0.75 0.39844,-1.0078125 0.22266,-0.2578125 0.45703,-0.3984375 0.96094,-0.5625 z m 0,0"
         style="fill:#000000;fill-opacity:1;fill-rule:nonzero;stroke:none" />
      <path
         id="path65"
         d="m 144.21024,-2.69605 v 6.4453125 h 1.10156 v -9.0351563 h -0.72656 c -0.38672,1.3828125 -0.63281,1.5703125 -2.33203,1.7929688 v 0.796875 z m 7.80469,-6.421875 0.0586,1.40625 -1.32422,-0.4804688 -0.23437,0.7382813 1.34766,0.375 -0.86719,1.1132812 0.63281,0.4453125 0.78516,-1.1601562 0.77343,1.1601562 0.63282,-0.4453125 -0.86719,-1.1132812 1.34766,-0.375 -0.23438,-0.7382813 -1.32422,0.4804688 0.0586,-1.40625 z m 9.56543,2.671875 v 6.4453125 h 1.10156 v -9.0351563 h -0.72656 c -0.38672,1.3828125 -0.63281,1.5703125 -2.33203,1.7929688 v 0.796875 z m 7.15137,-2.5898438 c -0.82032,0 -1.57032,0.375 -2.02735,0.984375 -0.58593,0.796875 -0.86718,2.0039063 -0.86718,3.6796875 0,3.046875 0.99609,4.66406255 2.89453,4.66406255 1.875,0 2.90625,-1.61718755 2.90625,-4.59375005 0,-1.7460937 -0.28125,-2.9296875 -0.86719,-3.75 -0.45703,-0.6210937 -1.19531,-0.984375 -2.03906,-0.984375 z m 0,0.9726563 c 1.19531,0 1.78125,1.2070312 1.78125,3.65625 0,2.578125 -0.57422,3.78515625 -1.80469,3.78515625 -1.16016,0 -1.74609,-1.25390625 -1.74609,-3.73828125 0,-2.4960938 0.58593,-3.703125 1.76953,-3.703125 z m 7.0664,-2.0888675 h -2.97656 v 0.9023441 h 2.97656 z m 2.5459,-0.257812 h 0.59766 c 1.19531,0 1.83984,0.5624998 1.83984,1.6523436 0,1.1367187 -0.69141,1.8164062 -1.82812,1.8164062 -1.20704,0 -1.80469,-0.609375 -1.875,-1.9335937 h -1.10157 c 0.0469,0.7265625 0.17578,1.1953125 0.38672,1.6054687 0.46875,0.8671875 1.32422,1.3125 2.54297,1.3125 1.82813,0 3,-1.1015625 3,-2.8242187 0,-1.1484375 -0.43359,-1.7695311 -1.5,-2.1445311 0.82031,-0.339844 1.23047,-0.960938 1.23047,-1.875 0,-1.546875 -1.00781,-2.484375 -2.69531,-2.484375 -1.79297,0 -2.74219,0.996094 -2.77735,2.90625 h 1.10157 c 0.0117,-0.550781 0.0586,-0.855469 0.19921,-1.136719 0.2461,-0.515625 0.79688,-0.808594 1.48829,-0.808594 0.97265,0 1.55859,0.585938 1.55859,1.558594 0,0.644531 -0.22266,1.03125 -0.70313,1.242188 -0.30468,0.117187 -0.70312,0.175781 -1.46484,0.1875 z m 9.39551,1.291992 h -2.33203 V 2.6477 h 2.33203 V 1.7453562 h -1.28906 v -9.9609375 h 1.28906 z m 3.89941,5.2148437 h -2.97656 v 0.9023438 h 2.97656 z M 192.5413,2.6477 h 2.32031 V -9.117925 h -2.32031 v 0.9023437 h 1.27734 V 1.7453562 H 192.5413 Z M -13.242883,-213.14722 c -0.05859,-0.64453 -0.1875,-1.05469 -0.445312,-1.41797 -0.445313,-0.60938 -1.230469,-0.97266 -2.144532,-0.97266 -1.78125,0 -2.917968,1.39453 -2.917968,3.57422 0,2.10938 1.125,3.45703 2.90625,3.45703 1.558593,0 2.542968,-0.9375 2.671875,-2.54297 h -1.054688 c -0.175781,1.05469 -0.703125,1.57032 -1.59375,1.57032 -1.148437,0 -1.839844,-0.9375 -1.839844,-2.48438 0,-1.64062 0.679688,-2.61328 1.816407,-2.61328 0.867187,0 1.417968,0.51563 1.546875,1.42969 z m 5.2060549,-2.20313 -1.8164063,5.09766 -1.6757816,-5.09766 h -1.113281 l 2.214844,6.57422 -0.398438,1.04297 c -0.175781,0.45703 -0.398437,0.63281 -0.832031,0.63281 -0.175781,0 -0.328125,-0.0234 -0.550781,-0.0703 v 0.9375 c 0.210937,0.10547 0.421875,0.16406 0.691406,0.16406 0.339844,0 0.703125,-0.11718 0.984375,-0.3164 0.316406,-0.23438 0.503906,-0.51563 0.7031251,-1.04297 l 2.9179688,-7.92188 z m 7.29199216,2.20313 c -0.0585938,-0.64453 -0.1875,-1.05469 -0.44531246,-1.41797 -0.4453125,-0.60938 -1.2304688,-0.97266 -2.1445313,-0.97266 -1.78125,0 -2.9179687,1.39453 -2.9179687,3.57422 0,2.10938 1.125,3.45703 2.90625,3.45703 1.5585937,0 2.54296871,-0.9375 2.67187496,-2.54297 H -1.7292109 c -0.1757813,1.05469 -0.703125,1.57032 -1.59375,1.57032 -1.1484375,0 -1.8398438,-0.9375 -1.8398438,-2.48438 0,-1.64062 0.6796875,-2.61328 1.8164063,-2.61328 0.8671875,0 1.4179687,0.51563 1.546875,1.42969 z m 2.25585934,-4.76953 H 0.46805469 v 9.11718 H 1.5110234 Z m 7.2861329,6.1875 c 0,-0.9961 -0.070312,-1.59375 -0.2578125,-2.08594 -0.421875,-1.07813 -1.4296875,-1.72266 -2.6484375,-1.72266 -1.828125,0 -3,1.38282 -3,3.55078 0,2.16797 1.125,3.48047 2.9765625,3.48047 1.5,0 2.53125,-0.85547 2.8007812,-2.28515 H 7.6135625 c -0.2929687,0.86718 -0.8789062,1.3125 -1.7109375,1.3125 -0.6679687,0 -1.2304687,-0.29297 -1.5820312,-0.84375 -0.2460938,-0.375 -0.328125,-0.75 -0.3398438,-1.40625 z M 4.0041875,-212.573 c 0.082031,-1.21875 0.8203125,-2.00391 1.875,-2.00391 1.0546875,0 1.7929688,0.82031 1.7929688,2.00391 z m 12.0410155,-2.67188 v 6.44531 h 1.101563 v -9.03515 h -0.726563 c -0.386719,1.38281 -0.632812,1.57031 -2.332031,1.79297 v 0.79687 z m 0,0"
         style="fill:#000000;fill-opacity:1;fill-rule:nonzero;stroke:none" />
    </g>
    <path
       id="path66"
       d="M 1287.5,2300.5 H 1619 m 374.5,-840.5 -2,-7 -2,-6 -1.5,-6.5 -2,-6.5 -2,-6.5 -2,-6 -1.5,-6.5 -2,-6.5 -2,-6 -2,-6.5 -1.5,-6 -2,-6 -2,-6.5 -2,-6 -1.5,-6.5 -2,-6 -2,-6 -2,-6.5 -1.5,-6 -2,-6 -2,-6 -2,-6.5 -1.5,-6 -2,-6 -2,-6 -2,-6.5 -1.5,-6 -2,-6 -2,-6 -2,-6 -1.5,-6 -2,-6.5 -2,-6 -2,-6 -2,-6 -1.5,-6 -2,-6 -2,-6 -2,-6 -1.5,-6 -2,-6 -2,-6 -2,-6 -1.5,-6 -2,-6 -2,-6 -2,-6 -1.5,-6 -2,-5.5 -2,-6 -2,-6 -1.5,-6 -2,-5.5 -2,-6 -2,-5.5 -1.5,-6 -2,-5.5 -2,-5.5 -2,-5.5 -1.5,-5.5 -2,-5.5 -2,-5 -2,-5.5 -2,-5 -1.5,-4.5 -2,-4.5 -2,-4.5 -2,-4 -1.5,-3 -2,-3 -2,-2.5 -2,-1.5 -1.5,-0.5 -2,0.5 -2,0.5 -2,1.5 -1.5,2 -2,2 -2,-99.5 -2,-2.5 -1.5,-3 -2,-3.5 -2,-3 -2,-3 -1.5,-3.5 -2,-3.5 -2,-3 -2,-3.5 -1.5,-3.5 -2,-3 -2,-3.5 -2,-3 -1.5,-3.5 -2,-3 -2,-3 -2,-3.5 -2,-3 -1.5,-3 -2,-3 -2,-3 -2,-3 -1.5,-3 -2,-3 -2,-2.5 -2,-3 -1.5,-3 -2,-2.5 -2,-3 -2,-2.5 -1.5,-2.5 -2,-3 -2,-2.5 -2,-2.5 -1.5,-2.5 -2,-2.5 -2,-2.5 -2,-2.5 -1.5,-2.5 -2,-2.5 -2,-2.5 -2,-2.5 -1.5,-2 -2,-2.5 -2,-2.5 -2,-2 -1.5,-2.5 -2,-2 -2,-2.5 -2,-2 -1.5,-2 -2,-2.5 -2,-2 -2,-2 -2,-2 -1.5,-2 -2,-2 -2,-2 -2,-2 -1.5,-2 -2,-2 -2,-2 -2,-2 -1.5,-2 -2,-2 -2,-1.5 -2,-2 -1.5,-2 -2,-1.5 -2,-2 -2,-1.5 -1.5,-2 -2,-1.5 -2,-2 -2,-1.5 -1.5,-2 -2,-1.5 -2,-1.5 -2,-2 -1.5,-1.5 -2,-1.5 -2,-2 -2,-1.5 -1.5,-1.5 -2,-1.5 -2,-1.5 -2,-1.5 -1.5,-1.5 -2,-1.5 -2,-1.5 -2,-1.5 -2,-1.5 -1.5,-1.5 -2,-1.5 -2,-1.5 -2,-1.5 -1.5,-1.5 -2,-1.5 -2,-1 -2,-1.5 -1.5,-1.5 -2,-1 -2,-1.5 -2,-1.5 -1.5,-1 -2,-1.5 -2,-1.5 -2,-1 -1.5,-1.5 -2,-1 -2,-1.5 -2,-1 -1.5,-1.5 -2,-1 -2,-1.5 -2,-1 -1.5,-1.5 -2,-1 -2,-1 -2,-1.5 -1.5,-1 -2,-1 -2,-1.5 -2,-1 -1.5,-1 -2,-1 -2,-1 -2,-1.5 -2,-1 -1.5,-1 -2,-1 -2,-1 -2,-1 -1.5,-1 -2,-1.5 -2,-1 -2,-1 -1.5,-1 -2,-1 -2,-1 -2,-1 -1.5,-1 -2,-1 -2,-1 -2,-0.5 -1.5,-1 -2,-1 -2,-1 -2,-1 -1.5,-1 -2,-1 -2,-0.5 -2,-1 -1.5,-1 -2,-1 -2,-1 -2,-0.5 -1.5,-1 -2,-1 -2,-1 -2,-0.5 -1.5,-1 -2,-1 -2,-0.5 -2,-1 -2,-1 -1.5,-0.5 -2,-1"
       style="fill:none;stroke:#ff6600;stroke-width:7.5;stroke-linecap:butt;stroke-linejoin:miter;stroke-miterlimit:3.8;stroke-dasharray:none;stroke-opacity:1"
       transform="matrix(0.13333333,0,0,-0.13333333,0,336)" />
    <path
       id="path67"
       d="m 1529.5,655.5 -2,-0.5 -2,-1 -1.5,-1 -2,-0.5 -2,-1 -2,-0.5 -1.5,-1 -2,-0.5 -2,-1 -2,-0.5 -1.5,-1 -2,-0.5 -2,-1 -2,-0.5 -1.5,-1 -2,-0.5 -2,-0.5 -2,-1 -1.5,-0.5 -2,-1 -2,-0.5 -2,-0.5 -1.5,-1 -2,-0.5 -2,-0.5 -2,-1 -1.5,-0.5 -2,-0.5 -2,-1 -2,-0.5 -1.5,-0.5 -2,-1 -2,-0.5 -2,-0.5 -1.5,-0.5 -2,-1 -2,-0.5 -2,-0.5 -2,-0.5 -1.5,-0.5 -2,-1 -2,-0.5 -2,-0.5 -1.5,-0.5 -2,-0.5 -2,-0.5 -2,-1 -1.5,-0.5 -2,-0.5 -2,-0.5 -2,-0.5 -1.5,-0.5 -2,-0.5 -2,-0.5 -2,-1 -1.5,-0.5 -2,-0.5 -2,-0.5 -2,-0.5 -1.5,-0.5 -2,-0.5 -2,-0.5 -2,-0.5 -1.5,-0.5 -2,-0.5 -2,-0.5 -2,-0.5 -1.5,-0.5 -2,-0.5 -2,-0.5 -2,-0.5 -1.5,-0.5 -2,-0.5 -2,-0.5 -2,-0.5 -1.5,-0.5 -2,-0.5 h -2 l -2,-0.5 -1.5,-0.5 -2,-0.5 -2,-0.5 -2,-0.5 -2,-0.5 -1.5,-0.5 -2,-0.5 -2,-0.5 h -2 l -1.5,-0.5 -2,-0.5 -2,-0.5 -2,-0.5 -1.5,-0.5 h -2 l -2,-0.5 -2,-0.5 -1.5,-0.5 -2,-0.5 h -2 l -2,-0.5 -1.5,-0.5 -2,-0.5 -2,-0.5 h -2 l -1.5,-0.5 -2,-0.5 -2,-0.5 h -2 l -1.5,-0.5 -2,-0.5 -2,-0.5 h -2 l -1.5,-0.5 -2,-0.5 -2,-0.5 h -2 l -1.5,-0.5 -2,-0.5 h -2 l -2,-0.5 -1.5,-0.5 h -2 l -2,-0.5 -2,-0.5 -1.5,-0.5 h -2 l -2,-0.5 -2,-0.5 h -2 l -1.5,-0.5 h -2 l -2,-0.5 -2,-0.5 h -1.5 l -2,-0.5 -2,-0.5 h -2 l -1.5,-0.5 h -2 l -2,-0.5 -2,-0.5 h -1.5 l -2,-0.5 h -2 l -2,-0.5 -1.5,-0.5 h -2 l -2,-0.5 h -2 l -1.5,-0.5 -2,-0.5 h -2 l -2,-0.5 h -1.5 l -2,-0.5 h -2 l -2,-0.5 h -1.5 l -2,-0.5 h -2 l -2,-0.5 h -1.5 l -2,-0.5 -2,-0.5 h -2 L 1218,577 h -2 l -2,-0.5 h -2 l -1.5,-0.5 h -2 l -2,-0.5 h -2 L 1203,575 h -2 l -2,-0.5 h -2 -2 l -1.5,-0.5 h -2 l -2,-0.5 h -2 L 1186,573 h -2 l -2,-0.5 h -2 l -1.5,-0.5 h -2 -2 l -2,-0.5 h -1.5 l -2,-0.5 h -2 l -2,-0.5 h -1.5 -2 l -2,-0.5 h -2 l -1.5,-0.5 h -2 l -2,-0.5 h -2 -1.5 l -2,-0.5 h -2 l -2,-0.5 h -1.5 -2 l -2,-0.5 h -2 -1.5 l -2,-0.5 h -2 l -2,-0.5 h -1.5 -2 l -2,-0.5 h -2 -1.5 l -2,-0.5 h -2 l -2,-0.5 h -1.5 -2 l -2,-0.5 h -2 -1.5 l -2,-0.5 h -2 -2 l -2,-0.5 h -1.5 -2 l -2,-0.5 h -2 -1.5 l -2,-0.5 h -2 -2 L 1079,562 h -2 -2"
       style="fill:none;stroke:#ff6600;stroke-width:7.5;stroke-linecap:butt;stroke-linejoin:miter;stroke-miterlimit:3.8;stroke-dasharray:none;stroke-opacity:1"
       transform="matrix(0.13333333,0,0,-0.13333333,0,336)" />
    <path
       id="path68"
       d="m 5.8951172,-4.3464453 c -0.058594,-0.6445313 -0.1875,-1.0546875 -0.4453125,-1.4179688 -0.4453125,-0.609375 -1.2304688,-0.9726562 -2.1445313,-0.9726562 -1.78125,0 -2.91796871,1.3945312 -2.91796871,3.5742187 0,2.109375 1.12500001,3.45703129 2.90625001,3.45703129 1.5585937,0 2.5429687,-0.9375 2.671875,-2.54296879 H 4.9107422 c -0.1757813,1.0546875 -0.703125,1.57031254 -1.59375,1.57031254 -1.1484375,0 -1.8398438,-0.93750004 -1.8398438,-2.48437504 0,-1.640625 0.6796875,-2.6132812 1.8164063,-2.6132812 0.8671875,0 1.4179687,0.515625 1.546875,1.4296875 z M 11.101172,-6.5495703 9.2847656,-1.4519141 7.6089844,-6.5495703 H 6.4957031 L 8.7105469,0.02464844 8.3121094,1.0676172 C 8.1363281,1.5246484 7.9136719,1.7004297 7.4800781,1.7004297 c -0.1757812,0 -0.328125,-0.023437 -0.5507812,-0.070312 v 0.9375 c 0.2109375,0.1054687 0.421875,0.1640625 0.6914062,0.1640625 0.3398438,0 0.703125,-0.1171875 0.984375,-0.3164063 0.3164063,-0.234375 0.5039063,-0.515625 0.703125,-1.0429687 l 2.9179689,-7.921875 z m 7.291992,2.203125 c -0.05859,-0.6445313 -0.1875,-1.0546875 -0.445312,-1.4179688 -0.445313,-0.609375 -1.230469,-0.9726562 -2.144532,-0.9726562 -1.78125,0 -2.917968,1.3945312 -2.917968,3.5742187 0,2.109375 1.125,3.45703129 2.90625,3.45703129 1.558593,0 2.542968,-0.9375 2.671875,-2.54296879 h -1.054688 c -0.175781,1.0546875 -0.703125,1.57031254 -1.59375,1.57031254 -1.148437,0 -1.839844,-0.93750004 -1.839844,-2.48437504 0,-1.640625 0.679688,-2.6132812 1.816407,-2.6132812 0.867187,0 1.417968,0.515625 1.546875,1.4296875 z m 2.255859,-4.7695313 h -1.042968 v 9.11718754 h 1.042968 z m 7.286133,6.1875 c 0,-0.9960937 -0.07031,-1.59375 -0.257812,-2.0859375 -0.421875,-1.078125 -1.429688,-1.7226562 -2.648438,-1.7226562 -1.828125,0 -3,1.3828125 -3,3.5507812 0,2.1679688 1.125,3.48046879 2.976563,3.48046879 1.5,0 2.53125,-0.85546875 2.800781,-2.28515629 h -1.054687 c -0.292969,0.8671875 -0.878907,1.31250004 -1.710938,1.31250004 -0.667969,0 -1.230469,-0.29296875 -1.582031,-0.84375004 -0.246094,-0.375 -0.328125,-0.75 -0.339844,-1.40625 z m -4.792968,-0.84375 c 0.08203,-1.21875 0.820312,-2.0039062 1.875,-2.0039062 1.054687,0 1.792968,0.8203125 1.792968,2.0039062 z m 15.134765,2.6835938 h -4.664062 c 0.117187,-0.75 0.515625,-1.21875 1.59375,-1.8867188 l 1.253906,-0.703125 c 1.242187,-0.6796875 1.875,-1.6054687 1.875,-2.71875 0,-0.75 -0.292969,-1.453125 -0.820313,-1.9453125 -0.527343,-0.46875 -1.171875,-0.6914062 -2.015625,-0.6914062 -1.125,0 -1.957031,0.3984375 -2.449218,1.171875 -0.316407,0.46875 -0.457032,1.03125 -0.480469,1.9453125 h 1.101562 c 0.03516,-0.609375 0.117188,-0.9726563 0.269532,-1.2773438 0.28125,-0.5390625 0.855468,-0.8789062 1.523437,-0.8789062 0.996094,0 1.746094,0.7265625 1.746094,1.6992187 0,0.7265625 -0.410156,1.3476563 -1.195313,1.7929688 l -1.148437,0.6796875 c -1.851563,1.0664062 -2.390625,1.9101562 -2.496094,3.89062499 h 5.90625 z m 0,0"
       style="fill:#000000;fill-opacity:1;fill-rule:nonzero;stroke:none"
       aria-label="cycle 2"
       transform="matrix(1.3333333,0,0,1.3333333,109.8,51.486667)" />
    <path
       id="path69"
       d="M 1287.5,2175.5 H 1619 m 374.5,-715.5 -2,-6.5 -2,-6.5 -1.5,-6.5 -2,-6.5 -2,-6 -2,-6.5 -2,-6.5 -2,-6 -1.5,-6.5 -2,-6.5 -2,-6.5 -2,-6 -2,-6.5 -2,-6.5 -1.5,-6 -2,-6.5 -2,-6.5 -2,-6.5 -2,-6 -2,-6.5 -1.5,-6.5 -2,-6 -2,-6.5 -2,-6.5 -2,-6.5 -2,-6 -1.5,-6.5 -2,-6.5 -2,-6 -2,-6.5 -2,-6.5 -2,-6 -1.5,-6.5 -2,-6.5 -2,-6 -2,-6.5 -2,-6.5 -2,-6 -1.5,-6.5 -2,-6.5 -2,-6 -2,-6.5 -2,-6.5 -2,-6.5 -1.5,-6 -2,-6.5 -2,-6.5 -2,-6 -2,-6.5 -2,-6.5 -1.5,-6 -2,-6.5 -2,-6.5 -2,-6 -2,-6.5 -2,-6.5 -1.5,-6 -2,-6.5 -2,-6.5 -2,-6 -2,-6.5 -2,-6.5 -1.5,-6 -2,-6.5 -2,-6 -2,-6.5 -2,-6.5 -2,-6 -1.5,-6.5 -2,-6 -2,-6 -2,-8 -2,-5 -2,-5.5 -1.5,-5 -2,-5 -2,-4.5 -2,-5 -2,-4.5 -2,-4.5 -1.5,-4.5 -2,-4 -2,-4.5 -2,-4 -2,-4 -2,-4 -1.5,-4 -2,-3.5 -2,-4 -2,-3.5 -2,-3.5 -2,-4 -1.5,-3.5 -2,-3.5 -2,-3 -2,-3.5 -2,-3.5 -2,-3 -1.5,-3.5 -2,-3 -2,-3.5 -2,-3 -2,-3 -2,-3 -1.5,-3 -2,-3 -2,-3 -2,-2.5 -2,-3 -2,-3 -1.5,-2.5 -2,-3 -2,-2.5 -2,-2.5 -2,-3 -2,-2.5 -1.5,-2.5 -2,-2.5 -2,-2.5 -2,-2.5 -2,-2.5 -1.5,-2.5 -2,-2.5 -2,-2 -2,-2.5 -2,-2.5 -2,-2 -1.5,-2.5 -2,-2 -2,-2.5 -2,-2 -2,-2.5 -2,-2 -1.5,-2 -2,-2.5 -2,-2 -2,-2 -2,-2 -2,-2 -1.5,-2 -2,-2 -2,-2 -2,-2 -2,-2 -2,-2 -1.5,-2 -2,-1.5 -2,-2 -2,-2 -2,-1.5 -2,-2 -1.5,-2 -2,-1.5 -2,-2 -2,-1.5 -2,-2 -2,-1.5 -1.5,-1.5 -2,-2 -2,-1.5 -2,-1.5 -2,-2 -2,-1.5 -1.5,-1.5 -2,-1.5 -2,-1.5 -2,-2 -2,-1.5 -2,-1.5 -1.5,-1.5 -2,-1.5 -2,-1.5 -2,-1.5 -2,-1.5 -2,-1.5 -1.5,-1 -2,-1.5 -2,-1.5 -2,-1.5 -2,-1.5 -2,-1 -1.5,-1.5 -2,-1.5 -2,-1.5 -2,-1 -2,-1.5 -2,-1 -1.5,-1.5 -2,-1.5 -2,-1 -2,-1.5 -2,-1 -2,-1.5 -1.5,-1 -2,-1.5 -2,-1 -2,-1 -2,-1.5 -1.5,-1 -2,-1.5 -2,-1 -2,-1 -2,-1.5 -2,-1 -1.5,-1 -2,-1 -2,-1 -2,-1.5 -2,-1 -2,-1 -1.5,-1 -2,-1 -2,-1 -2,-1 -2,-1.5 -2,-1 -1.5,-1 -2,-1 -2,-1 -2,-1 -2,-1 -2,-1 -1.5,-1 -2,-1 -2,-0.5 -2,-1 -2,-1 -2,-1 -1.5,-1 -2,-1 -2,-1 -2,-0.5 -2,-1 -2,-1 -1.5,-1 -2,-1 -2,-0.5 -2,-1 -2,-1 -2,-0.5 -1.5,-1 -2,-1 -2,-0.5 -2,-1 -2,-1 -2,-0.5 -1.5,-1"
       style="fill:none;stroke:#0000ff;stroke-width:7.5;stroke-linecap:butt;stroke-linejoin:miter;stroke-miterlimit:3.8;stroke-dasharray:none;stroke-opacity:1"
       transform="matrix(0.13333333,0,0,-0.13333333,0,336)" />
    <path
       id="path70"
       d="m 1520.5,650.5 -2,-1 -2,-0.5 -2,-1 -2,-0.5 -2,-1 -1.5,-0.5 -2,-1 -2,-0.5 -2,-1 -2,-0.5 -2,-1 -1.5,-0.5 -2,-1 -2,-0.5 -2,-1 -2,-0.5 -1.5,-1 -2,-0.5 -2,-0.5 -2,-1 -2,-0.5 -2,-0.5 -1.5,-1 -2,-0.5 -2,-1 -2,-0.5 -2,-0.5 -2,-0.5 -1.5,-1 -2,-0.5 -2,-0.5 -2,-1 -2,-0.5 -2,-0.5 -1.5,-0.5 -2,-1 -2,-0.5 -2,-0.5 -2,-0.5 -2,-0.5 -1.5,-1 -2,-0.5 -2,-0.5 -2,-0.5 -2,-0.5 -2,-0.5 -1.5,-0.5 -2,-1 -2,-0.5 -2,-0.5 -2,-0.5 -2,-0.5 -1.5,-0.5 -2,-0.5 -2,-0.5 -2,-0.5 -2,-0.5 -2,-0.5 -1.5,-0.5 -2,-0.5 -2,-1 -2,-0.5 -2,-0.5 -2,-0.5 -1.5,-0.5 -2,-0.5 h -2 l -2,-0.5 -2,-0.5 -1.5,-0.5 -2,-0.5 -2,-0.5 -2,-0.5 -2,-0.5 -2,-0.5 -1.5,-0.5 -2,-0.5 -2,-0.5 -2,-0.5 -2,-0.5 -2,-0.5 h -1.5 l -2,-0.5 -2,-0.5 -2,-0.5 -2,-0.5 -2,-0.5 -1.5,-0.5 h -2 l -2,-0.5 -2,-0.5 -2,-0.5 -2,-0.5 h -1.5 l -2,-0.5 -2,-0.5 -2,-0.5 -2,-0.5 h -2 l -1.5,-0.5 -2,-0.5 -2,-0.5 -2,-0.5 h -2 l -2,-0.5 -1.5,-0.5 h -2 l -2,-0.5 -2,-0.5 -2,-0.5 h -1.5 l -2,-0.5 -2,-0.5 -2,-0.5 h -2 l -2,-0.5 -1.5,-0.5 h -2 l -2,-0.5 -2,-0.5 h -2 l -2,-0.5 -1.5,-0.5 h -2 l -2,-0.5 -2,-0.5 h -2 l -2,-0.5 h -1.5 l -2,-0.5 -2,-0.5 h -2 l -2,-0.5 -2,-0.5 h -1.5 l -2,-0.5 h -2 l -2,-0.5 -2,-0.5 h -2 l -1.5,-0.5 h -2 l -2,-0.5 h -2 l -2,-0.5 -2,-0.5 h -1.5 l -2,-0.5 h -2 l -2,-0.5 h -2 l -2,-0.5 h -1.5 l -2,-0.5 h -2 l -2,-0.5 -2,-0.5 h -1.5 l -2,-0.5 h -2 l -2,-0.5 h -2 l -2,-0.5 h -1.5 l -2,-0.5 h -2 l -2,-0.5 h -2 l -2,-0.5 h -1.5 -2 l -2,-0.5 h -2 l -2,-0.5 h -2 l -1.5,-0.5 h -2 l -2,-0.5 h -2 l -2,-0.5 h -2 -1.5 l -2,-0.5 h -2 l -2,-0.5 h -2 l -2,-0.5 h -1.5 -2 l -2,-0.5 h -2 l -2,-0.5 h -1.5 l -2,-0.5 h -2 -2 l -2,-0.5 h -2 l -1.5,-0.5 h -2 -2 l -2,-0.5 h -2 -2 L 1128,565 h -2 l -2,-0.5 h -2 -2 l -2,-0.5 h -1.5 -2 l -2,-0.5 h -2 -2 l -2,-0.5 h -1.5 -2 l -2,-0.5 h -2 l -2,-0.5 h -2 -1.5 -2 l -2,-0.5 h -2 -2 l -2,-0.5 h -1.5 -2 l -2,-0.5 h -2 -2 l -1.5,-0.5 h -2 -2 l -2,-0.5 h -2 -2 L 1061,559 h -2 -2"
       style="fill:none;stroke:#0000ff;stroke-width:7.5;stroke-linecap:butt;stroke-linejoin:miter;stroke-miterlimit:3.8;stroke-dasharray:none;stroke-opacity:1"
       transform="matrix(0.13333333,0,0,-0.13333333,0,336)" />
    <path
       id="path71"
       d="m 5.8951172,-4.3483984 c -0.058594,-0.6445313 -0.1875,-1.0546875 -0.4453125,-1.4179688 -0.4453125,-0.609375 -1.2304688,-0.9726562 -2.1445313,-0.9726562 -1.78125,0 -2.91796871,1.3945312 -2.91796871,3.5742187 0,2.109375 1.12500001,3.45703126 2.90625001,3.45703126 1.5585937,0 2.5429687,-0.9375 2.671875,-2.54296876 H 4.9107422 c -0.1757813,1.0546875 -0.703125,1.57031251 -1.59375,1.57031251 -1.1484375,0 -1.8398438,-0.93750001 -1.8398438,-2.48437501 0,-1.640625 0.6796875,-2.6132812 1.8164063,-2.6132812 0.8671875,0 1.4179687,0.515625 1.546875,1.4296875 z M 11.101172,-6.5515234 9.2847656,-1.4538672 7.6089844,-6.5515234 H 6.4957031 L 8.7105469,0.02269531 8.3121094,1.0656641 C 8.1363281,1.5226953 7.9136719,1.6984766 7.4800781,1.6984766 c -0.1757812,0 -0.328125,-0.023437 -0.5507812,-0.070312 v 0.9375 c 0.2109375,0.1054687 0.421875,0.1640625 0.6914062,0.1640625 0.3398438,0 0.703125,-0.1171875 0.984375,-0.3164063 0.3164063,-0.234375 0.5039063,-0.515625 0.703125,-1.0429687 l 2.9179689,-7.921875 z m 7.291992,2.203125 c -0.05859,-0.6445313 -0.1875,-1.0546875 -0.445312,-1.4179688 -0.445313,-0.609375 -1.230469,-0.9726562 -2.144532,-0.9726562 -1.78125,0 -2.917968,1.3945312 -2.917968,3.5742187 0,2.109375 1.125,3.45703126 2.90625,3.45703126 1.558593,0 2.542968,-0.9375 2.671875,-2.54296876 h -1.054688 c -0.175781,1.0546875 -0.703125,1.57031251 -1.59375,1.57031251 -1.148437,0 -1.839844,-0.93750001 -1.839844,-2.48437501 0,-1.640625 0.679688,-2.6132812 1.816407,-2.6132812 0.867187,0 1.417968,0.515625 1.546875,1.4296875 z m 2.255859,-4.7695313 h -1.042968 v 9.1171875125 h 1.042968 z m 7.286133,6.1875 c 0,-0.9960937 -0.07031,-1.59375 -0.257812,-2.0859375 -0.421875,-1.078125 -1.429688,-1.7226562 -2.648438,-1.7226562 -1.828125,0 -3,1.3828125 -3,3.5507812 0,2.1679688 1.125,3.48046876 2.976563,3.48046876 1.5,0 2.53125,-0.85546875 2.800781,-2.28515626 h -1.054687 c -0.292969,0.8671875 -0.878907,1.31250001 -1.710938,1.31250001 -0.667969,0 -1.230469,-0.29296875 -1.582031,-0.84375001 -0.246094,-0.375 -0.328125,-0.75 -0.339844,-1.40625 z m -4.792968,-0.84375 c 0.08203,-1.21875 0.820312,-2.0039062 1.875,-2.0039062 1.054687,0 1.792968,0.8203125 1.792968,2.0039062 z m 11.572265,-0.3867187 h 0.597656 c 1.195313,0 1.839844,0.5625 1.839844,1.6523437 0,1.1367188 -0.691406,1.81640626 -1.828125,1.81640626 -1.207031,0 -1.804687,-0.60937496 -1.875,-1.93359376 h -1.101562 c 0.04687,0.7265625 0.175781,1.1953125 0.386718,1.6054688 0.46875,0.86718746 1.324219,1.31249996 2.542969,1.31249996 1.828125,0 3,-1.1015625 3,-2.82421876 0,-1.1484375 -0.433594,-1.7695312 -1.5,-2.1445312 0.820313,-0.3398438 1.230469,-0.9609375 1.230469,-1.875 0,-1.546875 -1.007813,-2.484375 -2.695313,-2.484375 -1.792968,0 -2.742187,0.9960937 -2.777343,2.90625 h 1.101562 c 0.01172,-0.5507813 0.05859,-0.8554688 0.199219,-1.1367188 0.246094,-0.515625 0.796875,-0.8085937 1.488281,-0.8085937 0.972656,0 1.558594,0.5859375 1.558594,1.5585937 0,0.6445313 -0.222656,1.03125 -0.703125,1.2421875 -0.304688,0.1171875 -0.703125,0.1757813 -1.464844,0.1875 z m 0,0"
       style="fill:#000000;fill-opacity:1;fill-rule:nonzero;stroke:none"
       aria-label="cycle 3"
       transform="matrix(1.3333333,0,0,1.3333333,109.8,68.153333)" />
    <path
       id="path72"
       d="M 1287.5,2050.5 H 1619 m 374.5,-590.5 -2,-6.5 -2,-6.5 -2,-6.5 -2,-6.5 -2,-6.5 -1.5,-6 -2,-6.5 -2,-6.5 -2,-6.5 -2,-6.5 -2,-6.5 -2,-6.5 -2,-6.5 -2,-6.5 -2,-6.5 -2,-6.5 -1.5,-6 -2,-6.5 -2,-6.5 -2,-6.5 -2,-6.5 -2,-6.5 -2,-6.5 -2,-6.5 -2,-6.5 -2,-6.5 -2,-6.5 -1.5,-6.5 -2,-6.5 -2,-6.5 -2,-6.5 -2,-6.5 -2,-6.5 -2,-6.5 -2,-6.5 -2,-6 -2,-6.5 -2,-6.5 -1.5,-6.5 -2,-6.5 -2,-6.5 -2,-6.5 -2,-6.5 -2,-6.5 -2,-6.5 -2,-6.5 -2,-6.5 -2,-6.5 -2,-6.5 -1.5,-6.5 -2,-6 -2,-6.5 -2,-6.5 -2,-6.5 -2,-6.5 -2,-6.5 -2,-6.5 -2,-6.5 -2,-6 -2,-6.5 -1.5,-6.5 -2,-6.5 -2,-6 -2,-6.5 -2,-6 -2,-6.5 -2,-5.5 -2,-5.5 -2,-32 -2,2.5 -2,-0.5 -1.5,-3.5 -2,-4 -2,-4.5 -2,-4.5 -2,-5 -2,-4.5 -2,-4.5 -2,-4.5 -2,-4 -2,-4.5 -2,-4 -1.5,-4 -2,-4.5 -2,-3.5 -2,-4 -2,-4 -2,-3.5 -2,-4 -2,-3.5 -2,-3.5 -2,-3.5 -2,-3.5 -1.5,-3.5 -2,-3.5 -2,-3.5 -2,-3 -2,-3.5 -2,-3 -2,-3 -2,-3.5 -2,-3 -2,-3 -2,-3 -1.5,-3 -2,-3 -2,-2.5 -2,-3 -2,-3 -2,-2.5 -2,-3 -2,-2.5 -2,-3 -2,-2.5 -2,-2.5 -1.5,-2.5 -2,-2.5 -2,-2.5 -2,-2.5 -2,-2.5 -2,-2.5 -2,-2.5 -2,-2.5 -2,-2.5 -2,-2 -2,-2.5 -1.5,-2 -2,-2.5 -2,-2 -2,-2.5 -2,-2 -2,-2.5 -2,-2 -2,-2 -2,-2 -2,-2 -2,-2.5 -1.5,-2 -2,-2 -2,-2 -2,-2 -2,-2 -2,-1.5 -2,-2 -2,-2 -2,-2 -2,-2 -2,-1.5 -1.5,-2 -2,-2 -2,-1.5 -2,-2 -2,-1.5 -2,-2 -2,-1.5 -2,-2 -2,-1.5 -2,-1.5 -2,-2 -1.5,-1.5 -2,-1.5 -2,-1.5 -2,-2 -2,-1.5 -2,-1.5 -2,-1.5 -2,-1.5 -2,-1.5 -2,-1.5 -2,-1.5 -1.5,-1.5 -2,-1.5 -2,-1.5 -2,-1.5 -2,-1.5 -2,-1.5 -2,-1 -2,-1.5 -2,-1.5 -2,-1.5 -2,-1.5 -1.5,-1 -2,-1.5 -2,-1.5 -2,-1 -2,-1.5 -2,-1 -2,-1.5 -2,-1 -2,-1.5 -2,-1 -2,-1.5 -1.5,-1 -2,-1.5 -2,-1 -2,-1.5 -2,-1 -2,-1 -2,-1.5 -2,-1 -2,-1 -2,-1.5 -2,-1 -1.5,-1 -2,-1 -2,-1 -2,-1.5 -2,-1 -2,-1 -2,-1 -2,-1 -2,-1 -2,-1 -1.5,-1 -2,-1 -2,-1 -2,-1 -2,-1 -2,-1 -2,-1 -2,-1 -2,-1 -2,-1 -2,-1 -1.5,-1 -2,-1 -2,-1 -2,-1 -2,-0.5 -2,-1 -2,-1 -2,-1 -2,-0.5 -2,-1 -2,-1 -1.5,-1 -2,-0.5 -2,-1 -2,-1 -2,-0.5 -2,-1 -2,-1 -2,-0.5 -2,-1 -2,-1 -2,-0.5 -1.5,-1"
       style="fill:none;stroke:#008000;stroke-width:7.5;stroke-linecap:butt;stroke-linejoin:miter;stroke-miterlimit:3.8;stroke-dasharray:none;stroke-opacity:1"
       transform="matrix(0.13333333,0,0,-0.13333333,0,336)" />
    <path
       id="path73"
       d="m 1511,645.5 -2,-0.5 -2,-1 -2,-0.5 -2,-1 -2,-0.5 -2,-1 -2,-0.5 -2,-1 -2,-0.5 -2,-1 -1.5,-0.5 -2,-1 -2,-0.5 -2,-1 -2,-0.5 -2,-0.5 -2,-1 -2,-0.5 -2,-1 -2,-0.5 -2,-0.5 -1.5,-1 -2,-0.5 -2,-0.5 -2,-0.5 -2,-1 -2,-0.5 -2,-0.5 -2,-1 -2,-0.5 -2,-0.5 -1.5,-0.5 -2,-1 -2,-0.5 -2,-0.5 -2,-0.5 -2,-0.5 -2,-1 -2,-0.5 -2,-0.5 -2,-0.5 -2,-0.5 -1.5,-0.5 -2,-0.5 -2,-1 -2,-0.5 -2,-0.5 -2,-0.5 -2,-0.5 -2,-0.5 -2,-0.5 -2,-0.5 -2,-0.5 -1.5,-0.5 -2,-0.5 -2,-0.5 -2,-0.5 -2,-0.5 -2,-0.5 -2,-0.5 -2,-0.5 -2,-0.5 -2,-0.5 -2,-0.5 -1.5,-0.5 -2,-0.5 -2,-0.5 -2,-0.5 -2,-0.5 -2,-0.5 -2,-0.5 -2,-0.5 -2,-0.5 -2,-0.5 -2,-0.5 h -1.5 l -2,-0.5 -2,-0.5 -2,-0.5 -2,-0.5 -2,-0.5 -2,-0.5 h -2 l -2,-0.5 -2,-0.5 -1.5,-0.5 -2,-0.5 -2,-0.5 h -2 l -2,-0.5 -2,-0.5 -2,-0.5 -2,-0.5 h -2 l -2,-0.5 -2,-0.5 -1.5,-0.5 h -2 l -2,-0.5 -2,-0.5 -2,-0.5 h -2 l -2,-0.5 -2,-0.5 -2,-0.5 h -2 l -2,-0.5 -1.5,-0.5 h -2 l -2,-0.5 -2,-0.5 -2,-0.5 h -2 l -2,-0.5 -2,-0.5 h -2 l -2,-0.5 -2,-0.5 h -1.5 l -2,-0.5 h -2 l -2,-0.5 -2,-0.5 h -2 l -2,-0.5 -2,-0.5 h -2 l -2,-0.5 h -1.5 l -2,-0.5 -2,-0.5 h -2 l -2,-0.5 h -2 l -2,-0.5 -2,-0.5 h -2 l -2,-0.5 h -2 l -1.5,-0.5 h -2 l -2,-0.5 -2,-0.5 h -2 l -2,-0.5 h -2 l -2,-0.5 h -2 l -2,-0.5 h -2 l -1.5,-0.5 h -2 l -2,-0.5 h -2 l -2,-0.5 h -2 l -2,-0.5 h -2 l -2,-0.5 h -2 l -1.5,-0.5 h -2 l -2,-0.5 h -2 l -2,-0.5 h -2 l -2,-0.5 h -2 l -2,-0.5 h -2 -2 l -1.5,-0.5 h -2 l -2,-0.5 h -2 l -2,-0.5 h -2 l -2,-0.5 h -2 -2 l -2,-0.5 h -2 l -1.5,-0.5 h -2 l -2,-0.5 h -2 -2 l -2,-0.5 h -2 l -2,-0.5 h -2 -2 L 1134,565 h -2 -2 l -2,-0.5 h -2 l -2,-0.5 h -2 -2 l -2,-0.5 h -2 -2 l -1.5,-0.5 h -2 -2 l -2,-0.5 h -2 l -2,-0.5 h -2 -2 l -2,-0.5 h -2 -2 L 1091,561 h -2 -2 l -2,-0.5 h -2 -2 l -2,-0.5 h -2 -2 -2 l -1.5,-0.5 h -2 -2 l -2,-0.5 h -2 -2 l -2,-0.5 h -2 -2 -2 l -2,-0.5 h -1.5 -2 l -2,-0.5 h -2 -2 -2 l -2,-0.5"
       style="fill:none;stroke:#008000;stroke-width:7.5;stroke-linecap:butt;stroke-linejoin:miter;stroke-miterlimit:3.8;stroke-dasharray:none;stroke-opacity:1"
       transform="matrix(0.13333333,0,0,-0.13333333,0,336)" />
    <path
       id="path74"
       d="m 5.8951172,-4.3474219 c -0.058594,-0.6445312 -0.1875,-1.0546875 -0.4453125,-1.4179687 -0.4453125,-0.609375 -1.2304688,-0.9726563 -2.1445313,-0.9726563 -1.78125,0 -2.91796871,1.3945313 -2.91796871,3.5742188 0,2.109375 1.12500001,3.45703123 2.90625001,3.45703123 1.5585937,0 2.5429687,-0.9375 2.671875,-2.54296873 H 4.9107422 c -0.1757813,1.0546875 -0.703125,1.57031248 -1.59375,1.57031248 -1.1484375,0 -1.8398438,-0.93749998 -1.8398438,-2.48437498 0,-1.640625 0.6796875,-2.6132813 1.8164063,-2.6132813 0.8671875,0 1.4179687,0.515625 1.546875,1.4296875 z M 11.101172,-6.5505469 9.2847656,-1.4528906 7.6089844,-6.5505469 H 6.4957031 L 8.7105469,0.02367188 8.3121094,1.0666406 C 8.1363281,1.5236719 7.9136719,1.6994531 7.4800781,1.6994531 c -0.1757812,0 -0.328125,-0.023437 -0.5507812,-0.070312 v 0.9375 c 0.2109375,0.1054688 0.421875,0.1640625 0.6914062,0.1640625 0.3398438,0 0.703125,-0.1171875 0.984375,-0.3164062 0.3164063,-0.234375 0.5039063,-0.515625 0.703125,-1.0429688 l 2.9179689,-7.921875 z m 7.291992,2.203125 c -0.05859,-0.6445312 -0.1875,-1.0546875 -0.445312,-1.4179687 -0.445313,-0.609375 -1.230469,-0.9726563 -2.144532,-0.9726563 -1.78125,0 -2.917968,1.3945313 -2.917968,3.5742188 0,2.109375 1.125,3.45703123 2.90625,3.45703123 1.558593,0 2.542968,-0.9375 2.671875,-2.54296873 h -1.054688 c -0.175781,1.0546875 -0.703125,1.57031248 -1.59375,1.57031248 -1.148437,0 -1.839844,-0.93749998 -1.839844,-2.48437498 0,-1.640625 0.679688,-2.6132813 1.816407,-2.6132813 0.867187,0 1.417968,0.515625 1.546875,1.4296875 z m 2.255859,-4.7695312 H 19.606055 V 2.34375e-4 h 1.042968 z m 7.286133,6.1875 c 0,-0.9960938 -0.07031,-1.59375 -0.257812,-2.0859375 -0.421875,-1.078125 -1.429688,-1.7226563 -2.648438,-1.7226563 -1.828125,0 -3,1.3828125 -3,3.5507813 0,2.1679687 1.125,3.48046873 2.976563,3.48046873 1.5,0 2.53125,-0.85546875 2.800781,-2.28515623 h -1.054687 c -0.292969,0.8671875 -0.878907,1.31249998 -1.710938,1.31249998 -0.667969,0 -1.230469,-0.29296875 -1.582031,-0.84374998 -0.246094,-0.375 -0.328125,-0.75 -0.339844,-1.40625 z m -4.792968,-0.84375 c 0.08203,-1.21875 0.820312,-2.0039063 1.875,-2.0039063 1.054687,0 1.792968,0.8203125 1.792968,2.0039063 z m 12.896484,1.5820312 V 2.34375e-4 h 1.101562 V -2.1911719 h 1.3125 v -0.984375 h -1.3125 v -5.859375 h -0.820312 l -4.019531,5.6835938 v 1.1601562 z m 0,-0.984375 h -2.777344 l 2.777344,-3.984375 z m 0,0"
       style="fill:#000000;fill-opacity:1;fill-rule:nonzero;stroke:none"
       aria-label="cycle 4"
       transform="matrix(1.3333333,0,0,1.3333333,109.8,84.82)" />
    <path
       id="path75"
       d="M 1287.5,1925.5 H 1619 m 374.5,-465.5 -2,-7 -2,-6.5 -2,-6.5 -2,-7 -2,-6.5 -2,-7 -2.5,-6.5 -2,-6.5 -2,-7 -2,-6.5 -2,-7 -2,-6.5 -2,-7 -2,-6.5 -2,-7 -2,-6.5 -2,-7 -2,-6.5 -2,-7 -2.5,-6.5 -2,-7 -2,-6.5 -2,-7 -2,-6.5 -2,-7 -2,-6.5 -2,-7 -2,-6.5 -2,-7 -2,-6.5 -2,-7 -2.5,-6.5 -2,-7 -2,-6.5 -2,-7 -2,-6.5 -2,-7 -2,-6.5 -2,-7 -2,-6.5 -2,-7 -2,-6.5 -2,-7 -2,-6.5 -2.5,-7 -2,-6.5 -2,-7 -2,-6.5 -2,-7 -2,-6.5 -2,-6.5 -2,-7 -2,-6.5 -2,-7 -2,-6.5 -2,-6.5 -2,-7 -2.5,-6.5 -2,-6.5 -2,-6.5 -2,-6.5 -2,-6.5 -2,-6.5 -2,-6 -2,-5.5 -2,-35 -2,2.5 -2,-0.5 -2,-3 -2,-4.5 -2.5,-4.5 -2,-4.5 -2,-5 -2,-4.5 -2,-5 -2,-4.5 -2,-4.5 -2,-4 -2,-4.5 -2,-4.5 -2,-4 -2,-4 -2,-4 -2.5,-4 -2,-4 -2,-3.5 -2,-4 -2,-3.5 -2,-3.5 -2,-4 -2,-3.5 -2,-3.5 -2,-3 -2,-3.5 -2,-3.5 -2.5,-3 -2,-3.5 -2,-3 -2,-3.5 -2,-3 -2,-3 -2,-3 -2,-3 -2,-3 -2,-3 -2,-2.5 -2,-3 -2,-3 -2.5,-2.5 -2,-3 -2,-2.5 -2,-2.5 -2,-3 -2,-2.5 -2,-2.5 -2,-2.5 -2,-2.5 -2,-2.5 -2,-2.5 -2,-2.5 -2,-2.5 -2.5,-2 -2,-2.5 -2,-2.5 -2,-2 -2,-2.5 -2,-2 -2,-2.5 -2,-2 -2,-2.5 -2,-2 -2,-2 -2,-2 -2,-2.5 -2.5,-2 -2,-2 -2,-2 -2,-2 -2,-2 -2,-2 -2,-2 -2,-1.5 -2,-2 -2,-2 -2,-2 -2,-1.5 -2,-2 -2.5,-2 -2,-1.5 -2,-2 -2,-1.5 -2,-2 -2,-1.5 -2,-2 -2,-1.5 -2,-1.5 -2,-2 -2,-1.5 -2,-1.5 -2,-1.5 -2.5,-2 -2,-1.5 -2,-1.5 -2,-1.5 -2,-1.5 -2,-1.5 -2,-1.5 -2,-1.5 -2,-1.5 -2,-1.5 -2,-1.5 -2,-1.5 -2,-1.5 -2.5,-1 -2,-1.5 -2,-1.5 -2,-1.5 -2,-1.5 -2,-1 -2,-1.5 -2,-1.5 -2,-1 -2,-1.5 -2,-1 -2,-1.5 -2,-1 -2.5,-1.5 -2,-1 -2,-1.5 -2,-1 -2,-1.5 -2,-1 -2,-1.5 -2,-1 -2,-1 -2,-1.5 -2,-1 -2,-1 -2,-1 -2.5,-1.5 -2,-1 -2,-1 -2,-1 -2,-1 -2,-1.5 -2,-1 -2,-1 -2,-1 -2,-1 -2,-1 -2,-1 -2,-1 -2.5,-1 -2,-1 -2,-1 -2,-1 -2,-1 -2,-1 -2,-1 -2,-1 -2,-1 -2,-0.5 -2,-1 -2,-1 -2,-1 -2.5,-1 -2,-1 -2,-0.5 -2,-1 -2,-1 -2,-1 -2,-0.5 -2,-1 -2,-1 -2,-0.5 -2,-1 -2,-1 -2,-0.5 -2.5,-1 -2,-0.5 -2,-1 -2,-1 -2,-0.5 -2,-1 -2,-0.5 -2,-1 -2,-0.5"
       style="fill:none;stroke:#e166ff;stroke-width:7.5;stroke-linecap:butt;stroke-linejoin:miter;stroke-miterlimit:3.8;stroke-dasharray:none;stroke-opacity:1"
       transform="matrix(0.13333333,0,0,-0.13333333,0,336)" />
    <path
       id="path76"
       d="m 1490,638 -2,-1 -2,-0.5 -2,-1 -2,-0.5 -2.5,-1 -2,-0.5 -2,-1 -2,-0.5 -2,-0.5 -2,-1 -2,-0.5 -2,-1 -2,-0.5 -2,-0.5 -2,-1 -2,-0.5 -2,-0.5 -2.5,-1 -2,-0.5 -2,-0.5 -2,-0.5 -2,-1 -2,-0.5 -2,-0.5 -2,-0.5 -2,-1 -2,-0.5 -2,-0.5 -2,-0.5 -2,-1 -2.5,-0.5 -2,-0.5 -2,-0.5 -2,-0.5 -2,-0.5 -2,-0.5 -2,-1 -2,-0.5 -2,-0.5 -2,-0.5 -2,-0.5 -2,-0.5 -2,-0.5 -2,-0.5 -2.5,-0.5 -2,-0.5 -2,-0.5 -2,-0.5 -2,-1 -2,-0.5 -2,-0.5 -2,-0.5 -2,-0.5 -2,-0.5 -2,-0.5 -2,-0.5 h -2 l -2.5,-0.5 -2,-0.5 -2,-0.5 -2,-0.5 -2,-0.5 -2,-0.5 -2,-0.5 -2,-0.5 -2,-0.5 -2,-0.5 -2,-0.5 -2,-0.5 h -2 l -2.5,-0.5 -2,-0.5 -2,-0.5 -2,-0.5 -2,-0.5 -2,-0.5 h -2 l -2,-0.5 -2,-0.5 -2,-0.5 -2,-0.5 h -2 l -2,-0.5 -2.5,-0.5 -2,-0.5 -2,-0.5 h -2 l -2,-0.5 -2,-0.5 -2,-0.5 h -2 l -2,-0.5 -2,-0.5 -2,-0.5 h -2 l -2,-0.5 -2.5,-0.5 h -2 l -2,-0.5 -2,-0.5 -2,-0.5 h -2 l -2,-0.5 -2,-0.5 h -2 l -2,-0.5 -2,-0.5 h -2 l -2,-0.5 -2,-0.5 h -2.5 l -2,-0.5 h -2 l -2,-0.5 -2,-0.5 h -2 l -2,-0.5 -2,-0.5 h -2 l -2,-0.5 h -2 l -2,-0.5 -2,-0.5 h -2.5 l -2,-0.5 h -2 l -2,-0.5 h -2 l -2,-0.5 -2,-0.5 h -2 l -2,-0.5 h -2 l -2,-0.5 h -2 l -2,-0.5 h -2.5 l -2,-0.5 h -2 l -2,-0.5 -2,-0.5 h -2 l -2,-0.5 h -2 l -2,-0.5 h -2 l -2,-0.5 h -2 l -2,-0.5 h -2 -2.5 l -2,-0.5 h -2 l -2,-0.5 h -2 l -2,-0.5 h -2 l -2,-0.5 h -2 l -2,-0.5 h -2 l -2,-0.5 h -2 -2.5 l -2,-0.5 h -2 l -2,-0.5 h -2 l -2,-0.5 h -2 -2 l -2,-0.5 h -2 l -2,-0.5 h -2 -2 L 1129,565 h -2 l -2,-0.5 h -2 -2 l -2,-0.5 h -2 -2 l -2,-0.5 h -2 l -2,-0.5 h -2 -2 l -2,-0.5 h -2.5 -2 l -2,-0.5 h -2 -2 l -2,-0.5 h -2 l -2,-0.5 h -2 -2 l -2,-0.5 h -2 -2 -2.5 l -2,-0.5 h -2 -2 l -2,-0.5 h -2 -2 l -2,-0.5 h -2 -2 l -2,-0.5 h -2 -2 l -2.5,-0.5 h -2 -2 -2 l -2,-0.5 h -2 -2 l -2,-0.5 h -2 -2 -2 l -2,-0.5 h -2 -2 -2.5 l -2,-0.5 h -2 -2 l -2,-0.5 h -2 -2 -2 l -2,-0.5 h -2 -2 -2"
       style="fill:none;stroke:#e166ff;stroke-width:7.5;stroke-linecap:butt;stroke-linejoin:miter;stroke-miterlimit:3.8;stroke-dasharray:none;stroke-opacity:1"
       transform="matrix(0.13333333,0,0,-0.13333333,0,336)" />
    <path
       id="path77"
       d="m 1993.5,1460 2.5,6.5 4,12.5 6.5,19 8.5,25 10.5,31.5 12.5,38 14.5,44.5 17,50.5 18.5,56.5 19,56 18.5,52 19,85.5 18.5,31.5 19,32.5 19,29.5 18.5,26.5 19,23.5 18.5,21.5 19,19.5 18.5,17.5 19,16.5 18.5,15 19,13.5 19,13 18.5,11.5 19,11 18.5,10.5 19,9 18.5,9 19,8 18.5,7.5 19,7 19,6.5 18.5,6 19,5.5 18.5,5.5 19,5 18.5,4.5 19,4 19,4 18.5,4 19,3.5 18.5,3 19,3 18.5,3 19,2.5 19,2.5 18.5,2.5 19,2 18.5,2 19,2 18.5,2 19,1.5 19,1.5 18.5,1.5 19,1.5 18.5,1 19,1.5 19,1 18.5,1 19,1 18.5,1 19,1 18.5,0.5 19,1 19,0.5 18.5,0.5 19,1 18.5,0.5"
       style="fill:none;stroke:#ff6600;stroke-width:7.5;stroke-linecap:butt;stroke-linejoin:miter;stroke-miterlimit:3.8;stroke-dasharray:none;stroke-opacity:1"
       transform="matrix(0.13333333,0,0,-0.13333333,0,336)" />
    <path
       id="path78"
       d="m 1993.5,1460 2.5,6.5 4,13.5 6.5,20 9,26.5 10.5,33.5 13,40 15,47 17,53 19,60 19,59 19.5,52.5 19,75.5 19,37 19,33 19.5,29.5 19,26 19,23.5 19.5,21 19,19.5 19,17.5 19,16 19.5,14.5 19,13.5 19,12.5 19.5,11.5 19,10.5 19,10 19.5,9 19,8.5 19,7.5 19.5,7 19,7 19,6 19,6 19.5,5.5 19,5 19,4.5 19.5,4 19,4 19,4 19.5,3.5 19,3 19,3 19.5,3 19,2.5 19,2.5 19.5,2.5 19,2 19,2 19,2 19.5,1.5 19,2 19,1.5 19.5,1 19,1.5 19,1 19.5,1.5 19,1 19,1 19.5,1 19,1 19,0.5 19.5,1 19,0.5 19,0.5 19.5,1 19,0.5 19,0.5 19.5,0.5"
       style="fill:none;stroke:#0000ff;stroke-width:7.5;stroke-linecap:butt;stroke-linejoin:miter;stroke-miterlimit:3.8;stroke-dasharray:none;stroke-opacity:1"
       transform="matrix(0.13333333,0,0,-0.13333333,0,336)" />
    <path
       id="path79"
       d="m 1993.5,1460 2.5,7 4.5,13.5 6.5,21 9,27 10.5,34.5 13.5,41.5 15,48 17.5,55 19.5,61.5 19.5,60.5 19.5,105.5 19.5,21 19.5,37.5 19.5,33 19.5,29.5 19.5,25.5 19.5,23.5 19.5,21 20,19 19.5,17.5 19.5,16 19.5,14.5 19.5,13 19.5,12.5 19.5,11 19.5,10.5 19.5,9.5 19.5,9 19.5,8 19.5,7.5 19.5,7 19.5,6.5 20,6.5 19.5,5.5 19.5,5 19.5,5 19.5,4.5 19.5,4 19.5,4 19.5,3.5 19.5,3.5 19.5,3 19.5,3 19.5,2.5 20,2.5 19.5,2.5 19.5,2 19.5,2 19.5,2 19.5,1.5 19.5,2 19.5,1.5 19.5,1.5 19.5,1 20,1.5 19.5,1 19.5,1 19.5,1 19.5,1 19.5,1 19.5,1 19.5,0.5 19.5,0.5 19.5,1 20,0.5 19.5,0.5 19.5,0.5 19.5,0.5 19.5,0.5"
       style="fill:none;stroke:#008000;stroke-width:7.5;stroke-linecap:butt;stroke-linejoin:miter;stroke-miterlimit:3.8;stroke-dasharray:none;stroke-opacity:1"
       transform="matrix(0.13333333,0,0,-0.13333333,0,336)" />
    <path
       id="path80"
       d="M 612.5,2394.5 V 525 h 2762 v 1869.5 z"
       style="fill:none;stroke:#000000;stroke-width:5;stroke-linecap:butt;stroke-linejoin:miter;stroke-miterlimit:3.8;stroke-dasharray:none;stroke-opacity:1"
       transform="matrix(0.13333333,0,0,-0.13333333,0,336)" />
  </g>
</svg>
